<svg id="Слой_1" xmlns="http://www.w3.org/2000/svg" viewBox="0 0 609.6 99.3"><style>.st0{fill:#39c71d}</style><path d="M206.9 71.6h-8.8V36.8H186v-7.2h33.1v7.2h-12.2v34.8zM234.7 56.2v15.4h-8.8v-42h17.2c4.8 0 8.5 1.2 11.2 3.6 2.7 2.4 4 5.6 4 9.8 0 2.7-.7 5.2-2 7.3-1.3 2.1-3.2 3.7-5.6 4.6l8.8 16.7h-9.9l-7.8-15.4h-7.1zm0-19.7v13.4h7.6c2.2 0 3.9-.6 5.2-1.8 1.2-1.2 1.8-2.8 1.8-4.9 0-2-.6-3.7-1.9-4.9s-3-1.8-5.2-1.8h-7.5zM274.7 29.6v25.7c0 2.7.8 4.9 2.3 6.5 1.5 1.6 3.7 2.4 6.5 2.4s4.9-.8 6.5-2.4c1.5-1.6 2.3-3.8 2.3-6.5V29.6h8.8v26.6c0 4.7-1.6 8.4-4.8 11.3-3.2 2.9-7.4 4.3-12.8 4.3-5.3 0-9.6-1.4-12.8-4.3-3.2-2.9-4.8-6.6-4.8-11.3V29.6h8.8zM308.2 59.2h8.3c.2 1.7 1.1 3 2.7 4s3.5 1.5 5.8 1.5 4.1-.5 5.6-1.5c1.4-1 2.2-2.2 2.2-3.7 0-1.3-.5-2.4-1.6-3.2-1.1-.8-2.8-1.5-5.3-2l-5.4-1.2c-7.6-1.6-11.3-5.4-11.3-11.4 0-3.7 1.5-6.7 4.4-9 2.9-2.3 6.7-3.4 11.4-3.4 4.8 0 8.6 1.1 11.4 3.3 2.8 2.2 4.3 5.2 4.4 8.9h-8.1c-.1-1.7-.9-3.1-2.3-4.1-1.4-1-3.2-1.5-5.4-1.5-2.1 0-3.9.5-5.2 1.4-1.3.9-2 2.1-2 3.6 0 1.2.5 2.3 1.6 3 1.1.8 2.8 1.4 5.2 2l5 1c4.1.9 7.1 2.2 9 4.1 1.9 1.8 2.8 4.3 2.8 7.4 0 4-1.5 7.1-4.5 9.4-3 2.3-7.1 3.5-12.2 3.5-5 0-8.9-1.1-11.9-3.3-2.9-1.9-4.5-4.9-4.6-8.8zM368.8 71.6H360V36.8h-12.1v-7.2H381v7.2h-12.2v34.8z"/><path class="st0" d="M79.3 81.3C71.9 88.1 62 92.4 51.1 92.4 28 92.4 9.4 73.7 9.4 50.6c0-23 18.6-41.7 41.7-41.7 10.9 0 20.7 4.2 28.2 11 1.5-2.1 3.1-4.1 4.9-5.9C75.4 6.1 63.8 1.2 51.1 1.2 23.8 1.2 1.7 23.3 1.7 50.6c0 27.3 22.1 49.4 49.4 49.4 12.8 0 24.3-4.9 33.1-12.8-1.8-1.9-3.4-3.8-4.9-5.9z"/><path class="st0" d="M62.9 60.2c-.1-.1-2.2-2-2.7-2.6-.5-.7-1.5-.8-2-1.1-.5-.3-3.9-1.4-4.7-.8-.8.6-1.9.9-2.3 0-.4-.9-.6-1.1-1.2-1.2-.6-.1-.3-.8-.3-1.5 0-.6-.4-1.3-.8-.8s-1.9 1.6-2.1 1c-.2-.6-1.2-3 .3-3.4 1.5-.4 2.8-.2 3.2.2.4.4.7 1.5 1.2 1.4.5-.1.2-1 .4-1.7s1.3-1.7 1.8-2.6c.5-1 .6-1.6 1.2-1.8.6-.3 1-.6 1.6-1.1.6-.4 1.5-.8 1.9-1.1.3-.2 1.9-1 2.4-.8.5.1.8 0 .4-.8s-1-3-1.8-4.1-.9-1.3-1.3-2.3c-.4-1-.8-1.8-1.1-1.2s-.9 1.6-1.3.7c-.3-.8-.3-.8-.7-1.2-.4-.4-.8-.5-1.4-.7-.6-.2-1.2 0-1.2.6s-.6 1.6-.2 2.4c.4.8.7 1.6.2 1.8-.5.3 0 1.9-.5 1.8-.5 0-.8 0-.8-.5 0-.6.3-1.5-.7-1.5-.9 0-1.5-.5-2.2-1-.7-.5-1.2-.2-1.1-1.3.2-1.1-.1-1.5.7-2.1.8-.6.9-1 1.5-.7.6.3.9.3 1.3 0 .3-.3 1-.2 1-.6 0-.4-.7-.4-.6-1.1.1-.7.4-.3.6-1.4.1-1.1-.8-2.8-1.7-2.6-.9.2-2.4 1.5-2.7.9-.3-.6-.9-.3-2 .1-1.2.4-5.9-.4-6.3-.8 0 0-.8-.6-1.2-.3-.4.3-2.1.2-2.6.1s-1 .6-1.6.4c-.6-.2-2.9-.7-3.4-1-.5-.4-1.3-.4-1.6-.5-.3-.2-1.6-.3-1.8.1-.3.4-1.2 1-1.7 1.4-.5.4-1 .4-.6 1.3.5.9-1.2 1.5-.8 2.5.4 1-.1 3.8 1.6 4.3 1.7.5 3.1.8 4.1.1 1-.8 2.5-.8 2.9.1.5.9.7 2.2 2.3 3 1.5.8 2.9 2.9 2.8 3.9-.1 1 0 4.2 1.6 6.1 1.6 1.9 3.2 5.3 3.3 4.5.1-.8.1-1.6.5-1 .3.6 1.2 2.4 2.7 2.7 1.5.3 2.2.4 2.7.9.6.5 1 .8 1.6 1.1.6.3 2 1.1 2.3 1.6.3.5.2 1.3-.1 2.1-.3.8-.6 1.6-.2 2.4.4.8 1.3 2.9 2.1 3.4.7.5 1.4 1.3 1.3 2.4-.2 1.1-1 5.9-.9 7 .1 1.1-1 4.6-.1 6 .8 1.4 2.3 1.9 2.9 1.7.6-.2.1-.2-.2-.9-.3-.7-.3-1.5.1-2.1.3-.6.3-1 .2-1.7s-.1-1.1.3-1.7c.4-.5 2.2-2 2.8-2.6.5-.6 4-4.9 4.5-5.3.5-.4 1.5-1.2 1.9-2.5.3-1.3 1.6-4 .7-4.6-1.1-.8-4.3-1.3-4.4-1.4zM71.4 22.6c.2-.5.8-1.7 1.1-2.3H59c.2.7.7 3.4.6 4.5-.1 1.3.3.8.6 1.3s.3 1.3 0 1.8c-.2.6-.3 1.9.3 3.4.7 1.5 1.5 3.4 2.2 3.5.7.1.5 1.1 1 .7.5-.4.5-1.2.9-2.3.4-1.2.4-2 1.4-2.6s3.7-2.5 4.3-3.1c.6-.7 1.3-.9 1.1-2.1-.1-1.2-.3-2.2 0-2.8zM151.2 30.5c-.5-.3-3.3-2.6-4.5-2.3-1.2.3-3.3-.7-3.7-.9-.3-.2-3.2-1.1-4.7-1.1-.8 0-3.9-.7-5.3-1.3-1.3-.6-2.5-3.4-5-2.9-.3.1-3.4.5-4.2 1.2-.8.7-1.1 1.5-1.6 1.7-.4.2-1.7.1-1.7.7s.4 2.5-.1 2.1c-.5-.4-1-1.2-1.2-.6-.2.7-.6 1-.9.8-.2-.2-1.4 0-1.6.4-.2.4-1.7 1.3-2.3 1.5-.7.1-.9.4-1.3.6-.3.2-3 1.4-3.5.9-.5-.4-.7-.2-1-.1 0 0-.9-.2-1.5-.9s-.7-.5-1.4-1.2-.8-1.4-1.5-1.1c-.7.3-3.5 3.2-4.6 4.5-1.1 1.3-3 2.7-2.1 3.6 1 .9 1.5.8 1.6 1.3.1.5.2 1.1.4 1.3.2.2 1.1.9 1.6 0 .5-1 .5-1.7 1.1-1.5.5.2.7.5.4 1.3-.3.7-.5 1.9-1.4 1.8-.9 0-1.9-.6-2.3-.5-.3.1-.5.4-.9.7-.3.3-1.4 1.6-2.2 1.8-.7.2-1.6 0-1.1.6s1.2 2 .5 1.9c-.7 0-1.9-.2-1.9.5-.1.7-.4 1.1-.2 1.6s.7 1.4 1.3 1.1c.6-.3 1.8-.6 2.1-1.4.3-.7.7-1.5 1.4-1.5.8 0 2.6 1.1 2.5 1.4-.1.4-.5 1.2 0 .9.5-.3.9-.6 1.1-.7.3-.1.6.4.7.6.1.2.9.6 1 0 .2-.6.3-.2.8 0s1.9.4 2.1.5c.2.2.6.7.1 1.3-.5.6-1.2.9-2.1.4-.9-.5-1.9.4-2.9-.1s-.5-1.2-1.8-1.7c-1.2-.5-3.9.1-4.8.4-.9.2-.9.3-1.2.7-.3.4-2.6 3.1-2.6 4.6 0 1.5.9 5.6 3.6 5.2 2.8-.4 4.4-.2 4.1.6-.3.8-.2 1 .3 2 .5.9 1.7 7.2 1.9 8.2.2 1-.2 2.3 1.1 2.1 1.3-.2 2.6-.5 3.2-1.7.5-1.2.6-2.5 1.3-3.2.7-.7 1.6-.7 1.6-1.7.1-1-.2-3.3.3-3.8s2.6-3 2.9-4c.2-1 .5-1.2-.3-1.2-.9 0-2.4-.1-2.8-.9-.4-.8-1.4-2.4-1.4-2.7 0-.4.6-.3.9.4.3.8 1.4 3.1 2.6 2.6 1.2-.5 3-1.1 3-1.8 0-.8-.5-1.7-1.2-1.6-.6 0-1.3-.4-1.3-.9 0-.4.1-.3.9 0 .7.3 1 .8 2.1.9 1.1.1 2.4 1.2 3 1.7.6.5 1.7 3.8 2 4.2.3.3.6.3.9-.3.3-.7 1.4-2.7 2.1-3.3.7-.6.7-1.3 1.1-.9.4.5 2.1 1.7 2.2 2.4s-.1 2.3.3 1.8c.3-.5.6-1.5.9-1.1.3.5.3 1.1 1.1.6.7-.5 2-.7 1.3-1.9-.7-1.1-.2-1.8.2-1.9.4 0 3.3-.6 3.4-2.2.1-1.6-1-2.4-.5-3.3.5-.8 1.2-1.5 1.4-1.1.2.5-.4 2.1.3 1.8.7-.2 1.5-.2 1.5-.7 0-.5-.2-1.7.2-2 .3-.3 2.6-2.5 2.9-3.3.3-.9.8-1.6.3-2.2-.4-.7-1.2-.5-.6-1.3s1.6-1.6 2.3-1.6c2.4-.2 1.7 2.7 1.7 3.4 0 .7 0 2.3.4 1.5.3-.8.8-1.8 1.5-2.5s1.1-1.1 1.1-1.8c0-.6.1-.8.7-1.1.7-.3 3.6-1.5 3.9-2.2.3-.8-.3-1.5.3-1.4.7 0 1.4.8 1.7.4.3-.4 1.1-1.1 1.1-1.5.5-.3-.7-1.3-1.1-1.6z"/><path class="st0" d="M138.6 44.2c-.2.5-.3.6-.7 1.7-.4 1.1-.2.8-.6 1.5-.3.7-.9.8-1.5 1.2-.6.5-.7 1.3-.7 1.3-.5.7 2.1-1 3-1.5.9-.5.7-1.1.7-2 .1-.9.3-1 .7-1.3.4-.4.1-1.1-.1-1.6-.3-.5-.6.2-.8.7zM130.6 62.7c.3-.2.1-.7.5-.6.4.1.8.3 1.3 0s.9-.2.9-.7c-.1-.5 0-1.1-.1-1.5-.1-.4-.8-.5-1.3-.1-.5.5-1.2 1.1-1.2.9 0-.2.3-.9.2-1.3-.2-.4.1-.8-.7-.5-.8.3-1.2.2-1.5.7-.3.5-.6 1.2-1 .7-.5-.5-1.8-1.5-1.8-1.5-.1-.1-1.7-1.4-1.1-.5.5.9 1.4 2.3 1.8 2.9.4.5.8 1.1 1.3.9.5-.3.5-.4 1.2 0 .3.4 1.2.8 1.5.6zM140.2 61.6c-.7-.3-.4-.6-1.3-.8-.9-.2-1.6 0-1.9-.2-.2-.2-1.4-.6-1.2 0 .2.6 1.2.7 1.5.9.3.2-.4.5.1.8.5.3.9.8 1.5.7.7-.2.9.2 1.4.3.5.1 1.1-.1.9-.3-.2-.2-.4-.6-.3-.9-.1-.3 0-.2-.7-.5zM139.8 65.2c-.3-.8-.9-2.3-1.1-1.6-.2.7-1.2 1.3-1.6 1.2-.4 0-.2-.4-.2-.7 0-.3-.2-.6-1.1-.4-.9.2-1.1 1.1-1.3 1-.2-.1-.9-.2-1.2.2-.4.5-.7 1.3-1.2 1.5-.5.2-2 .4-2 1 0 .7.4 1.6.4 2.2 0 .5-.7 1.8.2 2.1.5.2.9.2 1.6-.1.6-.3 3.3-1.2 3.7-.9.3.3.9 1 1.2 1.1.5.3.6 1 1.3 1.1.7.2 1.2.2 1.4.2.3 0 1.2-.3 1.5-.9.2-.6.7-1.9.9-2.6.2-.7.4-1.4-.2-2-.9-.4-2.1-1.6-2.3-2.4z"/><path class="st0" d="M122 .8C94.7.8 72.6 22.9 72.6 50.2c0 27.3 22.1 49.4 49.4 49.4s49.4-22.1 49.4-49.4C171.4 22.9 149.3.8 122 .8zm0 91.1c-23.1 0-41.7-18.7-41.7-41.7C80.3 27.1 99 8.5 122 8.5s41.7 18.7 41.7 41.7c0 23.1-18.6 41.7-41.7 41.7z"/><path d="M406.8 72.4c-5.7 0-10.2-2-13.6-5.9-3.4-3.9-5.1-9.2-5.1-15.8 0-6.6 1.7-11.8 5.1-15.7 3.4-3.9 7.9-5.8 13.6-5.8 2.9 0 5.6.6 8.1 1.8 2.4 1.2 4.5 2.8 6 5 1.6 2.1 2.5 4.5 2.9 7.2h-4c-.6-3-2.1-5.5-4.5-7.4-2.4-1.9-5.3-2.9-8.5-2.9-4.5 0-8 1.6-10.6 4.8-2.6 3.2-4 7.6-4 13 0 5.5 1.3 9.9 4 13.2s6.2 4.9 10.7 4.9c3.3 0 6.2-.8 8.5-2.5s3.8-4 4.4-6.9h4c-.7 4.1-2.6 7.3-5.6 9.6-3.1 2.2-6.9 3.4-11.4 3.4zM459.4 71.7l-4.6-12.8h-17.6l-4.6 12.8h-4.2L444 29.8h3.9l15.6 41.9h-4.1zm-13.5-37l-7.5 20.7h15.2l-7.5-20.7h-.2zM468.2 29.8h14.3c4 0 7.2 1.2 9.7 3.6 2.5 2.4 3.7 5.5 3.7 9.4 0 3.9-1.2 7-3.7 9.4-2.5 2.4-5.7 3.6-9.7 3.6h-10.3v15.8h-3.9V29.8zm4 3.5v19h9.4c3.2 0 5.7-.8 7.6-2.5 1.8-1.7 2.7-4 2.7-7s-.9-5.3-2.7-7c-1.8-1.7-4.3-2.5-7.6-2.5h-9.4zM508.6 71.7h-3.9V29.8h3.9v41.9zM531.4 71.7h-4V33.4h-13.8v-3.6h31.6v3.6h-13.8v38.3zM576.3 71.7l-4.6-12.8h-17.6l-4.6 12.8h-4.2L561 29.8h3.9l15.6 41.9h-4.2zm-13.5-37l-7.5 20.7h15.2L563 34.7h-.2zM609.6 68.1v3.6h-24.9V29.8h3.9v38.3h21z"/></svg>