<svg id="Слой_1" xmlns="http://www.w3.org/2000/svg" viewBox="0 0 607.4 98.3"><style>.st0{fill:#fff}</style><path class="st0" d="M202.6 70.4H194v-34h-11.9v-7.1h32.4v7.1h-11.9v34zM229.8 55.4v15h-8.6v-41H238c4.7 0 8.3 1.2 10.9 3.5 2.6 2.3 3.9 5.5 3.9 9.6 0 2.7-.7 5.1-2 7.2-1.3 2.1-3.1 3.6-5.5 4.5l8.7 16.3h-9.7l-7.7-15h-6.8zm0-19.3v13.1h7.4c2.2 0 3.8-.6 5.1-1.7s1.8-2.8 1.8-4.8-.6-3.6-1.9-4.8c-1.3-1.2-2.9-1.8-5.1-1.8h-7.3zM269 29.4v25.2c0 2.7.8 4.8 2.3 6.4 1.5 1.6 3.6 2.3 6.4 2.3 2.7 0 4.8-.8 6.3-2.3 1.5-1.6 2.3-3.7 2.3-6.4V29.4h8.6v26c0 4.6-1.6 8.2-4.7 11-3.1 2.8-7.3 4.2-12.5 4.2s-9.4-1.4-12.5-4.2c-3.1-2.8-4.7-6.5-4.7-11v-26h8.5zM301.8 58.4h8.1c.2 1.6 1.1 2.9 2.6 3.9 1.6 1 3.5 1.5 5.7 1.5s4.1-.5 5.5-1.4c1.4-.9 2.1-2.2 2.1-3.6 0-1.3-.5-2.3-1.6-3.1-1-.8-2.8-1.5-5.2-2l-5.3-1.1c-7.4-1.6-11.1-5.3-11.1-11.2 0-3.7 1.4-6.6 4.3-8.9 2.9-2.3 6.6-3.4 11.1-3.4 4.7 0 8.4 1.1 11.2 3.3 2.8 2.2 4.2 5.1 4.3 8.7h-7.9c-.1-1.7-.9-3-2.3-4s-3.1-1.5-5.2-1.5-3.8.5-5.1 1.4c-1.3.9-1.9 2.1-1.9 3.6 0 1.2.5 2.2 1.6 3 1 .8 2.7 1.4 5.1 1.9l4.9 1c4 .8 7 2.2 8.8 4 1.8 1.8 2.8 4.2 2.8 7.3 0 3.9-1.5 6.9-4.4 9.2-2.9 2.3-6.9 3.4-12 3.4-4.9 0-8.7-1.1-11.6-3.2-2.9-2.1-4.4-5.1-4.5-8.8zM361.2 70.4h-8.6v-34h-11.9v-7.1h32.4v7.1h-11.9v34zM77.7 80c-7.3 6.7-16.9 10.8-27.6 10.8-22.6 0-40.9-18.3-40.9-40.9C9.2 27.3 27.5 9 50.1 9c10.7 0 20.3 4.1 27.6 10.8 1.5-2 3.1-4 4.8-5.8-8.6-7.6-20-12.4-32.4-12.4-26.7 0-48.4 21.6-48.4 48.3 0 26.7 21.7 48.4 48.4 48.4 12.5 0 23.8-4.8 32.4-12.6-1.8-1.8-3.4-3.7-4.8-5.7z"/><path class="st0" d="M61.6 59.4c-.1-.1-2.2-1.9-2.7-2.6-.5-.7-1.5-.8-2-1.1-.5-.3-3.8-1.4-4.6-.8-.8.6-1.9.9-2.3 0-.4-.9-.6-1.1-1.2-1.2s-.3-.8-.3-1.4c0-.6-.4-1.3-.8-.8-.4.4-1.8 1.6-2 1-.2-.6-1.2-2.9.3-3.4 1.5-.4 2.8-.2 3.1.2.4.4.7 1.5 1.1 1.4.5-.1.2-1 .4-1.7s1.3-1.6 1.7-2.6c.5-1 .6-1.5 1.2-1.8.6-.3 1-.6 1.5-1 .6-.4 1.5-.8 1.8-1.1.3-.2 1.8-1 2.3-.8.5.1.8 0 .4-.8-.4-.7-1-3-1.7-4-.8-1-.9-1.3-1.3-2.2-.4-1-.8-1.8-1.1-1.1-.3.7-.9 1.5-1.2.7-.3-.8-.3-.8-.7-1.2-.4-.4-.8-.5-1.3-.7-.6-.2-1.2 0-1.1.6 0 .6-.5 1.6-.2 2.3.4.7.7 1.5.2 1.8-.5.3 0 1.8-.5 1.8s-.7 0-.7-.5c0-.6.2-1.4-.7-1.4-.9 0-1.5-.5-2.1-1-.7-.5-1.2-.2-1-1.3.2-1.1-.1-1.5.7-2.1.8-.6.9-1 1.5-.7.5.3.9.3 1.3 0 .3-.3 1-.2 1-.6 0-.4-.7-.4-.6-1 .1-.7.4-.3.5-1.4.1-1.1-.8-2.8-1.7-2.5-.9.2-2.3 1.5-2.6.9-.3-.6-.9-.3-2 .1s-5.8-.4-6.1-.8c0 0-.8-.6-1.2-.3-.4.3-2.1.2-2.6.1s-1 .6-1.6.3c-.6-.2-2.8-.7-3.3-1-.5-.4-1.3-.4-1.6-.5-.3-.2-1.5-.3-1.8.1-.3.3-1.2 1-1.6 1.4-.5.4-1 .4-.5 1.3s-1.2 1.5-.8 2.5c.4 1-.1 3.7 1.6 4.2 1.7.5 3 .8 4 .1 1-.8 2.4-.8 2.9.1s.7 2.2 2.2 2.9c1.5.7 2.8 2.9 2.7 3.8-.1 1 0 4.2 1.6 6 1.5 1.8 3.1 5.2 3.3 4.4.1-.8.1-1.6.5-1 .3.6 1.2 2.3 2.6 2.6 1.4.3 2.1.4 2.7.9.5.5 1 .8 1.6 1.1.6.3 2 1.1 2.3 1.6.3.5.2 1.2-.1 2-.3.8-.6 1.6-.2 2.3.4.7 1.3 2.9 2 3.4s1.4 1.3 1.2 2.4-1 5.8-.9 6.8c.1 1-1 4.5-.1 5.9.8 1.4 2.3 1.8 2.9 1.7.6-.2.1-.2-.2-.9-.3-.7-.3-1.5.1-2.1.3-.6.3-1 .2-1.7s-.1-1.1.3-1.6 2.2-1.9 2.7-2.5c.5-.6 4-4.8 4.4-5.2s1.5-1.2 1.8-2.5c.3-1.3 1.5-3.9.7-4.5-1.1-.8-4.2-1.3-4.3-1.3zM69.9 22.5c.2-.5.8-1.6 1.1-2.3H57.9c.2.7.7 3.3.6 4.4-.1 1.2.3.8.6 1.3s.3 1.2 0 1.8c-.2.6-.3 1.8.3 3.3.7 1.5 1.5 3.4 2.1 3.5.7.1.5 1 1 .7.5-.4.5-1.1.9-2.3.4-1.1.4-2 1.3-2.5 1-.6 3.6-2.4 4.2-3.1.6-.7 1.3-.9 1-2.1-.1-1.1-.3-2.1 0-2.7zM148 30.2c-.5-.3-3.2-2.5-4.4-2.2-1.2.3-3.3-.6-3.6-.8-.3-.2-3.2-1.1-4.6-1.1-.7 0-3.9-.7-5.1-1.3-1.3-.6-2.4-3.3-4.9-2.9-.3.1-3.3.5-4.1 1.2-.8.7-1.1 1.5-1.5 1.6-.4.2-1.6.1-1.6.7s.4 2.4-.1 2.1c-.5-.4-1-1.2-1.2-.6-.2.6-.6 1-.8.8-.2-.2-1.4 0-1.5.4-.2.4-1.6 1.3-2.3 1.4-.6.1-.9.4-1.3.6-.3.2-2.9 1.4-3.4.9-.5-.4-.6-.2-1-.1 0 0-.9-.2-1.5-.9s-.7-.5-1.3-1.2c-.6-.7-.8-1.4-1.4-1.1-.6.3-3.4 3.1-4.5 4.4-1.1 1.3-3 2.6-2 3.5 1 .9 1.4.8 1.6 1.3.1.5.2 1.1.4 1.3.2.2 1.1.9 1.5 0 .5-1 .5-1.6 1.1-1.5.5.2.6.5.4 1.2-.3.7-.5 1.8-1.4 1.8-.9 0-1.9-.6-2.2-.5-.3.1-.5.4-.8.7-.3.3-1.4 1.6-2.1 1.8-.7.2-1.6 0-1.1.6s1.2 1.9.5 1.9-1.8-.2-1.9.5-.4 1.1-.2 1.6.6 1.4 1.3 1.1c.6-.3 1.8-.6 2.1-1.4.3-.7.7-1.5 1.4-1.5.8 0 2.6 1 2.5 1.4-.1.4-.5 1.2 0 .9.5-.3.8-.6 1.1-.7.3-.1.6.4.7.6.1.2.9.6 1 0 .2-.6.3-.2.8 0s1.8.4 2 .5c.2.2.6.6.1 1.3-.5.6-1.1.9-2 .4-.9-.5-1.8.4-2.8-.1-1-.5-.5-1.2-1.7-1.6-1.2-.5-3.8.1-4.7.4-.8.2-.9.3-1.2.7-.3.4-2.6 3-2.6 4.5s.8 5.5 3.5 5.1c2.7-.4 4.3-.2 4 .6-.3.8-.2 1 .3 1.9.5.9 1.6 7 1.8 8 .2 1-.1 2.3 1.1 2.1 1.3-.2 2.6-.5 3.1-1.7s.6-2.5 1.3-3.2c.7-.7 1.5-.7 1.6-1.6.1-1-.2-3.2.3-3.8.5-.5 2.6-2.9 2.8-3.9.2-1 .5-1.2-.3-1.2-.9 0-2.4-.1-2.8-.9-.4-.8-1.4-2.3-1.4-2.7 0-.4.6-.3.9.4.3.8 1.4 3 2.6 2.6 1.2-.5 2.9-1 3-1.8 0-.8-.5-1.6-1.1-1.6-.6 0-1.3-.4-1.3-.8s.1-.3.8 0c.7.3 1 .8 2.1.8 1.1.1 2.4 1.2 3 1.6.6.5 1.7 3.8 1.9 4.1.3.3.6.3.8-.3.3-.6 1.4-2.7 2.1-3.2.6-.6.7-1.3 1.1-.8.4.5 2 1.7 2.1 2.4.1.7-.1 2.3.3 1.8.3-.5.6-1.5.9-1 .3.4.3 1.1 1 .6.7-.5 2-.7 1.3-1.8s-.2-1.8.2-1.8 3.3-.6 3.4-2.1c.1-1.6-1-2.4-.5-3.2.5-.8 1.2-1.5 1.4-1 .2.5-.4 2 .3 1.8.7-.2 1.5-.2 1.5-.7 0-.5-.2-1.7.2-2 .3-.3 2.6-2.4 2.8-3.3.3-.8.8-1.6.3-2.2-.4-.6-1.1-.4-.6-1.2.6-.8 1.5-1.5 2.3-1.6 2.3-.2 1.7 2.7 1.7 3.3 0 .6 0 2.2.4 1.4.3-.8.7-1.8 1.4-2.5s1.1-1.1 1.1-1.7c0-.6.1-.8.7-1.1.6-.3 3.5-1.4 3.8-2.2.3-.8-.3-1.4.3-1.4.7 0 1.3.8 1.7.4.3-.4 1.1-1.1 1.1-1.5-.4-.4-1.5-1.3-2-1.7z"/><path class="st0" d="M135.7 43.7c-.2.5-.3.6-.7 1.7-.3 1.1-.2.8-.6 1.5-.3.7-.9.8-1.5 1.2-.6.4-.7 1.3-.7 1.3-.5.7 2-1 2.9-1.5.9-.5.7-1.1.7-2 .1-.8.3-1 .7-1.3.4-.4.1-1.1-.1-1.6-.1-.5-.4.1-.7.7zM127.9 61.8c.3-.2.1-.6.5-.6.4.1.8.3 1.3 0s.9-.2.8-.6c-.1-.5 0-1.1-.1-1.5-.1-.4-.8-.5-1.3-.1s-1.2 1.1-1.2.9c0-.2.3-.9.1-1.3-.1-.4.1-.8-.7-.4-.8.3-1.2.2-1.4.7-.3.4-.6 1.2-1 .7-.5-.5-1.8-1.5-1.8-1.5-.1-.1-1.6-1.4-1.1-.5.5.8 1.3 2.3 1.7 2.8.4.5.8 1.1 1.3.8.5-.3.5-.4 1.1 0 .7.4 1.5.8 1.8.6zM137.3 60.7c-.7-.3-.4-.6-1.3-.8-.9-.2-1.6 0-1.8-.2-.2-.2-1.4-.6-1.2 0 .2.6 1.2.7 1.4.9.3.2-.4.5.1.8.5.3.8.8 1.5.6.6-.2.9.2 1.4.3.5.1 1.1-.1.8-.3-.2-.2-.4-.6-.3-.8 0-.3.1-.2-.6-.5zM136.9 64.2c-.3-.8-.9-2.3-1.1-1.6-.2.7-1.2 1.2-1.6 1.2-.3 0-.2-.4-.2-.7 0-.3-.2-.6-1.1-.4-.9.2-1.1 1.1-1.3 1-.2-.1-.8-.2-1.2.2-.4.4-.7 1.3-1.2 1.4-.5.2-2 .4-2 1s.4 1.6.3 2.1-.7 1.7.2 2.1c.5.2.9.2 1.5-.1.6-.3 3.2-1.2 3.6-.9l1.1 1.1c.5.3.6 1 1.3 1.1.6.2 1.1.2 1.4.2.3 0 1.2-.3 1.4-.9.2-.6.6-1.9.8-2.5.2-.6.4-1.4-.2-1.9-.3-.4-1.5-1.6-1.7-2.4z"/><path class="st0" d="M119.5 1.2c-26.7 0-48.4 21.7-48.4 48.4S92.8 98 119.5 98s48.4-21.7 48.4-48.4c-.1-26.8-21.7-48.4-48.4-48.4zm0 89.2c-22.6 0-40.9-18.3-40.9-40.9 0-22.6 18.3-40.9 40.9-40.9s40.9 18.3 40.9 40.9c0 22.6-18.3 40.9-40.9 40.9zM398.3 71.2c-5.6 0-10-1.9-13.3-5.8-3.3-3.8-4.9-9-4.9-15.5 0-6.4 1.7-11.5 5-15.3 3.3-3.8 7.7-5.7 13.3-5.7 2.9 0 5.5.6 7.9 1.7 2.4 1.2 4.4 2.8 5.9 4.9 1.5 2.1 2.5 4.4 2.8 7.1h-4c-.6-3-2-5.4-4.4-7.2-2.4-1.9-5.1-2.8-8.3-2.8-4.4 0-7.8 1.6-10.4 4.7-2.6 3.2-3.9 7.4-3.9 12.7 0 5.4 1.3 9.7 3.9 12.9 2.6 3.2 6.1 4.8 10.4 4.8 3.3 0 6.1-.8 8.4-2.5 2.3-1.6 3.7-3.9 4.3-6.7h3.9c-.7 4-2.6 7.1-5.5 9.4-3 2.2-6.7 3.3-11.1 3.3zM449.8 70.6L445.3 58h-17.2l-4.5 12.6h-4.1l15.3-41h3.9l15.3 41h-4.2zm-13.2-36.2l-7.4 20.3h14.9l-7.4-20.3h-.1zM458.5 29.6h14c3.9 0 7.1 1.2 9.5 3.5 2.4 2.3 3.6 5.4 3.6 9.2 0 3.8-1.2 6.9-3.7 9.3-2.4 2.4-5.6 3.5-9.5 3.5h-10.1v15.5h-3.9v-41zm3.8 3.4v18.6h9.2c3.1 0 5.6-.8 7.4-2.5 1.8-1.6 2.7-3.9 2.7-6.8s-.9-5.2-2.7-6.8c-1.8-1.6-4.3-2.5-7.4-2.5h-9.2zM497.9 70.6H494v-41h3.9v41zM520.3 70.6h-3.9V33.1h-13.5v-3.5h31v3.5h-13.6v37.5zM564.3 70.6L559.7 58h-17.2L538 70.6h-4.1l15.3-41h3.9l15.3 41h-4.1zM551 34.4l-7.4 20.3h14.9l-7.4-20.3h-.1zM596.9 67v3.5h-24.4v-41h3.9V67h20.5z"/></svg>