<?xml version="1.0" encoding="utf-8"?>
<!-- Generator: Adobe Illustrator 19.2.0, SVG Export Plug-In . SVG Version: 6.00 Build 0)  -->
<svg version="1.1" id="Слой_1" xmlns="http://www.w3.org/2000/svg" xmlns:xlink="http://www.w3.org/1999/xlink" x="0px" y="0px"
	 viewBox="0 0 496 496" style="enable-background:new 0 0 496 496;" xml:space="preserve">
<style type="text/css">
	.st0{fill:url(#SVGID_1_);}
</style>
<linearGradient id="SVGID_1_" gradientUnits="userSpaceOnUse" x1="248" y1="-0.17" x2="248" y2="495.83" gradientTransform="matrix(1 0 0 -1 0 495.8299)">
	<stop  offset="0" style="stop-color:#4BE54D"/>
	<stop  offset="1" style="stop-color:#2DBA39"/>
</linearGradient>
<path class="st0" d="M248,304c-22.1,0-40,17.9-40,40s17.9,40,40,40s40-17.9,40-40S270.1,304,248,304z M248,368
	c-13.2,0-24-10.8-24-24s10.8-24,24-24s24,10.8,24,24S261.2,368,248,368z M240,32h64v16h-64V32z M240,64h64v16h-64V64z M192,96h112
	v16H192V96z M192,128h112v16H192V128z M192,160h112v16H192V160z M384,256h48v80h-96v-13.8l-19.6-6.6l9.3-18.5l-30.8-30.8l-18.5,9.3
	l-6.5-19.6H256v-48h80v-96h96v44.7l-18.3-18.3l-11.3,11.3l37.7,37.7l37.7-37.7l-11.3-11.3L448,156.7V96H336V0H212.7L160,52.7V96H48
	v60.7l-18.3-18.3l-11.3,11.3L56,187.3l37.7-37.7l-11.3-11.3L64,156.7V112h96v96h80v48h-13.8l-6.5,19.6l-18.5-9.3l-30.8,30.8
	l9.3,18.5l-19.6,6.6V336H64v-80h48v-64H0v64h48v129.1c-13.8,3.6-24,16-24,30.9c0,17.6,14.4,32,32,32s32-14.4,32-32
	c0-14.9-10.2-27.3-24-30.9V352h48v97.5c-9.3,3.3-16,12.1-16,22.5c0,13.2,10.8,24,24,24s24-10.8,24-24c0-10.4-6.7-19.2-16-22.5V352
	h32v13.8l19.6,6.6l-9.3,18.5l30.8,30.8l18.5-9.3l6.5,19.6h43.5l6.5-19.6l18.5,9.3l30.8-30.8l-9.3-18.5l19.6-6.6V352h32v97.5
	c-9.3,3.3-16,12.1-16,22.5c0,13.2,10.8,24,24,24s24-10.8,24-24c0-10.4-6.7-19.2-16-22.5V352h48v33.1c-13.8,3.6-24,16-24,30.9
	c0,17.6,14.4,32,32,32s32-14.4,32-32c0-14.9-10.2-27.3-24-30.9V256h48v-64H384V256z M208,27.3V48h-20.7L208,27.3z M176,64h48V16h96
	v176H176V64z M16,208h80v32H16V208z M72,416c0,8.8-7.2,16-16,16s-16-7.2-16-16s7.2-16,16-16S72,407.2,72,416z M120,480
	c-4.4,0-8-3.6-8-8s3.6-8,8-8s8,3.6,8,8S124.4,480,120,480z M320,354.2l-18.4,6.1l-1.4,3.5c-0.4,1-0.8,2-1.2,3l-1.6,3.5l8.6,17.3
	l-14.5,14.5l-17.3-8.6l-3.5,1.6c-1,0.4-2,0.8-3,1.2l-3.6,1.3l-6.1,18.4h-20.5l-6.1-18.4l-3.6-1.3c-1-0.4-2-0.8-3-1.2l-3.5-1.6
	l-17.3,8.6l-14.5-14.5l8.6-17.3l-1.6-3.5c-0.4-1-0.8-2-1.2-3l-1.4-3.5l-18.3-6.1v-20.5l18.4-6.1l1.4-3.5c0.4-1,0.8-2,1.2-3l1.6-3.5
	l-8.6-17.3l14.5-14.5l17.3,8.6l3.5-1.6c1-0.4,2-0.8,3-1.2l3.6-1.3l6.1-18.4h20.5l6.1,18.4l3.6,1.3c1,0.4,2,0.8,3,1.2l3.5,1.6
	l17.3-8.6l14.5,14.5l-8.6,17.3l1.6,3.5c0.4,1,0.8,2,1.2,3l1.4,3.5l18.3,6.1V354.2z M376,480c-4.4,0-8-3.6-8-8s3.6-8,8-8s8,3.6,8,8
	S380.4,480,376,480z M456,416c0,8.8-7.2,16-16,16s-16-7.2-16-16s7.2-16,16-16S456,407.2,456,416z M400,208h80v32h-80V208z"/>
</svg>
