<?xml version="1.0" encoding="utf-8"?>
<!-- Generator: Adobe Illustrator 19.2.0, SVG Export Plug-In . SVG Version: 6.00 Build 0)  -->
<svg version="1.1" id="Слой_1" xmlns="http://www.w3.org/2000/svg" xmlns:xlink="http://www.w3.org/1999/xlink" x="0px" y="0px"
	 viewBox="0 0 912 715.5" style="enable-background:new 0 0 912 715.5;" xml:space="preserve">
<style type="text/css">
	.st0{opacity:0.64;fill:#E6EFE8;}
	.st1{fill:#81A358;}
	.st2{fill:#3FB74C;}
	.st3{fill:#60892C;}
	.st4{fill:#4ACC53;}
	.st5{fill:#7BA840;}
	.st6{fill:#699331;}
	.st7{fill:#9EB24E;}
	.st8{fill:#56CF5E;}
	.st9{filter:url(#Adobe_OpacityMaskFilter);}
	.st10{filter:url(#Adobe_OpacityMaskFilter_1_);}
	.st11{mask:url(#SVGID_1_);fill:url(#SVGID_2_);}
	.st12{fill:#33B442;}
	.st13{fill:#454342;}
	.st14{fill:#EEA886;}
	.st15{fill:#918783;}
	.st16{fill:#282524;}
	.st17{fill:#DB9C7C;}
	.st18{fill:#28892F;}
	.st19{fill:#A77860;}
	.st20{fill:#99EAB8;}
	.st21{fill:#BFB2AC;}
	.st22{fill:#F7F6F5;}
	.st23{fill:#1F1F1F;}
	.st24{fill:#6E6760;}
	.st25{fill:#918880;}
	.st26{fill:#070707;}
</style>
<path class="st0" d="M343.3,620.4C297,628.6,251.6,644,204.2,643c-31.4-0.7-63.4-8.7-88.5-27.6c-12-9-22.4-20.7-27.5-34.8
	c-5.1-14.1-4.1-30.8,4.7-43c5.9-8.1,14.6-13.5,23.5-18c67.9-34.6,118.2-3.6,186.9-5.9c34.6-1.2,64.3-20.4,95.8-32.4
	c72.1-27.5,157.7-16.7,231.7-3.8c54,9.4,118.5,11.9,164.3,45.1c28.6,20.7,47.5,59.4,34.2,92.1c-6.5,16-19.9,28.7-35.5,36.1
	c-22.4,10.7-48.3,10.9-72.9,8c-61.7-7.3-119.4-32.9-180.7-42C476.5,607.3,406.5,609.1,343.3,620.4z"/>
<g>
	<g>
		<g>
			
				<rect x="656.4" y="419.2" transform="matrix(0.9977 -6.740849e-02 6.740849e-02 0.9977 -29.7826 45.3396)" class="st1" width="1.1" height="89.5"/>
		</g>
		<g>
			
				<rect x="636.9" y="264.4" transform="matrix(0.9982 -6.035525e-02 6.035525e-02 0.9982 -22.1197 39.176)" class="st1" width="1.1" height="242.6"/>
		</g>
		<g>
			<rect x="650.9" y="229.5" class="st1" width="1.1" height="282.5"/>
		</g>
		<g>
			
				<rect x="578.4" y="424.9" transform="matrix(2.239721e-02 -0.9997 0.9997 2.239721e-02 222.8272 1078.6753)" class="st1" width="169.2" height="1.1"/>
		</g>
		<g>
			<path class="st2" d="M650.8,287.3c0,0-29.4-25-20.7-50c8.7-25,51.7-11.5,38.1,33.6C668.2,270.9,663.8,282.5,650.8,287.3z"/>
		</g>
		<g>
			<polygon class="st3" points="659.7,274.7 658.7,274.6 661,247.8 662.4,243.8 			"/>
		</g>
		<g>
			<polygon class="st3" points="645.3,275.3 644.2,275.3 645.1,232.9 646,239.7 			"/>
		</g>
		<g>
			<polygon class="st3" points="639.9,268.4 634.7,239.3 636.6,243.8 640.9,268.2 			"/>
		</g>
		<g>
			<path class="st4" d="M632.2,328.4c0,0-25.5-32.9-12.2-56.2c13.2-23.3,98.5-4,60,80c-38.5,84-68.3,27.5-68.3,27.5L632.2,328.4z"/>
		</g>
		<g>
			<polygon class="st5" points="654.5,388.4 653.5,388.1 676.6,301.1 679.4,294.8 			"/>
		</g>
		<g>
			<polygon class="st5" points="647.2,380.1 646.1,380.1 650.6,282 651.9,276.5 			"/>
		</g>
		<g>
			<polygon class="st5" points="636.9,348 632.5,277.8 634,283.7 638,347.9 			"/>
		</g>
		<g>
			<path class="st2" d="M651.4,358c0,0-3.8-56.5-36.3-35.7c-32.4,20.8-40.4,102.4,36.3,127.2V358z"/>
		</g>
		<g>
			<polygon class="st6" points="656.5,412.3 623.6,333 622,326.3 657.4,411.9 			"/>
		</g>
		<g>
			<path class="st6" d="M661.8,417.9c-2.9-0.1-7.8-3.8-14.8-11.2c-5.5-5.8-12.2-13.8-20.1-23.9c-13.3-17.1-21.5-29-21.6-29.2l-3-6
				c0.1,0.2,12.1,17.5,25.4,34.6c22.1,28.5,30.8,34.6,34.1,34.7L661.8,417.9z"/>
		</g>
		<g>
			<path class="st6" d="M666.7,428.6c-6.8,0-20.6-7.5-41.1-22.3c-15.2-11-28.7-22.1-28.8-22.2l4.2,2.1c5.1,4.2,50,41.4,65.7,41.4
				V428.6z"/>
		</g>
		<g>
			<path class="st6" d="M620.9,425c0.8,0.4,5.7,1.3,18.4,3.4c7.1,1.2,24.2,4.1,31.6,4.2l0,1.1c-7.6-0.2-25.1-3.1-32.3-4.3
				c-5.8-1-11.8-2.1-16.2-3c-7.2-1.4-7.4-1.7-7.6-1.9L620.9,425z"/>
		</g>
		<g>
			<path class="st4" d="M661.8,482c0,0-26.8-28.2-20.5-71.6c6.3-43.4,55.1-43.3,54.7-1.2C695.7,451.4,686.8,463.1,661.8,482z"/>
		</g>
		<g>
			<polygon class="st7" points="663.9,478.6 663,478.3 676.3,389.7 678.2,383.7 664.9,472.8 690.6,399.6 690.8,402.3 			"/>
		</g>
		<g>
			<polygon class="st7" points="661.5,479.3 647.2,410.6 647,405.4 661.3,472.9 657.5,387.4 659,396.1 662.5,479 			"/>
		</g>
		<polygon class="st8" points="687.3,506.9 670.3,560.9 632.4,560.9 615.5,506.9 		"/>
		<defs>
			<filter id="Adobe_OpacityMaskFilter" filterUnits="userSpaceOnUse" x="615.5" y="506.9" width="71.8" height="54">
				<feFlood  style="flood-color:white;flood-opacity:1" result="back"/>
				<feBlend  in="SourceGraphic" in2="back" mode="normal"/>
			</filter>
		</defs>
		<mask maskUnits="userSpaceOnUse" x="615.5" y="506.9" width="71.8" height="54" id="SVGID_1_">
			<g class="st9">
				<defs>
					<filter id="Adobe_OpacityMaskFilter_1_" filterUnits="userSpaceOnUse" x="615.5" y="506.9" width="71.8" height="54">
						<feFlood  style="flood-color:white;flood-opacity:1" result="back"/>
						<feBlend  in="SourceGraphic" in2="back" mode="normal"/>
					</filter>
				</defs>
				<mask maskUnits="userSpaceOnUse" x="615.5" y="506.9" width="71.8" height="54" id="SVGID_1_">
					<g class="st10">
					</g>
				</mask>
				<linearGradient id="SVGID_2_" gradientUnits="userSpaceOnUse" x1="615.4737" y1="533.8929" x2="687.2974" y2="533.8929">
					<stop  offset="0" style="stop-color:#FFFFFF"/>
					<stop  offset="0.9948" style="stop-color:#000000"/>
				</linearGradient>
				<path class="st11" d="M687.3,506.9c0,0-37.3,5.9-37.3,54h-17.5l-17-54H687.3z"/>
			</g>
		</mask>
		<path class="st12" d="M687.3,506.9c0,0-37.3,5.9-37.3,54h-17.5l-17-54H687.3z"/>
		<path class="st13" d="M626.1,565.1L626.1,565.1C626.1,565.1,626.1,565.1,626.1,565.1L626.1,565.1z"/>
	</g>
	<path class="st14" d="M403.8,295.6c0,0,5.4,1.1,8,1.2c2.6,0.1,14.5-5.3,18.3-4.8c3.8,0.5,28.7,11.1,29.8,11.9
		c1.1,0.8-0.5,2.5-0.5,2.5l-57.1,0.7L403.8,295.6z"/>
	<rect x="269.3" y="411.3" class="st15" width="9.5" height="120.4"/>
	<path class="st16" d="M393.8,517.5c0,0,0.1,5.3,1.8,11.5c1.3,4.5,3.8,22.1,7.1,24.6c3.2,2.5,13.7,9,12.2,15.7
		c-1.5,6.7-2.8,11.4-14.2,7.4c-11.3-4-18.9-6.2-21.1-16.2c-2.2-9.9-8.4-19-8.4-19l-8.2,20.3l-4.3-1.7c0,0,6.5-22,6-23.9
		c-0.6-2,3-19.4,16.7-23.7C395.1,508.2,393.8,517.5,393.8,517.5z"/>
	<path class="st16" d="M469.4,523.9c0,0,2.1,4.9,6,10c2.9,3.7,11.8,19.1,15.7,20.2c3.9,1.1,16.1,3.2,17.2,10
		c1.1,6.8,1.6,11.6-10.4,12.2c-12,0.5-19.8,1.3-25.6-7.2c-5.7-8.4-14.8-14.5-14.8-14.5v21.9h-4.6c0,0-2.1-22.8-3.4-24.4
		c-1.3-1.6-4.5-19.1,6.6-28.2C467.1,514.8,469.4,523.9,469.4,523.9z"/>
	<path class="st14" d="M347.6,226c0,0,2.7-9.4,2.9-10.7c0.3-1.2,2.8-3.7,5.9-6.2c3.1-2.6,8.5-4.6,9.2-4.4c0.7,0.2,1.4,0.1,2.5,1.5
		c1.1,1.4,1.2,3.2,1.2,3.2s2.2,1.1,2.2,3.3c0,0,2,1.1,1.6,3.7c0,0,1.9,1.2,1.5,3c0,0-2.5,2.5-3.2,3.6c-0.7,1.2-6.3,5.9-12.3,9.6
		C359.1,232.7,351.4,238.5,347.6,226z"/>
	<path class="st12" d="M254.3,242.3c3.8-6.1,8.8-8.8,24.7,2.2c15.9,11,12.2,8.9,16,12.4c3.8,3.5,20.5,12.2,20.5,12.2
		s9.8-9.7,14.5-16.6c5.3-7.8,16.3-28.6,16.3-28.6l15.5,11.5c0,0-30,54.5-36.3,58.5c-6.3,4-25.2-2.7-35-6.9
		c-9.8-4.1-20.3-9.5-24.7-10.6C261.2,275.3,244.5,258.2,254.3,242.3z"/>
	<path class="st17" d="M364.8,205.4c0,0-7.8,6.7-6.9,8.1c0.9,1.4,2.1,1.3,2.1,1.3l-2,4.2c0,0,0.3,3.5,4,2.2c0,0-0.1,3.3,3.4,1.6
		c0,0,0.9,2.2,2.7,1.7c1.7-0.5,6.6-5,6.6-5s0.6-1.4-1.5-3c0,0,0.5-2.4-1.6-3.7c0,0,0.1-2-2.2-3.3c0,0-0.1-4.5-3.8-4.7
		C365.6,204.7,365.1,205.1,364.8,205.4z"/>
	<path class="st18" d="M328.6,275.3c0,0,3.1-11.4-0.6-20.2c0,0,1.4,9.1-2.6,15.6C322.5,275.5,328.6,275.3,328.6,275.3z"/>
	<path class="st14" d="M448,401.9c0,0-14.3,32.1-24.4,55c-1.7,3.9-3.3,7.4-4.7,10.6c-1.6,3.7-3,6.7-3.9,8.8
		c-6.5,14.6-22.4,46.4-22.4,46.4s-12,0.5-12.7-9.7c0,0,11.5-22.1,11.5-37.6c0-15.5,2.1-61.2,16.9-71
		C426.3,392.2,438.1,390,448,401.9z"/>
	<path class="st14" d="M316.2,340.9c0,0,3,3,5.6,3.7c2.5,0.7,45.1,3.9,64.8,10.4c19.7,6.5,45.8,10.6,50.7,16.2
		c4.9,5.6,13,36.1,12.7,41.9c-0.2,5.8,17.3,103.2,19.5,110.9c1.2,4-15.8,2.5-15.8,2.5s-24.1-57.6-29.3-68.2
		c-9.5-19.5-9.9-43.5-13.4-47.2c-3.5-3.7-42.1-12-64.3-12s-71.9,1.9-77.3-1.2c-5.3-3-38.6-25-24.8-54.4
		C258.4,314.1,316.2,340.9,316.2,340.9z"/>
	<path class="st16" d="M412.1,362.4l-35,67.3c0,0-10.6-25.2-29.1-29.5c-18.5-4.3-92.4-2-92.4-2s-33.9-42.9-4.9-65.4
		c29-22.5,62.9,3.5,62.9,3.5s7,7.6,10.4,7.8C327.3,344.3,354.4,343.9,412.1,362.4z"/>
	<path class="st14" d="M491.1,554.1c0,0-10.7,2.7-14.8,0c-4.1-2.7-18.1-26.3-22.7-27.7c0,0,4.5-9.1,15.8-2.5
		C469.4,523.9,488.1,550.2,491.1,554.1z"/>
	<path class="st14" d="M402.7,553.7c0,0-11-1.5-13.8-5.5c-2.8-4-7-31.2-10.7-34.2c0,0,7.6-6.8,15.6,3.6
		C393.8,517.5,401.3,548.9,402.7,553.7z"/>
	<path class="st14" d="M297.2,194.3c0,0-0.7,2.1-1.4,5.3c-0.4,1.6-0.8,3.5-1.1,5.5c-1,5.6-1.5,12.1-0.1,16.5c0,0-11.9,4.1-21.3-12.7
		c0,0,4-18.1-1.2-29C266.8,168.9,297.2,194.3,297.2,194.3z"/>
	<path class="st19" d="M296,198.8c-0.4,1.6-1.1,4.3-1.4,6.3c-11-7-14.7-18.8-14.7-18.8C286.2,192,296,198.8,296,198.8z"/>
	<path class="st12" d="M328,263.7c-2.5,11.6-9.1,12.2-8.7,20.8c0.4,8.6,3,9.3-1.5,22.8c-0.8,2.5-1.5,5.2-2,8c-0.1,0.3-0.1,0.7-0.2,1
		c-0.3,1.6-0.5,3.1-0.7,4.7c-0.4,2.9-0.7,5.7-0.9,8.2c-0.5,6.7,4.4,11.8,4.4,11.8s-43.3,25.9-73,22.3c0,0,7.7-32.3,11.9-43.5
		c4.2-11.1,3-62.5-0.2-73.5c-4.6-16.3,4.6-40.6,17.2-43.8l19.5,9c0,0,19.6,23.4,24,27C322.2,242,330.5,252,328,263.7z"/>
	<path class="st12" d="M263.5,216.3c5.5-4.6,13.5-12.4,25.1,3.1c11.6,15.5,20.1,25.5,22.6,30c2.5,4.5,24.3,36,24.3,36
		s21.4,2.3,29.7,3.2c10.5,1.1,47.6,4.7,47.6,4.7l1,15.8c0,0-65.4,0.3-72.7,2.2c-7.2,1.8-27.5-16.4-35.5-23.4
		c-8-7.1-30.5-32.8-34.4-35.2C267.4,250.1,249.2,228.2,263.5,216.3z"/>
	<path class="st19" d="M423.6,456.8c-1.7,3.9-3.3,7.4-4.7,10.6c-5.2-16.9-4.8-45-4.8-45C417.2,442,423.5,456.6,423.6,456.8z"/>
	<rect x="197.8" y="398.2" class="st20" width="150.1" height="16.5"/>
	<path class="st20" d="M275.9,345.6c0,0-3.8,15.3,14,18.8c17.8,3.5,39.7,7.9,39.7,35.4h-61.8L275.9,345.6z"/>
	<path class="st20" d="M197.8,414.8l-52.5-220.5c0,0,94.9-14.8,106.2,27.8c11.3,42.6,29.9,169.1,52.5,176.9
		C326.6,406.8,197.8,414.8,197.8,414.8z"/>
	<path class="st18" d="M319.8,299.9c0,0-1,4-2,7.4l-23.1-29.9L319.8,299.9z"/>
	<polygon class="st18" points="294.9,212.9 294.9,208.1 274.6,198.2 267.6,206.3 	"/>
	<circle class="st21" cx="358.8" cy="562.8" r="7.8"/>
	<polygon class="st15" points="190,555 192,560.6 275.9,534.6 271.9,523.3 	"/>
	<polygon class="st15" points="358.8,555 356.8,560.6 272.9,534.6 276.6,522.6 	"/>
	<polygon class="st15" points="299.7,560 299.7,566.5 272.9,534.6 276.6,522.6 	"/>
	<circle class="st21" cx="292.5" cy="562.8" r="7.8"/>
	<circle class="st21" cx="190" cy="562.8" r="7.8"/>
	<polygon class="st22" points="373.1,192.9 378,213.5 381,226.1 366.6,231.9 360.1,220.6 349.4,202.4 	"/>
	<polygon class="st16" points="378,213.5 381,226.1 366.6,231.9 360.1,220.6 	"/>
	
		<rect x="348.4" y="192.7" transform="matrix(0.9285 -0.3712 0.3712 0.9285 -46.6582 147.6652)" class="st16" width="23.6" height="4.6"/>
	
		<rect x="348" y="195.8" transform="matrix(0.9285 -0.3713 0.3713 0.9285 -47.5694 148.2564)" class="st16" width="26.5" height="3.7"/>
	<path class="st14" d="M350.6,215.5c0,0,5.2-4.7,9.2-6c0.9-0.3,1.8-0.4,2.4,0.3c0.6,0.7,0.4,2.5-1.8,4.7c-2.2,2.2-4,5.9-4,5.9
		S353.6,221.9,350.6,215.5z"/>
	<path class="st16" d="M285,129.1c-8.9,2-3.6,24.4-9.6,55.8c-6,31.4-24.9,36.3-24.9,36.3s8.4-13.9,7.5-28.5
		c-0.7-11.4-14.5-42.4-0.9-62.6c10.5-15.7,29-1.4,29-1.4L285,129.1z"/>
	<path class="st14" d="M299.8,130.9c8,0.5,25.3,6.6,25.6,28.1c0,0-1.3,5.6-3.2,10c-1.9,4.3,0.6,18-0.5,18.6
		c-1.1,0.5-5.6,0.9-5.6,0.9s-6.3,13.9-11.4,13.2c-5.1-0.7-23.8-6.9-30.8-25.9C266.9,156.6,267.3,128.7,299.8,130.9z"/>
	<path class="st16" d="M325.4,159c0,0-14,7.4-27.1,7.7c-13.1,0.3-23.8,21.3-23.8,21.3s-15.9-35.6,2.3-53.6
		C294.9,116.3,331.1,134.6,325.4,159z"/>
	<path class="st14" d="M295.3,166.5c0.2-2.5-2.1-6.6-6.6-3.6c-4.5,2.9-0.4,15.4,3.1,14.7C295.3,176.8,295,169.1,295.3,166.5z"/>
	<path class="st16" d="M413.4,314.4v5h236.3v-5c0-4.6-3.1-8.4-6.9-8.4H420.3C416.5,306,413.4,309.8,413.4,314.4z"/>
	<path class="st23" d="M564.9,561.1h71.4v-11.4h-62c-5.2,0-9.4,4.2-9.4,9.4V561.1z"/>
	
		<rect x="622.3" y="319.4" transform="matrix(-1 -1.224647e-16 1.224647e-16 -1 1254.075 880.4164)" class="st23" width="9.4" height="241.7"/>
	
		<rect x="603.4" y="319.4" transform="matrix(-1 -1.224647e-16 1.224647e-16 -1 1216.1619 880.4164)" class="st23" width="9.4" height="241.7"/>
	<rect x="536.4" y="167" class="st24" width="5.6" height="123.1"/>
	<g>
		<path class="st25" d="M550,306h41.5v-2.5H550c-2.2,0-3.7-0.5-4.6-1.5c-1.1-1.2-0.9-2.9-0.9-2.9l0-0.1l0-0.1v-53.7H542v53.6
			c0,0.5-0.1,2.9,1.5,4.7C544.9,305.2,547.1,306,550,306z"/>
	</g>
	<path class="st24" d="M494.9,301.6h42.4v4.4h-46.8l0,0C490.5,303.6,492.5,301.6,494.9,301.6z"/>
	<path class="st26" d="M513.7,319.4h136v-5c0-4.6-3.2-8.4-7.1-8.4H535L513.7,319.4z"/>
</g>
</svg>
