<?xml version="1.0" encoding="utf-8"?>
<!-- Generator: Adobe Illustrator 19.2.0, SVG Export Plug-In . SVG Version: 6.00 Build 0)  -->
<svg version="1.1" id="Слой_1" xmlns="http://www.w3.org/2000/svg" xmlns:xlink="http://www.w3.org/1999/xlink" x="0px" y="0px"
	 viewBox="0 0 480 480" style="enable-background:new 0 0 480 480;" xml:space="preserve">
<style type="text/css">
	.st0{fill:url(#SVGID_1_);}
	.st1{fill:url(#SVGID_2_);}
	.st2{fill:url(#SVGID_3_);}
	.st3{fill:url(#SVGID_4_);}
	.st4{fill:url(#SVGID_5_);}
	.st5{fill:url(#SVGID_6_);}
	.st6{fill:url(#SVGID_7_);}
	.st7{fill:url(#SVGID_8_);}
	.st8{fill:url(#SVGID_9_);}
	.st9{fill:url(#SVGID_10_);}
	.st10{fill:url(#SVGID_11_);}
	.st11{fill:url(#SVGID_12_);}
	.st12{fill:url(#SVGID_13_);}
	.st13{fill:url(#SVGID_14_);}
	.st14{fill:url(#SVGID_15_);}
	.st15{fill:url(#SVGID_16_);}
	.st16{fill:url(#SVGID_17_);}
	.st17{fill:url(#SVGID_18_);}
	.st18{fill:url(#SVGID_19_);}
	.st19{fill:url(#SVGID_20_);}
	.st20{fill:url(#SVGID_21_);}
	.st21{fill:url(#SVGID_22_);}
	.st22{fill:url(#SVGID_23_);}
	.st23{fill:url(#SVGID_24_);}
	.st24{fill:url(#SVGID_25_);}
	.st25{fill:url(#SVGID_26_);}
	.st26{fill:url(#SVGID_27_);}
</style>
<g>
	<linearGradient id="SVGID_1_" gradientUnits="userSpaceOnUse" x1="240" y1="479.9999" x2="240" y2="111.9999">
		<stop  offset="0" style="stop-color:#4BE54D"/>
		<stop  offset="1" style="stop-color:#2DBA39"/>
	</linearGradient>
	<path class="st0" d="M472,400h-8V136c0-13.3-10.7-24-24-24h-16v16h16c4.4,0,8,3.6,8,8v264H32V136c0-4.4,3.6-8,8-8h16v-16H40
		c-13.3,0-24,10.7-24,24v264H8c-4.4,0-8,3.6-8,8v32c0,22.1,17.9,40,40,40h400c22.1,0,40-17.9,40-40v-32C480,403.6,476.4,400,472,400
		z M280,416v8h-80v-8H280z M464,440c0,13.3-10.7,24-24,24H40c-13.3,0-24-10.7-24-24v-24h168v8c0,8.8,7.2,16,16,16h80
		c8.8,0,16-7.2,16-16v-8h168V440z"/>
	<linearGradient id="SVGID_2_" gradientUnits="userSpaceOnUse" x1="240.0015" y1="335.9999" x2="240.0015" y2="239.9999">
		<stop  offset="0" style="stop-color:#4BE54D"/>
		<stop  offset="1" style="stop-color:#2DBA39"/>
	</linearGradient>
	<path class="st1" d="M216,328v8h16v-8h8v8h16v-9.5c7.6-2.6,13.3-8.9,15.3-16.6c2-7.8-0.1-16-5.5-21.9c5.4-5.9,7.5-14.1,5.5-21.9
		c-2-7.8-7.7-14-15.3-16.6V240h-16v8h-8v-8h-16v8c-4.4,0-8,3.6-8,8v64C208,324.4,211.6,328,216,328z M248,312h-24v-16h24
		c4.4,0,8,3.6,8,8S252.4,312,248,312z M224,264h24c4.4,0,8,3.6,8,8s-3.6,8-8,8h-24V264z"/>
	<linearGradient id="SVGID_3_" gradientUnits="userSpaceOnUse" x1="240" y1="367.9999" x2="240" y2="207.9999">
		<stop  offset="0" style="stop-color:#4BE54D"/>
		<stop  offset="1" style="stop-color:#2DBA39"/>
	</linearGradient>
	<path class="st2" d="M240,368c44.2,0,80-35.8,80-80s-35.8-80-80-80s-80,35.8-80,80C160,332.2,195.8,368,240,368z M240,224
		c35.3,0,64,28.7,64,64s-28.7,64-64,64s-64-28.7-64-64C176,252.7,204.7,224,240,224z"/>
	<linearGradient id="SVGID_4_" gradientUnits="userSpaceOnUse" x1="368.0562" y1="240" x2="368.0562" y2="127.9999">
		<stop  offset="0" style="stop-color:#4BE54D"/>
		<stop  offset="1" style="stop-color:#2DBA39"/>
	</linearGradient>
	<path class="st3" d="M368,240c21.4,0,40.3-14.1,46.2-34.7c5.9-20.6-2.5-42.6-20.6-54s-41.7-9.3-57.6,5V128h-16v64
		C320,218.5,341.5,240,368,240z M368,160c17.7,0,32,14.3,32,32s-14.3,32-32,32s-32-14.3-32-32S350.3,160,368,160z"/>
	<linearGradient id="SVGID_5_" gradientUnits="userSpaceOnUse" x1="112" y1="207.9999" x2="112" y2="111.9999">
		<stop  offset="0" style="stop-color:#4BE54D"/>
		<stop  offset="1" style="stop-color:#2DBA39"/>
	</linearGradient>
	<path class="st4" d="M112,208c26.5,0,48-21.5,48-48s-21.5-48-48-48s-48,21.5-48,48C64,186.5,85.5,208,112,208z M112,128
		c17.7,0,32,14.3,32,32s-14.3,32-32,32s-32-14.3-32-32S94.3,128,112,128z"/>
	<linearGradient id="SVGID_6_" gradientUnits="userSpaceOnUse" x1="240" y1="191.9999" x2="240" y2="143.9999">
		<stop  offset="0" style="stop-color:#4BE54D"/>
		<stop  offset="1" style="stop-color:#2DBA39"/>
	</linearGradient>
	<path class="st5" d="M232,144h16v48h-16V144z"/>
	<linearGradient id="SVGID_7_" gradientUnits="userSpaceOnUse" x1="240" y1="127.9999" x2="240" y2="95.9999">
		<stop  offset="0" style="stop-color:#4BE54D"/>
		<stop  offset="1" style="stop-color:#2DBA39"/>
	</linearGradient>
	<path class="st6" d="M232,96h16v32h-16V96z"/>
	<linearGradient id="SVGID_8_" gradientUnits="userSpaceOnUse" x1="240" y1="79.9999" x2="240" y2="63.9999">
		<stop  offset="0" style="stop-color:#4BE54D"/>
		<stop  offset="1" style="stop-color:#2DBA39"/>
	</linearGradient>
	<path class="st7" d="M232,64h16v16h-16V64z"/>
	<linearGradient id="SVGID_9_" gradientUnits="userSpaceOnUse" x1="288" y1="175.9999" x2="288" y2="143.9999">
		<stop  offset="0" style="stop-color:#4BE54D"/>
		<stop  offset="1" style="stop-color:#2DBA39"/>
	</linearGradient>
	<path class="st8" d="M280,144h16v32h-16V144z"/>
	<linearGradient id="SVGID_10_" gradientUnits="userSpaceOnUse" x1="288" y1="119.9999" x2="288" y2="103.9999">
		<stop  offset="0" style="stop-color:#4BE54D"/>
		<stop  offset="1" style="stop-color:#2DBA39"/>
	</linearGradient>
	<path class="st9" d="M280,104h16v16h-16V104z"/>
	<linearGradient id="SVGID_11_" gradientUnits="userSpaceOnUse" x1="288" y1="87.9999" x2="288" y2="71.9999">
		<stop  offset="0" style="stop-color:#4BE54D"/>
		<stop  offset="1" style="stop-color:#2DBA39"/>
	</linearGradient>
	<path class="st10" d="M280,72h16v16h-16V72z"/>
	<linearGradient id="SVGID_12_" gradientUnits="userSpaceOnUse" x1="192" y1="207.9999" x2="192" y2="159.9999">
		<stop  offset="0" style="stop-color:#4BE54D"/>
		<stop  offset="1" style="stop-color:#2DBA39"/>
	</linearGradient>
	<path class="st11" d="M184,160h16v48h-16V160z"/>
	<linearGradient id="SVGID_13_" gradientUnits="userSpaceOnUse" x1="192" y1="143.9999" x2="192" y2="127.9999">
		<stop  offset="0" style="stop-color:#4BE54D"/>
		<stop  offset="1" style="stop-color:#2DBA39"/>
	</linearGradient>
	<path class="st12" d="M184,128h16v16h-16V128z"/>
	<linearGradient id="SVGID_14_" gradientUnits="userSpaceOnUse" x1="192" y1="111.9999" x2="192" y2="79.9999">
		<stop  offset="0" style="stop-color:#4BE54D"/>
		<stop  offset="1" style="stop-color:#2DBA39"/>
	</linearGradient>
	<path class="st13" d="M184,80h16v32h-16V80z"/>
	<linearGradient id="SVGID_15_" gradientUnits="userSpaceOnUse" x1="192" y1="47.9999" x2="192" y2="31.9999">
		<stop  offset="0" style="stop-color:#4BE54D"/>
		<stop  offset="1" style="stop-color:#2DBA39"/>
	</linearGradient>
	<path class="st14" d="M184,32h16v16h-16V32z"/>
	<linearGradient id="SVGID_16_" gradientUnits="userSpaceOnUse" x1="368" y1="127.9999" x2="368" y2="79.9999">
		<stop  offset="0" style="stop-color:#4BE54D"/>
		<stop  offset="1" style="stop-color:#2DBA39"/>
	</linearGradient>
	<path class="st15" d="M360,80h16v48h-16V80z"/>
	<linearGradient id="SVGID_17_" gradientUnits="userSpaceOnUse" x1="368" y1="63.9999" x2="368" y2="47.9999">
		<stop  offset="0" style="stop-color:#4BE54D"/>
		<stop  offset="1" style="stop-color:#2DBA39"/>
	</linearGradient>
	<path class="st16" d="M360,48h16v16h-16V48z"/>
	<linearGradient id="SVGID_18_" gradientUnits="userSpaceOnUse" x1="328" y1="111.9999" x2="328" y2="79.9999">
		<stop  offset="0" style="stop-color:#4BE54D"/>
		<stop  offset="1" style="stop-color:#2DBA39"/>
	</linearGradient>
	<path class="st17" d="M320,80h16v32h-16V80z"/>
	<linearGradient id="SVGID_19_" gradientUnits="userSpaceOnUse" x1="408" y1="143.9999" x2="408" y2="127.9999">
		<stop  offset="0" style="stop-color:#4BE54D"/>
		<stop  offset="1" style="stop-color:#2DBA39"/>
	</linearGradient>
	<path class="st18" d="M400,128h16v16h-16V128z"/>
	<linearGradient id="SVGID_20_" gradientUnits="userSpaceOnUse" x1="408" y1="95.9999" x2="408" y2="47.9999">
		<stop  offset="0" style="stop-color:#4BE54D"/>
		<stop  offset="1" style="stop-color:#2DBA39"/>
	</linearGradient>
	<path class="st19" d="M400,48h16v48h-16V48z"/>
	<linearGradient id="SVGID_21_" gradientUnits="userSpaceOnUse" x1="288" y1="55.9999" x2="288" y2="23.9999">
		<stop  offset="0" style="stop-color:#4BE54D"/>
		<stop  offset="1" style="stop-color:#2DBA39"/>
	</linearGradient>
	<path class="st20" d="M280,24h16v32h-16V24z"/>
	<linearGradient id="SVGID_22_" gradientUnits="userSpaceOnUse" x1="112" y1="95.9999" x2="112" y2="79.9999">
		<stop  offset="0" style="stop-color:#4BE54D"/>
		<stop  offset="1" style="stop-color:#2DBA39"/>
	</linearGradient>
	<path class="st21" d="M104,80h16v16h-16V80z"/>
	<linearGradient id="SVGID_23_" gradientUnits="userSpaceOnUse" x1="112" y1="63.9999" x2="112" y2="31.9999">
		<stop  offset="0" style="stop-color:#4BE54D"/>
		<stop  offset="1" style="stop-color:#2DBA39"/>
	</linearGradient>
	<path class="st22" d="M104,32h16v32h-16V32z"/>
	<linearGradient id="SVGID_24_" gradientUnits="userSpaceOnUse" x1="72" y1="111.9999" x2="72" y2="63.9999">
		<stop  offset="0" style="stop-color:#4BE54D"/>
		<stop  offset="1" style="stop-color:#2DBA39"/>
	</linearGradient>
	<path class="st23" d="M64,64h16v48H64V64z"/>
	<linearGradient id="SVGID_25_" gradientUnits="userSpaceOnUse" x1="72" y1="47.9999" x2="72" y2="31.9999">
		<stop  offset="0" style="stop-color:#4BE54D"/>
		<stop  offset="1" style="stop-color:#2DBA39"/>
	</linearGradient>
	<path class="st24" d="M64,32h16v16H64V32z"/>
	<linearGradient id="SVGID_26_" gradientUnits="userSpaceOnUse" x1="152" y1="111.9999" x2="152" y2="47.9999">
		<stop  offset="0" style="stop-color:#4BE54D"/>
		<stop  offset="1" style="stop-color:#2DBA39"/>
	</linearGradient>
	<path class="st25" d="M144,48h16v64h-16V48z"/>
	<linearGradient id="SVGID_27_" gradientUnits="userSpaceOnUse" x1="152" y1="31.9999" x2="152" y2="-7.812536e-05">
		<stop  offset="0" style="stop-color:#4BE54D"/>
		<stop  offset="1" style="stop-color:#2DBA39"/>
	</linearGradient>
	<path class="st26" d="M144,0h16v32h-16V0z"/>
</g>
</svg>
