<?xml version="1.0" encoding="utf-8"?>
<!-- Generator: Adobe Illustrator 19.2.0, SVG Export Plug-In . SVG Version: 6.00 Build 0)  -->
<svg version="1.1" id="_x33_0" xmlns="http://www.w3.org/2000/svg" xmlns:xlink="http://www.w3.org/1999/xlink" x="0px" y="0px"
	 viewBox="0 0 512 512" style="enable-background:new 0 0 512 512;" xml:space="preserve">
<style type="text/css">
	.st0{fill:#FFFFFF;}
</style>
<g>
	<path class="st0" d="M472,320v-16h-32V192h-72v-40h48c30.9,0,56-25.1,56-56s-25.1-56-56-56c-7.7,0-15.2,1.6-22.1,4.6
		C383.4,22.6,360.8,8,336,8c-20.4,0-39.2,9.7-51.2,25.7c-8.1-6.1-18-9.7-28.8-9.7c-14.2,0-26.9,6.2-35.7,16H184
		c-54.6,0-100.4,23.6-132.5,68.3C23.4,147.4,8,199.8,8,256v32h32v24c0,39.7,32.3,72,72,72h8c0,15.1-10.3,27.9-24.4,31l-29.2,4.1
		C41.9,422.5,8,442.8,8,472v8h192h8h95.4c8.5,0,16.6,3.3,22.6,9.4l6.6,6.6c5.2,5.2,12,8,19.3,8s14.2-2.8,19.3-8l6.6-6.6
		c6-6,14.1-9.4,22.6-9.4H504V320L472,320z M232,304v16h-32v16h-32v-64h48V152h56v120h72v44.8c-8.9-8.2-20.4-12.8-32.6-12.8H232z
		 M248,320h63.4c8.5,0,16.6,3.3,22.6,9.4l9.9,9.9v105.5c-8.9-8.2-20.4-12.8-32.6-12.8H248V320z M360,339.3l9.9-9.9
		c6-6,14.1-9.4,22.6-9.4H456v112h-63.4c-12.2,0-23.7,4.6-32.6,12.8V339.3z M424,208v96h-31.4c-12.2,0-23.7,4.6-32.6,12.8V256h-72
		V152h64v56L424,208z M256,40c13.9,0,25.8,8.7,30.2,21.4C277.6,67.2,272,76.9,272,88h16c0-8.8,7.2-16,16-16s16,7.2,16,16h16
		c0-17.6-14.4-32-32-32c-0.9,0-1.8,0.2-2.7,0.3c-1.3-3.8-3.2-7.3-5.4-10.6c8.8-13.4,23.7-21.6,40-21.6c21.1,0,40,14.1,46,34.2
		l3.1,10.4l9-6c6.4-4.3,14-6.6,21.9-6.6c22.1,0,40,17.9,40,40s-17.9,40-40,40H208c-13.2,0-24-10.8-24-24s10.8-24,24-24
		c1,0,1.9,0.1,2.9,0.2c6.7,18.5,24.4,31.8,45.1,31.8v-16c-17.6,0-32-14.4-32-32S238.4,40,256,40L256,40z M25.5,464
		c5.8-15.2,27.1-26.8,43-29l29.9-4.2c22.1-4.9,37.6-24.2,37.6-46.9V368h-24c-30.9,0-56-25.1-56-56v-40H24v-16
		c0-96.3,50.1-200,160-200h26.8c-1.8,5-2.8,10.4-2.8,16c-22.1,0-40,17.9-40,40c0,19.3,13.8,35.5,32,39.2V256h-48v96h48v112H25.5z
		 M488,464h-87.4c-12.8,0-24.9,5-33.9,14.1l-6.6,6.6c-4.3,4.3-11.7,4.3-16,0l-6.6-6.6c-9.1-9.1-21.1-14.1-33.9-14.1H216V336h16v112
		h79.4c8.5,0,16.6,3.3,22.6,9.4l17.9,17.9l17.9-17.9c6-6,14.1-9.4,22.6-9.4H472V336h16V464z"/>
	<path class="st0" d="M328,336h-64v48h64V336z M312,368h-32v-16h32V368z"/>
	<path class="st0" d="M264,400h64v16h-64V400z"/>
	<path class="st0" d="M440,368h-64v48h64V368z M424,400h-32v-16h32V400z"/>
	<path class="st0" d="M376,336h64v16h-64V336z"/>
	<path class="st0" d="M376,112c4.4,0,8,3.6,8,8h16c0-13.2-10.8-24-24-24s-24,10.8-24,24h16C368,115.6,371.6,112,376,112z"/>
</g>
</svg>
