<?xml version="1.0" encoding="utf-8"?>
<!-- Generator: Adobe Illustrator 19.2.0, SVG Export Plug-In . SVG Version: 6.00 Build 0)  -->
<svg version="1.1" id="BACKGROUND_1" xmlns="http://www.w3.org/2000/svg" xmlns:xlink="http://www.w3.org/1999/xlink" x="0px"
	 y="0px" viewBox="0 0 500 500" style="enable-background:new 0 0 500 500;" xml:space="preserve">
<style type="text/css">
	.st0{fill:#FFFFFF;}
</style>
<g>
	<g>
		<path class="st0" d="M246.3,307c31.5,0,57-25.5,57-57c0-31.5-25.5-57-57-57c-31.5,0-57,25.5-57,57
			C189.4,281.5,214.9,307,246.3,307z M212.2,273.1h10.5v-45.6h-10.5v-11.8H224v-10.2h12.5v10.2h6.6v-10.2h11.5v10.2h4.8
			c9.8,0,17.8,8,17.8,17.8l0,0c0,7.6-5.9,13.9-13.4,14.4h0.1c9.2,0,16.6,7.4,16.6,16.6v0.9c0,10.8-8.8,19.6-19.6,19.6h-6.3v9.5
			h-11.5V285h-6.6v9.5H224V285h-11.8V273.1z"/>
		<path class="st0" d="M257.3,273.1c5,0,9-4,9-9c0-5-4-9-9-9h-2.8h-18.1v18.1h18.1H257.3z"/>
		<path class="st0" d="M255.9,243.3c4.4,0,7.9-3.5,7.9-7.9c0-4.4-3.5-7.9-7.9-7.9h-1.3h-18.1v15.8h18.1H255.9z"/>
		<path class="st0" d="M245.5,321.5c39.5,0,71.5-32,71.5-71.5c0-39.5-32-71.5-71.5-71.5c-39.5,0-71.5,32-71.5,71.5
			C173.9,289.5,206,321.5,245.5,321.5z M245.5,184.9c35.9,0,65.1,29.2,65.1,65.1c0,35.9-29.2,65.1-65.1,65.1
			c-35.9,0-65.1-29.2-65.1-65.1C180.4,214.1,209.6,184.9,245.5,184.9z"/>
		<path class="st0" d="M246.3,333c45.8,0,83-37.2,83-83c0-45.8-37.2-83-83-83s-83,37.2-83,83C163.3,295.8,200.5,333,246.3,333z
			 M246.3,169.6c44.3,0,80.4,36.1,80.4,80.4c0,44.3-36.1,80.4-80.4,80.4c-44.3,0-80.4-36.1-80.4-80.4
			C166,205.7,202,169.6,246.3,169.6z"/>
		<path class="st0" d="M167,206.7c0.2,0.1,0.4,0.2,0.7,0.2c0.5,0,0.9-0.2,1.2-0.7c8.2-14.5,20.3-26.4,34.9-34.3
			c13-7.1,27.7-10.8,42.6-10.8c0.7,0,1.3-0.6,1.3-1.3c0-0.7-0.6-1.3-1.3-1.3c-15.3,0-30.5,3.9-43.9,11.2
			c-15,8.2-27.5,20.4-35.9,35.4C166.2,205.5,166.4,206.3,167,206.7z"/>
		<path class="st0" d="M190.2,319.1c-11.2-9.1-20-20.8-25.7-34c-0.3-0.7-1.1-1-1.7-0.7c-0.7,0.3-1,1.1-0.7,1.7
			c5.8,13.5,15,25.6,26.5,35c0.2,0.2,0.5,0.3,0.8,0.3c0.4,0,0.8-0.2,1-0.5C190.9,320.4,190.8,319.6,190.2,319.1z"/>
		<path class="st0" d="M336.7,248.7c-0.7,0-1.3,0.6-1.3,1.3c0,10.8-1.9,21.4-5.7,31.4c-5.9,15.6-16.1,29.2-29.4,39.4
			C284.6,332.7,266,339,246.3,339c-0.7,0-1.3,0.6-1.3,1.3c0,0.7,0.6,1.3,1.3,1.3c20.2,0,39.4-6.5,55.5-18.7
			c13.7-10.5,24.2-24.5,30.3-40.6C336,272,338,261.1,338,250C338,249.3,337.4,248.7,336.7,248.7z"/>
	</g>
</g>
</svg>
