<?xml version="1.0" encoding="utf-8"?>
<!-- Generator: Adobe Illustrator 19.2.0, SVG Export Plug-In . SVG Version: 6.00 Build 0)  -->
<svg version="1.1" id="Objects" xmlns="http://www.w3.org/2000/svg" xmlns:xlink="http://www.w3.org/1999/xlink" x="0px" y="0px"
	 viewBox="0 0 250 466.1" style="enable-background:new 0 0 250 466.1;" xml:space="preserve">
<style type="text/css">
	.st0{fill:#E4F4E4;}
	.st1{fill:#85DD86;}
	.st2{fill:#FFFFFF;}
	.st3{fill:#353A3D;}
	.st4{fill:#81807E;}
	.st5{fill:#4C4C4C;}
	.st6{fill:#495055;}
	.st7{fill:#EEA886;}
	.st8{fill:#A77860;}
	.st9{fill:url(#SVGID_1_);}
	.st10{fill:url(#SVGID_2_);}
	.st11{fill:#EFEFEF;}
	.st12{fill:#323657;}
	.st13{fill:#AD9F99;}
	.st14{fill:#69737A;}
	.st15{fill:#DECBC4;}
	.st16{fill:url(#SVGID_3_);}
	.st17{fill:url(#SVGID_4_);}
	.st18{fill:url(#SVGID_5_);}
	.st19{fill:#64BC64;}
	.st20{fill:#72CC72;}
	.st21{fill:#55A555;}
</style>
<g>
	<g>
		<g>
			<path class="st0" d="M73.8,280.5h119.9c12.3,0,22.4-10,22.4-22.4V92.1c0-12.3-10-22.4-22.4-22.4H73.8c-12.3,0-22.4,10-22.4,22.4
				v166.1C51.4,270.5,61.4,280.5,73.8,280.5z"/>
		</g>
		<g>
			<g>
				<g>
					
						<rect x="154" y="87.2" transform="matrix(-1 -1.224647e-16 1.224647e-16 -1 350.4312 179.2977)" class="st1" width="42.3" height="4.8"/>
				</g>
			</g>
		</g>
		<g>
			<g>
				<g>
					
						<rect x="165.3" y="97.8" transform="matrix(-1 -1.224647e-16 1.224647e-16 -1 361.687 200.5132)" class="st2" width="31.1" height="4.8"/>
				</g>
			</g>
		</g>
		<g>
			<g>
				<g>
					
						<rect x="119.9" y="108.5" transform="matrix(-1 -1.224647e-16 1.224647e-16 -1 316.3342 221.7288)" class="st2" width="76.4" height="4.8"/>
				</g>
			</g>
		</g>
		<g>
			<g>
				<g>
					<rect x="70.8" y="139" class="st1" width="52.5" height="4.8"/>
				</g>
			</g>
		</g>
		<g>
			<g>
				<g>
					<rect x="70.8" y="149.6" class="st2" width="71" height="4.8"/>
				</g>
			</g>
		</g>
		<g>
			<g>
				<g>
					<rect x="70.8" y="160.2" class="st2" width="94.7" height="4.8"/>
				</g>
			</g>
		</g>
		<g>
			<g>
				<g>
					<rect x="70.8" y="190.7" class="st1" width="57.8" height="4.8"/>
				</g>
			</g>
		</g>
		<g>
			<g>
				<g>
					<rect x="70.8" y="201.3" class="st2" width="79.9" height="4.8"/>
				</g>
			</g>
		</g>
		<g>
			<g>
				<g>
					<rect x="70.8" y="211.9" class="st2" width="76.8" height="4.8"/>
				</g>
			</g>
		</g>
	</g>
	<g>
		<g>
			<path class="st3" d="M166.8,448.9c0,0-3.6,5.3-8.6,6.5c-5,1.2-9.9,3-10,6.2c0,3.2,14.5,5.1,20.2,1.9c8.6-4.8,9.4-3.3,10.4-5.7
				c0.9-2.4-1.1-8.7-1.1-9.5C177.8,447.3,166.8,448.9,166.8,448.9z"/>
		</g>
		<g>
			<path class="st4" d="M167.4,446.2c0,0-0.7,2.6-0.6,2.6c0.1,0.1,11.3,1.4,11-0.7c-0.3-1.7-0.7-3.5-0.7-3.5L167.4,446.2z"/>
		</g>
		<g>
			<path class="st3" d="M204.5,448.5c0,0-2.5,5.1-6.9,6.9c-4.7,1.9-8.4,4-8.3,7.1c0.1,3.1,11.4,6.2,19.6,0.3
				c5.2-3.7,6.8-3.8,7.7-6.1c0.8-2.4-1.4-8.5-1.4-9.2C215.2,446.5,204.5,448.5,204.5,448.5z"/>
		</g>
		<g>
			<path class="st4" d="M204.4,445.9c0,0,0,2.6,0.1,2.7c0.1,0,10.9,0.9,10.6-1.1c-0.2-1.6-1.1-3.6-1.1-3.6L204.4,445.9z"/>
		</g>
		<g>
			<g>
				<path class="st5" d="M164.7,289.7c0,0-10.1,44.4-12.4,57.9c-2,11.5-3.5,23.5-2.6,31.8c1.2,10.3,15.7,63.5,15.1,66.6
					c-0.6,3,15.2,0.5,15.2,0.5s-11.1-59.4-8.9-70.5c1.6-8.2,16-62.6,18.2-59.8c2.2,2.8,4.9,51.3,6.6,59.4c1.6,8.1,6.6,71.7,6.6,71.7
					s11.2,1.6,14.2-0.9c0,0,1.4-54.4,0.3-69.5c-0.4-5.8,6.7-69.1-2.4-94.5C209.8,268.8,164.7,289.7,164.7,289.7z"/>
			</g>
		</g>
		<g>
			<path class="st2" d="M120.9,249.3c7.2-1,29.7,9,31.8,8.2c1.4-0.5,4.7-11.3,7.1-19.4c1.4-4.8,2.5-8.7,2.6-9.1l0,0
				c0,0.2-0.4,3.9,0.1,8.7c0,0.3,0.1,0.6,0.1,1c0,0.1,0,0.2,0,0.3c0.2,1.7,0.5,3.6,1,5.5c0.7,2.8,1.1,6.4,1.2,10.2v0
				c0,0,0,0.1,0,0.1c0,0.1,0,0.2,0,0.3c0,0,0,0.1,0,0.1c0.2,7-0.3,14.5-0.5,18.5c-0.3,6.2,1.7,9,1.8,9.1c0,0,0,0,0,0l2.2-0.3
				l1.6-0.2l0,0l2.1-0.3l8.2-1.2l3-0.4l0.7-0.1l5.2-0.7l14.6-2.1l1.6-0.2l0.7-0.1l5.5-0.8l2.5-0.3l0,0c0,0,2.1-15,2.3-23.1
				c0.1-7.4,4.1-22.6,4.8-25c0,0,0,0,0-0.1c0,0,0,0,0-0.1c0,0,0-0.1,0-0.1c0,0,0,0,0-0.1c0,0,0,0,0,0c0,0,0,0,0,0c0,0,0,0,0,0
				s11.9,12.5,14.2,18c0.7,1.7,2.9,6.2,5.6,11.7c1.9-3.6,3.1-6.1,3.1-6.7c0-0.1,0-0.2,0-0.2c-0.2-5.4-5.8-27.3-10.3-41.6
				c-3.5-7-6.5-12.6-7.4-13.3c-1.5-1-7.6-3.7-12.9-5.8c-0.2-0.1-0.4-0.1-0.5-0.2c-0.5-0.2-1-0.4-1.5-0.6c-0.2-0.1-0.5-0.2-0.7-0.3
				c-0.1,0-0.3-0.1-0.4-0.1c-0.1,0-0.2-0.1-0.3-0.1h0c-2.7-1-4.7-1.7-5.1-1.7c-0.1,0-0.2,0-0.3,0c-0.2,0-0.4,0-0.7,0
				c-3.3,0.2-13.2,1.1-16.3,1.4c-0.6,0.1-0.9,0.1-1,0.1h0c0,0-1.5,0.7-3.8,1.7l0,0l-0.2,0.1c-1.4,0.6-3,1.5-4.6,2.4
				c-3.3,1.8-6.9,3.9-10,5.4c-3,1.4-7,3.4-7.4,3.6l-15,43.3l-26-4.8L120.9,249.3z"/>
		</g>
		<g>
			<path class="st6" d="M166.1,282.8c0,0-1.1,1.3-1.4,6.9c0,0,45.2-5.3,50-7.3c0,0,0.2-6.1-0.8-6.2
				C212.7,275.9,166.1,282.8,166.1,282.8z"/>
		</g>
		<g>
			<path class="st7" d="M204.6,185c-0.1,7.1-13.9,11-13.9,11s-5.7-7.2-4.4-7.9c0.5-0.3,0.8-1.3,0.8-2.6c0.1-1.1,0-2.4-0.1-3.2
				c0-0.5-0.1-0.8-0.1-0.8s2-2.1,4.5-4.5c4.4-4.3,10.4-9.8,10.4-7.6c0,0.1,0,0.3-0.1,0.4C200.8,174.7,204.6,185,204.6,185z"/>
		</g>
		<g>
			<path class="st3" d="M203.5,277.1c0,0,1,6.2,1.1,7.8l2.1-0.4c0,0-0.6-6.6-0.9-7.7L203.5,277.1z"/>
		</g>
		<g>
			<path class="st3" d="M169.9,282c0,0-0.8,5.7-0.8,7.8l2.2-0.3c0,0,0.5-7.1,0.7-7.8L169.9,282z"/>
		</g>
		<g>
			<path class="st8" d="M199.3,174.6C199.3,174.6,199.3,174.6,199.3,174.6c0,0-0.6,0.9-1.6,2.2c-2.1,2.7-6.1,7-10.5,8.8
				c0.1-1.1,0-2.4-0.1-3.2c-0.5,0-0.9-0.1-1.4-0.2c1.2-2.1,3-4.4,3-4.4l2.8-0.8L199.3,174.6z"/>
		</g>
		<g>
			<path class="st7" d="M202,169.4c-1.2,2.6-2.3,4.5-2.6,5.2c0,0,0,0,0,0c-0.2,0.5-0.8,1.3-1.6,2.2c-2.3,2.4-6.5,5.7-10.6,5.5
				c-0.5,0-0.9-0.1-1.4-0.2c-1.7-0.4-3.6-1.1-4.7-3.3c-8.6-16.8-2.4-30.5-2.4-30.5s23.4-6.6,27.1,0.4
				C208.3,153.8,204.8,163.4,202,169.4z"/>
		</g>
		<g>
			<path class="st5" d="M178.7,148.4c0,0-2.2-0.1-2.7-4.2c-0.5-4.1,0.5-5.2,0.5-5.2s9.7-4,13.1-4.6c3.5-0.5,12-1,14,1.3
				c0,0,4.9-1.1,6.2,6.9c2.1,12.8-7.2,25.2-7.2,25.2s0.1-8.4-1.8-9.5c-1.8-1.1-3.4,1.5-3.4,1.5l-3.8,0.7c0,0,5.7-12.4-1.1-12.8
				C185.7,147.3,182.6,149.2,178.7,148.4z"/>
		</g>
		<g>
			<path class="st7" d="M197.6,156.6c0.4-3.7,7-5.1,6.6-1.2c-0.4,3.9-3.7,7.6-5.2,7.4C197.4,162.7,197.3,159.4,197.6,156.6z"/>
		</g>
		<g>
			<linearGradient id="SVGID_1_" gradientUnits="userSpaceOnUse" x1="191.7058" y1="248.8958" x2="243.865" y2="248.8958">
				<stop  offset="0" style="stop-color:#57CCD0"/>
				<stop  offset="1" style="stop-color:#6DEAC0"/>
			</linearGradient>
			<path class="st9" d="M243.9,250.6c0-0.1,0-0.2,0-0.2c-0.1-5.4-2.8-27-7.2-41.3c-2.2-7-2.7-11.8-3.5-12.4c-1.5-1-14.4-4.9-19.9-7
				c-0.2-0.1-0.4-0.1-0.5-0.2c-0.5-0.2-1-0.4-1.5-0.6c-0.2-0.1-0.5-0.2-0.7-0.3c-0.1,0-0.3-0.1-0.4-0.1c-0.1,0-0.2-0.1-0.3-0.1
				c0,0,0,0,0,0c-0.5,0.5-3,3.4-6.1,7.7c-5.7,8.1-13.1,21.1-11.9,33.2c0.4,3.9,0.8,9.4,1.6,15.7c0.1,0.5,0.1,1.1,0.2,1.6
				c0.2,1.4,0.4,2.9,0.6,4.4c0.1,0.9,0.3,1.8,0.4,2.7c1.5,9.3,6.2,15.7,10.4,23.3c0,0.1,0.1,0.1,0.1,0.2c0,0,0,0.1,0.1,0.1
				c0.1,0.2,0.2,0.3,0.3,0.5c0.1,0.3,0.3,0.5,0.4,0.8c0.1,0.2,0.2,0.3,0.2,0.5c0.8,1.5,1.6,3.1,2.3,4.7c0.5,1,1,2,1.4,3.1
				c0,0.1,0.1,0.2,0.1,0.3c0,0,0.8,1.8,1.8,4.1c0.4,0.8,0.8,1.8,1.1,2.7c0.3,0.6,0.5,1.3,0.8,1.9c0.2,0.5,0.5,1.1,0.7,1.6
				c0.5,1.1,0.9,2.1,1.2,2.8c0.2,0.5,0.4,0.8,0.4,1c1.4,3.6,2.5,6.4,3,7.7c0.2,0.5,0.3,0.8,0.3,0.8l14.5-8c2.7-1.4,1.3-8.8,0.3-11.7
				c-0.9-2.4-2.1-5-3.4-7.6c-0.6-1.1-1.1-2.2-1.7-3.3c4.5-7.9,9.1-16.1,12-21.6C242.7,253.7,243.9,251.2,243.9,250.6z M220.9,228
				C220.9,228,220.9,227.9,220.9,228c0-0.1,0-0.1,0-0.1c0,0,0-0.1,0-0.1c0,0,0,0,0-0.1c0,0,0,0,0,0c0,0,0,0,0,0c0,0,7,11,6.5,20.5
				c-0.1,1.5-1.6,5.2-3.7,10.1c0,0,0,0,0,0c-0.8,1.8-1.7,3.6-2.6,5.6c0-0.1-0.1-0.2-0.1-0.2c-1.3-3.3-2.2-6.4-2.2-9.1
				C218.8,254.6,219.4,233.7,220.9,228z"/>
		</g>
		<g>
			<linearGradient id="SVGID_2_" gradientUnits="userSpaceOnUse" x1="108.3624" y1="252.0182" x2="182.5036" y2="252.0182">
				<stop  offset="0" style="stop-color:#57CCD0"/>
				<stop  offset="1" style="stop-color:#6DEAC0"/>
			</linearGradient>
			<path class="st10" d="M111.3,234.7l32.7,7.1l15.6-40.8c0.3-0.3,4.8-2.7,7.8-4.1c3.1-1.5,7-3.3,10.4-4.9c1.7-0.8,3.2-1.5,4.5-2.1
				l0.1,0.1c0,0-1.9,6.4-4.4,22.5c0,0,0,0,0,0c-0.1,0.5-0.2,1.1-0.3,1.6c0,0.1,0,0.1,0,0.2c-0.1,0.4-0.1,0.7-0.2,1.1
				c0,0,0,0.1,0,0.1c0,0.3-0.1,0.5-0.1,0.8c-0.1,0.6-0.2,1.3-0.3,1.9c-1.1,7.8-2.7,21.1-4.2,34.5v0c-1.2,10.6-3.9,21.4-4.8,29.6
				c0,0,0,0,0,0c-0.2,1.6-0.6,3.7-1.1,6.1c-0.1,0.3-0.1,0.5-0.2,0.8c-2.4,10.2-7.1,24.7-7.1,24.7l-1.4-1.3l-4.1-3.7
				c-0.9-0.9-1.3-2.2-0.9-3.4c2.2-7.3,9.9-32.9,11.3-51c0,0,0,0,0,0c0.4-5.7-1.2-11-2.2-16.1c0,0,0,0.1,0,0.1
				c-0.8,2.2-1.7,4.7-2.6,7v0c-2.4,6.4-4.9,12.3-5.9,12.6c-2.3,0.8-45.4-10.9-45.7-12.6L111.3,234.7z"/>
		</g>
		<g>
			<path class="st1" d="M206,205.9l-6.7,3.8l2.9,2.9l-7.6,41c-1.5-9.6-2.3-18.8-2.8-24.4c-1.7-18.6,16.9-39.7,18-41
				c0.9,0.3,1.9,0.7,2.9,1.1L206,205.9z"/>
		</g>
		<g>
			<path class="st1" d="M182.6,189.8c0,0-2.5,8.2-5.4,28.5c-1.1,7.8-2.7,21.1-4.2,34.5l-1.6-38.4l3.2-3.4l-2.8-3.5l6.1-15.5
				c1.7-0.8,3.2-1.5,4.5-2.1L182.6,189.8z"/>
		</g>
		<g>
			<path class="st11" d="M210.2,188.4l-5.5-3.4c0,0-0.2,3-13.9,11l3.9,11L210.2,188.4z"/>
		</g>
		<g>
			<path class="st11" d="M187.1,186.6c0,0,0.2,3.3,3.6,9.4l-7.6,9.9l-0.6-16.1L187.1,186.6z"/>
		</g>
		<g>
			<path class="st12" d="M190.8,196c0,0,1.5,5.9,0.9,7.5c0,0-3.2,1.2-5.6-0.3C186.2,203.3,187.8,199.1,190.8,196z"/>
		</g>
		<g>
			<g>
				<path class="st13" d="M183.2,281c-0.8-4.2,0-16.6,0-17.1l0.7,0c0,0.1-0.8,12.9,0,17L183.2,281z"/>
			</g>
		</g>
		<g>
			<path class="st14" d="M188.9,279.1c0,0-6.6,0.8-8.8,1.3l0.3,7.5l8.7-0.9L188.9,279.1z"/>
		</g>
		<g>
			<path class="st12" d="M187.5,202.7c0,0-7.4,18.7-6.2,39.7c1.3,21.7,3.3,29.6,3.3,29.6l4.6,5.7l2-7c0,0-6.1-27.7-2.2-54.7
				c0.7-4.9,1.8-14.1,1.8-14.1L187.5,202.7z"/>
		</g>
		<g>
			<path class="st7" d="M209.8,291.2c0,0-1.6,3.2-3.2,3.7c-1.6,0.5-3.9,3.1-3.9,3.1l11.2,5.9c0,0,3-5.8,3.1-9.5
				C217.1,290.6,209.8,291.2,209.8,291.2z"/>
		</g>
		<g>
			<path class="st15" d="M208.7,291.5L208,293c0,0,7.1,5.2,9,5.5l0.7-2L208.7,291.5z"/>
		</g>
		<g>
			<linearGradient id="SVGID_3_" gradientUnits="userSpaceOnUse" x1="207.959" y1="276.8147" x2="232.8994" y2="276.8147">
				<stop  offset="0" style="stop-color:#57CCD0"/>
				<stop  offset="1" style="stop-color:#6DEAC0"/>
			</linearGradient>
			<path class="st16" d="M208,291.5c0,0,5.3,4.4,9.8,6.4l15.1-27.2l-7.8-15.1C225.1,255.7,208.3,288.9,208,291.5z"/>
		</g>
		<g>
			<linearGradient id="SVGID_4_" gradientUnits="userSpaceOnUse" x1="159.7306" y1="231.1984" x2="164.55" y2="231.1984">
				<stop  offset="0" style="stop-color:#57CCD0"/>
				<stop  offset="1" style="stop-color:#6DEAC0"/>
			</linearGradient>
			<path class="st17" d="M162.8,229.1c-0.2,5-0.2,9.5-0.2,9.5s0,0,0,0c0,0,0,0.2,0,0.4c0-0.1,0-0.2,0-0.3c-0.8,2.2-1.7,4.7-2.6,7
				c-0.2-2.7-0.3-5.3-0.2-7.7c0.4-14.1,4.8-21.5,4.8-21.5C163.5,219.1,163,224.3,162.8,229.1z"/>
		</g>
		<g>
			<linearGradient id="SVGID_5_" gradientUnits="userSpaceOnUse" x1="218.4365" y1="287.8459" x2="230.5366" y2="287.8459">
				<stop  offset="0" style="stop-color:#57CCD0"/>
				<stop  offset="1" style="stop-color:#6DEAC0"/>
			</linearGradient>
			<path class="st18" d="M230.5,282.2l-12.1,14.6l10.4-17.9C229.4,280,230,281.1,230.5,282.2z"/>
		</g>
		<g>
			<path class="st2" d="M142.7,263.9h-27.9c-1.9,0-3.6-1.3-4-3.2l-12.1-50.1c-0.6-2.6,1.3-5.1,4-5.1h27.9c1.9,0,3.6,1.3,4,3.2
				l12.1,50.1C147.3,261.4,145.4,263.9,142.7,263.9z"/>
		</g>
		<g>
			<g>
				<path class="st7" d="M108.5,249.9c1.4-1.3,4-2,6.3-3.5c2.3-1.5,0.4-3.1,0.4-3.1c2.3-0.8,2.1-1.9,1.8-2.6c-0.4-1-2.9-0.7-2.9-0.7
					s2.3-0.5,3.2-0.9c0.9-0.4,0.6-2-0.8-2.6c-1.4-0.5-7.3,0.9-7.3,0.9s1-0.5,3.8-1.9c2.9-1.5,3.5-2.8,1.8-3.4
					c-1.2-0.4-3.5,0.5-8,3.5c-3.4,2.3-3.1,2.6-3.1,2.6S106.9,251.5,108.5,249.9z"/>
			</g>
		</g>
	</g>
	<g>
		<g>
			<g>
				<path class="st1" d="M79.8,37.8c-18.4-8.7-39.6-4.1-52.8,10c-3.2,3.4-5.9,7.3-8,11.8C12.6,73,13.4,88,19.8,100.3
					c4.4,8.5,11.6,15.7,20.9,20.1c0.9,0.4,1.9,0.8,2.8,1.2c4.3,1.7,8.7,2.7,13,3c18.4,1.5,36.6-8.3,45-26
					C112.4,75.8,102.6,48.6,79.8,37.8z M91.2,93.7c-6.3,13.2-19.9,20.6-33.7,19.5c-3.3-0.3-6.6-1-9.8-2.3c-0.7-0.3-1.4-0.6-2.1-0.9
					c-7-3.3-12.4-8.7-15.7-15.1c-4.8-9.2-5.4-20.4-0.6-30.5c1.6-3.3,3.6-6.3,6-8.8c9.9-10.5,25.8-14,39.6-7.5
					C92,56.2,99.3,76.6,91.2,93.7z"/>
			</g>
		</g>
		<g>
			<g>
				<path class="st19" d="M30,95l-10.1,5.3C13.4,88,12.6,73,19,59.5c2.1-4.4,4.8-8.4,8-11.8l8.3,7.8c-2.4,2.5-4.4,5.5-6,8.8
					C24.6,74.5,25.2,85.8,30,95z"/>
			</g>
		</g>
		<g>
			<g>
				<path class="st20" d="M47.8,110.9l-4.2,10.6c-0.9-0.4-1.9-0.8-2.8-1.2c-9.3-4.4-16.5-11.6-20.9-20.1L30,95
					c3.3,6.4,8.7,11.7,15.7,15.1C46.3,110.3,47,110.6,47.8,110.9z"/>
			</g>
		</g>
		<g>
			<g>
				<path class="st20" d="M56.6,124.6c-4.4-0.4-8.8-1.3-13-3l4.2-10.6c3.2,1.3,6.5,2,9.8,2.3L56.6,124.6z"/>
			</g>
		</g>
	</g>
	<g>
		<g>
			<g>
				<path class="st1" d="M146.1,19.5C142.3,9.1,132.4,2.7,121.9,3c-2.5,0.1-5.1,0.5-7.6,1.4c-7.6,2.7-13.1,8.8-15.4,16
					c-1.6,5-1.6,10.5,0.3,15.8c0.2,0.5,0.4,1,0.6,1.6c1,2.3,2.3,4.4,3.9,6.2c6.5,7.7,17.3,10.9,27.3,7.3
					C143.9,46.7,150.7,32.4,146.1,19.5z M128.9,45.4c-7.5,2.7-15.6,0.3-20.5-5.5c-1.2-1.4-2.1-2.9-2.9-4.6c-0.2-0.4-0.3-0.8-0.5-1.2
					c-1.4-4-1.4-8.1-0.2-11.8c1.7-5.4,5.8-10,11.5-12c1.9-0.7,3.8-1,5.7-1.1c7.9-0.2,15.3,4.6,18.1,12.4
					C143.7,31.3,138.6,42,128.9,45.4z"/>
			</g>
		</g>
		<g>
			<g>
				<path class="st21" d="M104.8,22.3l-5.9-1.9c2.3-7.2,7.7-13.3,15.4-16c2.5-0.9,5.1-1.4,7.6-1.4l0.2,6.2c-1.9,0.1-3.8,0.4-5.7,1.1
					C110.6,12.4,106.5,16.9,104.8,22.3z"/>
			</g>
		</g>
		<g>
			<g>
				<path class="st19" d="M105.5,35.3l-5.7,2.5c-0.2-0.5-0.4-1-0.6-1.6c-1.9-5.3-1.9-10.8-0.3-15.8l5.9,1.9
					c-1.2,3.7-1.2,7.9,0.2,11.8C105.2,34.5,105.4,34.9,105.5,35.3z"/>
			</g>
		</g>
		<g>
			<g>
				<path class="st20" d="M103.7,44c-1.6-1.8-2.9-3.9-3.9-6.2l5.7-2.5c0.7,1.7,1.7,3.3,2.9,4.6L103.7,44z"/>
			</g>
		</g>
	</g>
</g>
</svg>
