<?xml version="1.0" encoding="utf-8"?>
<!-- Generator: Adobe Illustrator 19.2.0, SVG Export Plug-In . SVG Version: 6.00 Build 0)  -->
<svg version="1.1" id="Слой_1" xmlns="http://www.w3.org/2000/svg" xmlns:xlink="http://www.w3.org/1999/xlink" x="0px" y="0px"
	 viewBox="0 0 390 703" style="enable-background:new 0 0 390 703;" xml:space="preserve">
<style type="text/css">
	.st0{fill:#EEA886;}
	.st1{fill:#4B4B4B;}
	.st2{fill:#FFFFFF;}
	.st3{fill:#2ED2AC;}
	.st4{fill:#20201F;}
	.st5{fill:#A77860;}
	.st6{fill:#C98462;}
	.st7{fill:#DADADA;}
</style>
<g>
	<path class="st0" d="M292.9,292.6c0,0,3.9,8.8,7.6,7.7c3.7-1.1,9.2-0.8,10.9-0.6c2.3,0.3,9.8-1.5,9.4,1.3
		c-0.4,2.8-12.3,3.5-14.7,4.1c-2.5,0.6,6.4,6.9,7,9.3c0.6,2.4-11.8,16.4-17.3,11.4c-5.5-5-7.8-14-9-14.7c-1.2-0.7-6.3-7.9-6.3-7.9
		L292.9,292.6z"/>
	<path class="st0" d="M312.1,312.9c0,0,15.8,16.5,15.9,18.4c0.1,2-1,2.8-2.5,1.3c-1.6-1.5-15.8-15.5-15.8-15.5s15.2,22.7,15.6,24.3
		c0.2,0.9-1.6,2.6-2.6,1.9c-0.9-0.7-17.3-22.3-17.3-22.3s14.1,21.2,14.1,22.6c-0.1,1.3-2.2,2.4-3.3,0.9
		c-1.2-1.5-15.5-20.4-15.5-20.4s9.2,16.1,8.4,17.3c-0.5,0.8-2.1,2.3-4.3-2c-2.2-4.2-8.7-13.6-8.7-13.6L312.1,312.9z"/>
	<g>
		<path class="st1" d="M94.3,604.6c0,0-6.1,4.3-9.4,7.4c-3.4,3-7.9,6.3-10.7,14.1c-2.8,7.8,1.6,13.5,9.2,13.9
			c7.6,0.5,19.2-5.3,20.4-12.2c1.1-6.9,10-6.1,11.2-11c1.2-4.9-0.4-10.9-0.4-10.9L94.3,604.6z"/>
	</g>
	<g>
		<path class="st0" d="M95.3,598.9l-1,5.7c0,0,3.1,5.8,20.2,1.3l-0.9-5.6L95.3,598.9z"/>
	</g>
	<path class="st2" d="M114.5,605.9c0,0-3.9,0.5-6.6,0.9c-2.7,0.4-8.2-3.1-13.6-2.2l1.7,6.9C96,611.5,114.1,608.1,114.5,605.9z"/>
	<g>
		<path class="st1" d="M203.4,604.6c0,0,6.1,4.3,9.4,7.4c3.4,3,7.9,6.3,10.7,14.1c2.8,7.8-1.6,13.5-9.2,13.9
			c-7.6,0.5-19.2-5.3-20.4-12.2c-1.1-6.9-10-6.1-11.2-11c-1.2-4.9,0.4-10.9,0.4-10.9L203.4,604.6z"/>
	</g>
	<g>
		<path class="st0" d="M202.4,598.9l1,5.7c0,0-3.1,5.8-20.2,1.3l0.9-5.6L202.4,598.9z"/>
	</g>
	<g>
		<path class="st1" d="M209.7,466.2c0,12.5-5,131.5-5,131.5c-1.3,4.2-18.2,4-22.4,1.9c-4.2-2.1-3.4-119.2-4.2-131.8
			c-0.8-12.6-10.9-105.4-14.6-105c-3.7,0.4-24.3,87.9-27.3,97.5c-2.9,9.6-19.8,139.3-19.8,139.3c-14.3,5-23.5,0-23.5,0
			s5.5-130.7,5.5-146.3c0-5.8,1.7-10.1,3.3-40.8c1.2-23.3,7.7-71.2,12.1-104.1c0.2-1.2,0.3-2.3,0.4-3.4c0.9-6.4,1.5-11.1,1.8-13.4
			c0.1-1,0.2-1.5,0.2-1.5c1.2-0.5,2.4-1,3.7-1.5c30.6-11,89.5,0.6,89.5,0.6s0,0.3,0.1,0.8c0.1,0.7,0.2,1.7,0.4,3
			c0.3,2.9,0.8,7.2,1.4,12.2c0,0,0,0.1,0,0.1c0,0.2,0,0.3,0.1,0.5c2.1,17.9,3.1,27.7,4.7,46.7C216.5,356.8,209.7,453.6,209.7,466.2z
			"/>
	</g>
	<g>
		<path class="st3" d="M182,121c0,0,50,10.6,54.2,24.5c4.2,13.9,12.3,46.6,23.5,82.1c6.7,21.2,41,69.6,41,69.6s-19.6,14.4-19.6,12.5
			c0-1.9-46.1-63.5-46.7-71c-0.6-7.5-14.5-45.9-14.5-45.9s-6.6,73.8-6.6,85.2c0,11.4,0.8,34.5,0.8,34.5s-18.5,7.1-54.5,5.2
			c0,0-57.3-2-47.5-19.4c7.4-13.2,2.9-102,1.7-102.6c-1.1-0.6-21.1,24.5-19.1,29.3c1.9,4.8,53.6,22.1,53.6,22.1s1.5,5.6-6.5,18.2
			c0,0-77.2-22.6-77.5-27.3c-0.3-4.7,32.1-96.5,42.7-101.3c15.2-6.9,55.1-17.8,55.1-17.8L182,121z"/>
	</g>
	<path class="st2" d="M183.1,605.9c0,0,3.9,0.5,6.6,0.9c2.7,0.4,8.2-3.1,13.6-2.2l-1.7,6.9C201.7,611.5,183.5,608.1,183.1,605.9z"/>
	<path class="st0" d="M181.2,103.6c0,0-2.1,11.3,1.5,19c0,0,3.6,18-14.8,18.8c-18.4,0.8-18.8-15.7-18.8-15.7s4.4-5.9,1.5-22
		C147.6,87.6,181.2,103.6,181.2,103.6z"/>
	<g>
		<path class="st0" d="M170,38.3c0,0,23.6,3.8,20,41.5c-3.6,37.7-24.4,34.6-25.8,34.6c-1.4,0-20.9,0.7-22.4-45.4
			C141.8,69,141.2,35,170,38.3z"/>
	</g>
	<g>
		<path class="st0" d="M190.4,69.2c0,0,2.6-2.8,3.5,0c0.9,2.9-3.4,15.2-3.7,16.2c0,0-0.5,1.1-1.1,0.5
			C188.5,85.3,190.4,69.2,190.4,69.2z"/>
	</g>
	<g>
		<path class="st0" d="M142.4,68.7c0,0-2.5-2.9-3.5,0c-1,2.8,3.2,15.8,3.4,16.3c0,0,0.4,1.1,1.1,0.5C144,84.8,142.4,68.7,142.4,68.7
			z"/>
	</g>
	<g>
		<path class="st4" d="M190.3,74.9l-3.4,4.6c0,0,0.1-10.1-0.4-11.7c-0.5-1.6,0.6-7.1,0.2-8.3c-0.5-1.1-16.1,3.1-41.8,0.5
			c0,0,2.9,9.1,1.2,9.8c-1.7,0.6-0.9,11.9-0.9,11.9l-2.8-3.2c0,0-3.1-19.1-2.8-22.3c0.4-4.3-1-24.1,35.1-20.7
			c4.1,0.4,8.1,1.9,11.4,4.5c3.7,2.9,7.5,7.4,7.2,13.6C192.9,61.8,190.3,74.9,190.3,74.9z"/>
	</g>
	<path class="st5" d="M153.5,109.4c0,0,9.7,11.3,25.1,0c0,0-4.3,8.6-13.4,8.8C156.2,118.4,153.5,109.4,153.5,109.4z"/>
	
		<rect x="91.6" y="173.6" transform="matrix(0.9603 0.2788 -0.2788 0.9603 69.435 -26.9648)" class="st2" width="75.8" height="114.1"/>
	<path class="st6" d="M161.8,246.3c0,0,4.8-0.1,6.2-0.3c1.5-0.2,0.5,2.9-1.2,3.5C165.1,250,161.8,246.3,161.8,246.3z"/>
	<path class="st0" d="M164.6,269c0,0-2.1,0.5-3.1,0.3c0,0-1.8-0.5-3.1-0.9c-0.4-0.1-0.8-0.2-1-0.2c-1-0.1-3.2,0-5.6-0.9
		c-2.4-0.9-10.3-5-10.3-5l2.3-7.4l1.7-5.9c0,0,13.5-3.6,15.8-3c0.2,0.1,0.4,0.1,0.6,0.2c1.9,0.7,3,2,4,2.5c0.3,0.2,3.7,2.2,3.9,3.3
		c0.2,1.6-0.2,2.8-1.1,3.5c0,0,0.3,3.1-0.8,4.9c0,0,0.4,2.9-1.7,4.7C166.1,265.2,166.1,268.2,164.6,269z"/>
	<path class="st3" d="M148.2,247.1c0,0,0.7,9.5-6.5,18.2c0,0-56.7-17.7-63.5-20.3c-6.8-2.7,24.5-85.8,24.5-85.8l23,7.8l-12.4,23.4
		c0,0-6.1,13.1-18.9,34.7C94.6,225,102.4,232.5,148.2,247.1z"/>
	<ellipse class="st7" cx="126.9" cy="226.2" rx="9.6" ry="11.3"/>
	<path class="st3" d="M188.2,134.1l-5.2-16.5c0,0-8.4,3.9-32.8,1.2l-5.5,15.8C144.6,134.6,165.5,152.9,188.2,134.1z"/>
</g>
</svg>
