<?xml version="1.0" encoding="utf-8"?>
<!-- Generator: Adobe Illustrator 19.2.0, SVG Export Plug-In . SVG Version: 6.00 Build 0)  -->
<svg version="1.1" id="Слой_1" xmlns="http://www.w3.org/2000/svg" xmlns:xlink="http://www.w3.org/1999/xlink" x="0px" y="0px"
	 viewBox="0 0 951.5 977.8" style="enable-background:new 0 0 951.5 977.8;" xml:space="preserve">
<style type="text/css">
	.st0{fill:#3FB74C;}
	.st1{fill:#FFFFFF;}
	.st2{opacity:0.33;fill:#FFFFFF;}
	.st3{fill:#99EAB8;}
	.st4{fill:#56CF5E;}
	.st5{fill:#40B74C;}
	.st6{fill:#1F1F1F;}
	.st7{fill:none;stroke:#A6CE9F;stroke-width:0.5;stroke-miterlimit:10;}
	.st8{fill:none;stroke:#00C4E1;stroke-width:0.5;stroke-miterlimit:10;}
	.st9{fill:#D7D7DB;}
	.st10{fill:#EEA886;}
	.st11{fill:#A77860;}
	.st12{fill:#CFBEB8;}
	.st13{fill:#EDDAD3;}
	.st14{fill:#D6C5BE;}
	.st15{fill:#33B442;}
	.st16{fill:#3D426B;}
</style>
<g>
	<g>
		<g>
			<polygon class="st0" points="65.4,125.4 207.5,126.1 207.1,229.1 207,250.8 185.4,229 64.9,228.4 			"/>
		</g>
	</g>
	
		<ellipse transform="matrix(3.150983e-03 -1 1 3.150983e-03 -45.5791 317.0057)" class="st1" cx="136.2" cy="181.4" rx="10.9" ry="10.9"/>
	
		<ellipse transform="matrix(3.156279e-03 -1 1 3.156279e-03 -81.0068 281.2401)" class="st1" cx="100.6" cy="181.3" rx="10.9" ry="10.9"/>
	
		<ellipse transform="matrix(3.182775e-03 -1 1 3.182775e-03 -10.9695 351.9434)" class="st1" cx="171" cy="181.5" rx="10.9" ry="10.9"/>
</g>
<g>
	<path class="st2" d="M0,349.4l288.3-0.9l-73.5-15c0,0,3-82.5-33-66c-36,16.5-37.5,52.5-37.5,52.5s-13.5-33-33-21
		c-19.5,12-28.5,33-28.5,33s-7-23.8-19.5-25.1c-10.7-1.2-31,21.4-41.7,34.2L0,349.4z"/>
	<path class="st2" d="M792.9,483.3l237.8-0.7l-60.7-11.2c0,0,2.5-61.3-27.2-49.1c-29.7,12.3-31,39-31,39s-11.1-24.5-27.2-15.6
		c-16.1,8.9-23.5,24.5-23.5,24.5s-5.8-17.7-16.1-18.7c-8.8-0.9-25.6,15.9-34.4,25.4L792.9,483.3z"/>
	<path class="st2" d="M406,142.5l237.8-0.7l-60.7-12.4c0,0,2.5-68.1-27.2-54.5c-29.7,13.6-31,43.3-31,43.3s-11.1-27.2-27.2-17.3
		c-16.1,9.9-23.5,27.2-23.5,27.2s-5.8-19.6-16.1-20.7c-8.8-1-25.6,17.7-34.4,28.2L406,142.5z"/>
</g>
<g>
	<path class="st3" d="M824.4,101.3l-18.1,6.3L798.4,85C784,43.3,738.3,21.2,696.6,35.6c-41.7,14.5-63.8,60.1-49.3,101.8l7.8,22.6
		l-18.1,6.3c-14.1,4.9-21.7,20.5-16.8,34.6l51,147c5,14.3,20.6,21.9,34.7,17l187.3-65c14.3-5,21.9-20.6,16.9-35l-51-147
		C854.3,103.9,838.7,96.3,824.4,101.3z M681.5,125.6c-7.9-22.8,4.2-47.9,27-55.8c22.8-7.9,47.8,4.2,55.8,27.1l7.8,22.6l-82.8,28.7
		L681.5,125.6z M790,259.6l13,37.5c0.6,1.6-0.4,3.2-2,3.8l-18,6.2c-1.4,0.5-3.1-0.2-3.7-1.8l-13-37.5c-13.9-0.5-26.9-9.3-31.8-23.4
		c-6.3-18.2,3.3-38.1,21.6-44.4c18.2-6.3,38.1,3.3,44.4,21.5C805.4,235.6,800.7,250.5,790,259.6z"/>
	<g>
		<path class="st4" d="M700.5,827.6c-4.5-8.7,6-18,15.6-19.7c9.6-1.7,20.5-0.4,28.1-6.5c10.2-8.1,9.7-25.7,21-32.2
			c9.1-5.2,21.1-0.2,30.7-4.3c11.9-5.1,15.3-21.7,27-27.3c9.3-4.5,21.6,0.6,26.3,9.8c4.8,9.2,2.6,21.1-4,29
			c-5.2,6.2-12.8,10.6-16,18c-5,11.6,2.9,25.7-1.7,37.5c-8.5,21.8-48.9,15.2-55.9,37.6c-1.6,5-0.9,10.3-1.3,15.5
			c-1.2,15.5-12.1,28.9-25.6,36.6c-13.5,7.7-29.2,10.4-44.7,11.4c-6.3,0.4-13,0.6-18.6-2.3c-5.3-2.7-9-7.8-11.9-13
			C650.9,884.2,643.2,840.3,700.5,827.6"/>
	</g>
	<g>
		<path class="st0" d="M402.6,809.7c10-6.6,4.4-22.8-4.8-30.4c-9.2-7.6-21.7-12.8-26.2-23.8c-6-14.8,5.1-33.3-3.1-47
			c-6.6-11-22.4-13-30.2-23.1c-9.7-12.6-3.3-32.5-12.5-45.5c-7.3-10.4-23.4-12.4-34-5.4c-10.6,7-15.4,21-13.2,33.5
			c1.8,9.8,7.3,19.1,6.3,28.9c-1.6,15.5-18.6,25.8-20.8,41.2c-4,28.5,43.2,45.8,37.2,73.9c-1.3,6.3-5.3,11.6-7.9,17.4
			c-8,17.3-4.5,38.3,5.3,54.6c9.8,16.3,25,28.7,40.9,39.1c6.5,4.3,13.5,8.4,21.3,8.7c7.3,0.3,14.3-2.9,20.5-6.8
			C421.6,900.1,456.3,857.7,402.6,809.7"/>
	</g>
	<g>
		<g>
			<path class="st5" d="M664.6,845.4c14-6,26.5-17.2,37-27.9c28.1-29,45.5-66.9,54.7-105.9c8.3-35.3,10.1-71.8,8.4-108
				c-0.1-3.1-4.9-3.1-4.8,0c3.9,81.2-12.2,180.8-84.9,230.2c-4.1,2.8-8.3,5.5-12.9,7.5C659.4,842.5,661.8,846.6,664.6,845.4
				L664.6,845.4z"/>
		</g>
		<path class="st5" d="M756.9,697.9c0,0,4.6-26.3,39.4-30.5C796.4,667.4,783.7,698.5,756.9,697.9z"/>
		<path class="st5" d="M745.5,736.8c0,0,10.6-24.5,45.5-20.4C791,716.3,771.4,743.6,745.5,736.8z"/>
		<path class="st5" d="M730.7,771c0,0,15.8-21.5,48.9-9.7C779.6,761.3,754.4,783.5,730.7,771z"/>
		<path class="st5" d="M762.3,657c0,0,4.5-25.9,38.8-29.9C801.1,627.1,788.6,657.7,762.3,657z"/>
		<path class="st5" d="M762.8,612.1c0,0-19.5-17.6-4.8-48.8C758,563.4,777.3,590.2,762.8,612.1z"/>
		<path class="st5" d="M762.9,638.8c0,0-25.8-4.8-29.6-39.1C733.3,599.7,763.8,612.5,762.9,638.8z"/>
		<path class="st5" d="M760.3,678.2c0,0-25.8-4.8-29.6-39.1C730.7,639.1,761.2,651.9,760.3,678.2z"/>
		<path class="st5" d="M753.6,715c0,0-25.4-6.6-26.8-41C726.8,674,756.3,688.9,753.6,715z"/>
		<path class="st5" d="M741.9,751.9c0,0-25.4-6.6-26.8-41C715.1,710.9,744.6,725.7,741.9,751.9z"/>
	</g>
	<g>
		<path class="st6" d="M702.6,937.9H374c-11.7,0-21.1-9.5-21.1-21.1v-685c0-11.7,9.5-21.1,21.1-21.1h328.6
			c11.7,0,21.1,9.5,21.1,21.1v685C723.7,928.5,714.3,937.9,702.6,937.9z"/>
		<path class="st1" d="M691.8,912.2h-307c-8.2,0-14.8-6.6-14.8-14.8V246.9c0-8.2,6.6-14.8,14.8-14.8h307c8.2,0,14.8,6.6,14.8,14.8
			v650.5C706.6,905.6,700,912.2,691.8,912.2z"/>
		<path class="st6" d="M639,232.1h-21.9c-6.7,0-12.2,5.4-12.2,12.2v8.7c0,6.7-5.4,12.2-12.2,12.2h-97.6c-6.7,0-12.2-5.4-12.2-12.2
			v-8.7c0-6.7-5.4-12.2-12.2-12.2h-62.2v-6.2H639V232.1z"/>
		<g>
			<g>
				<g>
					<path class="st5" d="M547.6,336.9c1.4-0.8,2.4-2.3,2.4-4c0-2.5-2-4.5-4.5-4.5c-2.5,0-4.5,2-4.5,4.5c0,1.7,1,3.2,2.4,4
						c-2.9,0.9-5,3.6-5,6.7v3.6h14.1v-3.6C552.6,340.5,550.5,337.8,547.6,336.9z"/>
				</g>
				<g>
					<path class="st4" d="M604,812.5H469c-1.4,0-2.5-1.1-2.5-2.5v-26.4c0-1.4,1.1-2.5,2.5-2.5h135c1.4,0,2.5,1.1,2.5,2.5v26.4
						C606.6,811.3,605.4,812.5,604,812.5z"/>
				</g>
				<g>
					<path class="st7" d="M670.9,464.7H420.2c-1.5,0-2.8-1.2-2.8-2.8v-33.1c0-1.5,1.2-2.8,2.8-2.8h250.7c1.5,0,2.8,1.2,2.8,2.8v33.1
						C673.6,463.4,672.4,464.7,670.9,464.7z"/>
				</g>
				<g>
					<g>
						<g>
							<path class="st7" d="M670.9,550.9H420.2c-1.5,0-2.8-1.2-2.8-2.8v-33.1c0-1.5,1.2-2.8,2.8-2.8h250.7c1.5,0,2.8,1.2,2.8,2.8
								v33.1C673.6,549.7,672.4,550.9,670.9,550.9z"/>
						</g>
					</g>
				</g>
				<g>
					<g>
						<g>
							<path class="st7" d="M670.9,641.7H420.2c-1.5,0-2.8-1.2-2.8-2.8v-33.1c0-1.5,1.2-2.8,2.8-2.8h250.7c1.5,0,2.8,1.2,2.8,2.8
								v33.1C673.6,640.4,672.4,641.7,670.9,641.7z"/>
						</g>
					</g>
				</g>
				<g>
					<g>
						<g>
							<path class="st7" d="M670.9,732.9H420.2c-1.5,0-2.8-1.2-2.8-2.8V697c0-1.5,1.2-2.8,2.8-2.8h250.7c1.5,0,2.8,1.2,2.8,2.8v33.1
								C673.6,731.6,672.4,732.9,670.9,732.9z"/>
						</g>
					</g>
				</g>
			</g>
			<line class="st8" x1="534.3" y1="436.5" x2="534.3" y2="450.1"/>
		</g>
	</g>
</g>
<rect x="417.4" y="405.7" class="st9" width="99.4" height="6"/>
<rect x="495.8" y="360.5" class="st6" width="99.4" height="6"/>
<rect x="487.3" y="793.8" class="st1" width="99.4" height="6"/>
<rect x="430.1" y="442.4" class="st9" width="99.4" height="6"/>
<rect x="417.4" y="584.7" class="st9" width="99.4" height="6"/>
<rect x="417.4" y="494.2" class="st9" width="68.6" height="6"/>
<rect x="417.4" y="675.2" class="st9" width="68.6" height="6"/>
<g>
	<g>
		<path class="st6" d="M130.3,909.2c0,0-16.6,23.3-14.3,27c2.3,3.7,19.7,4.2,30.4,0c10.6-4.2,10.9-31.6,15.7-43.3
			c2-4.9-2.3-19.4-8.4-20.5c-6.1-1.1-12.7,2-12.7,2S147.3,891,130.3,909.2z"/>
	</g>
	<g>
		<g>
			<path class="st10" d="M140.9,874.2c0,0-3.5,9.9-4.8,19.4c-1.1,7.9-11.8,24.6-11.3,26.7c0.5,2.1,14.2,4,19.7-1.4
				c5.6-5.4,9.2-21.3,10.4-30.8c1.1-8.8,2.6-13.2,2.6-13.2S146.3,868.4,140.9,874.2z"/>
		</g>
	</g>
	<g>
		<path class="st6" d="M274.9,909.6c0,0-16,23-13.7,26.7c2.3,3.7,19.7,4.2,30.4,0c10.6-4.2,10.9-31.6,15.7-43.3
			c2-4.9-2.3-19.4-8.4-20.5c-6.1-1.1-13.2,2.3-13.2,2.3S291.9,891.4,274.9,909.6z"/>
	</g>
	<g>
		<g>
			<path class="st10" d="M285.7,874.6c0,0-1.3,10.8-3.3,18.5c-2,7.7-12.9,25.1-12.4,27.2c0.5,2.1,14.2,4,19.8-1.4
				c5.6-5.4,9.9-21.2,10.4-30.8c0.5-9.6-1.3-15.8-1.3-15.8S291.1,868.8,285.7,874.6z"/>
		</g>
	</g>
	<g>
		<g>
			<path class="st10" d="M205.7,494.7c0,0-14.3,69.2-17.5,86.6c-3.3,17.4-12.4,101.8-13.4,116.2c-1,14.3-14.9,68.4-14.2,73.5
				c0.7,5.1-20.6,108.1-20.6,108.1s7.3,6.1,14.9,0.6c3.9-2.9,46.6-96.4,46.6-122c0-35.4,25.1-81.7,28.3-89.6
				c30.1-73.6,24.2-96.1,28.1-100.9c3.9-4.8,4.3,3,6.6,13.5c2.3,10.6,7.2,102.2,10.1,113.8c2.9,11.6,0.7,50.9,2.3,70.7
				c1.6,19.8,8.8,109.5,8.8,109.5s5.6,9.1,13.4,0.2c1.7-1.9,13.5-99.9,13.8-123.4c0.3-23.6,0.7-56.1,1.3-66.3
				c6.1-97.7,21-111.6-2.5-180.8C267.8,374.9,205.7,494.7,205.7,494.7z"/>
		</g>
	</g>
	<g>
		<path class="st6" d="M301.5,475.3c0,0,40.6,59.3,23.1,185.5c0,0-96.3,13.7-147.9-15.8c0,0,21.3-130.1,29.1-150.3
			C213.5,474.4,301.5,475.3,301.5,475.3z"/>
	</g>
	<g>
		<polygon class="st6" points="162.5,890.8 162.5,915.3 159.5,915.3 159.5,896.4 		"/>
	</g>
	<g>
		<polygon class="st6" points="307.7,890.8 307.7,915.3 304.7,915.3 304.7,896.4 		"/>
	</g>
	<path class="st10" d="M253.3,212.3c0,0-27.2,27.4-17.9,62.7c9.3,35.3,24.1,35.5,40.6,20.3c16.4-15.2,26.1-31.1,28.2-48.9
		C306.3,228.7,278.1,187.9,253.3,212.3z"/>
	<path class="st10" d="M248,330c0,0,4-9.2,6.9-19.6c0.5-1.8,1-3.7,1.4-5.6c1.4-6.5,2-13,0.5-17.4c-4.3-12.8,27.2-3.9,27.2-3.9
		s-6.1,33.9,0,45.3C290,340.2,248,330,248,330z"/>
	<path class="st1" d="M327.9,346.1c-5-9.9-8.7-13.1-18.3-16.1c-5.4-1.7-29.4-7.9-29.4-7.9l-28.8-1.1c0,0-19.8,3.3-35.2,8.6
		c-15.4,5.3-35.5,34.4-35.5,34.4s27.8,65.2,33.1,84c5.3,18.7,1.8,47.7,1.8,47.7c33.3,18.1,86.7-1.8,86.7-1.8
		c-4.1-14.6-4.2-31.7-2.1-43.8c0.3-1.4,0.5-2.8,0.8-4.1c0.3-1.2,0.7-2.8,1.1-4.7c0-0.1,0-0.2,0.1-0.3c21.2,2.2,41.1,3,41.6-1.2
		C346.2,420.8,334.7,359.8,327.9,346.1z M313.2,420.5c-0.9-0.1-2.7-0.1-4.6-0.3c2.4-6.6,5-12.4,5-12.4
		C315.1,412,320.8,421.7,313.2,420.5z"/>
	<path class="st6" d="M262.2,232c0,0,13,23.7,21.1,32.1c8.1,8.5,7.1,15.2,7.1,15.2s31.5-38.9,9-62.3c-22.5-23.5-51.4-14-59.9,6.5
		c-8.5,20.5-5.4,45.5-5.4,45.5S234.4,245,262.2,232z"/>
	<path class="st6" d="M270.8,207.3c0,0-3.1-17.3,24-24.2c27.2-6.9,39.4,24.4,36,43.5c-3.3,19.1-26.6,67.5-14,73.8
		c12.6,6.3,17.5-7.3,17.5-7.3s-3.9,23.8-21.4,18.3c-17.5-5.5-15.2-44.2-12.5-59.6C303,236.3,270.8,207.3,270.8,207.3z"/>
	<path class="st11" d="M279.5,291.9c-0.1,0.2-7,16-24.7,18.5c0.5-1.8,1-3.7,1.4-5.6C256.2,304.8,265.9,306.8,279.5,291.9z"/>
	<path class="st12" d="M313.2,408.1c0,0-1.3,2.7-4.8,13.5c-3.6-30.2-1.7-46-1.7-46C307,391.8,313.2,408.1,313.2,408.1z"/>
	<path class="st13" d="M275,203.6c0,0,19.3,3.7,28.9,19.4c0,0-1.9-14.2-11.5-18.3C282.7,200.6,275,203.6,275,203.6z"/>
	<path class="st12" d="M302.3,441.4c-0.5,1.9-0.9,3.5-1.1,4.7c-0.3,1.3-0.6,2.6-0.8,4.1c-11.9-6.5-20.5-11.6-20.5-11.6
		C283,439.3,302.3,441.4,302.3,441.4z"/>
	<path class="st10" d="M281.9,322.5L248,350.1l3.5-29.1C251.5,321,271.3,316.7,281.9,322.5z"/>
	<polygon class="st14" points="257.8,345.4 248,350.1 281.3,317.1 	"/>
	<path class="st15" d="M304.3,439c-4.7,19.3,12.6,62.9,12.6,62.9l-34.2,10.7c-4.9,1.5-10.1-1.5-11.2-6.5
		c-4.6-21.3-15.3-73.7-16.6-102.9c-1.6-37.2,25.4-81.1,25.4-81.1c48.1,8.3,34.9,81.1,34.9,81.1s-1.7,4.6-4.1,11.8c0,0,0,0,0,0
		c-0.6,1.8-1.2,3.8-1.9,5.9C307.6,426.2,305.9,432.4,304.3,439z"/>
	<path class="st15" d="M248.1,322.6l0.6-1.6c0,0-24.7,3.7-37.2,10c-12.5,6.3-36.5,38.6-36.5,38.6l31.4,41.4
		c0,31.8-5.1,88.4-5.1,88.4l14.3,8.3c3.9,2.2,8.7-0.5,8.8-5c0.4-21.5,1.4-72.6,1.9-97.4c0.7-31.8,23.4-83.3,23.4-83.3
		C249.1,322.2,248.6,322.4,248.1,322.6z"/>
	<path class="st10" d="M203.4,471.8c0,0,23.7,0.9,27.3,0c3.7-0.9,28.2-11.6,29.7-22.1c1.5-10.5-57,9.4-57,9.4V471.8z"/>
	<polygon class="st14" points="276.8,439 180.8,427.8 224.1,463 	"/>
	<polygon class="st6" points="224.1,463 276.8,445.1 276.8,439 222.4,456.4 	"/>
	<g>
		<path class="st10" d="M248.9,421.4c0,0-7.9,0-12.4-0.9c-3.4-0.7-12,0.3-14.2,2.2c-2.2,1.9-9.1,15.4-10.4,16.2
			c-1.3,0.8,0.7,2.7,3,1.8c0,0,2.1,5.9,7.3,3.7c5.2-2.2,8.8-7,11.5-7.9c2.7-0.8,18.6-5.1,18.6-5.1S253,419.9,248.9,421.4z"/>
	</g>
	<polygon class="st1" points="253.3,315.6 235,344.6 226.2,350.1 246.8,321.3 	"/>
	<polygon class="st14" points="235,344.6 248,350.1 251.5,321 253.3,315.6 	"/>
	<path class="st15" d="M206.3,458.3c0,0-1,12.2,0,14.8c0,0-59.2-5.9-64.7-14.2c-5.5-8.3-5.3-18.3-5.3-18.3L206.3,458.3z"/>
	<polygon class="st6" points="224.1,463 196.1,359 89.7,347.7 118.9,443.5 	"/>
	<polygon class="st1" points="281.3,317.1 257.8,345.4 270.6,356.9 284.5,323 	"/>
	<path class="st16" d="M311.9,412.5c0,0-0.8,2.4-0.8,2.4c-0.6,1.8-1.2,3.8-1.9,5.9c-4.5,1.4-43.9-1.5-43.9-1.5
		S298.3,411.6,311.9,412.5z"/>
	<path class="st15" d="M309.7,420c-6.3-0.5-16.7-1.2-25.2-1.2c-13.2-0.1-35.8,1.4-35.8,1.4l2.7,14.1c0,0,40,6.5,61.9,8v0
		c0,0,28.8,3.3,31-1c2.1-4.3-0.7-31.9-5.4-56.8c-4.7-24.9-9.5-39.2-15.3-46.9c-5.7-7.7-36-13.7-36-13.7l25.7,84.1
		c0,0,3.7,7.5,3.5,10.7c-0.1,1-0.7,1.5-1.7,1.6c-0.6-0.1-2.1-0.2-4-0.3L309.7,420z"/>
</g>
</svg>
