<?xml version="1.0" encoding="utf-8"?>
<!-- Generator: Adobe Illustrator 19.2.0, SVG Export Plug-In . SVG Version: 6.00 Build 0)  -->
<svg version="1.1" id="Objects" xmlns="http://www.w3.org/2000/svg" xmlns:xlink="http://www.w3.org/1999/xlink" x="0px" y="0px"
	 viewBox="0 0 375.5 272.6" style="enable-background:new 0 0 375.5 272.6;" xml:space="preserve">
<style type="text/css">
	.st0{fill:#DFFFD9;}
	.st1{fill:#C1F2B6;}
	.st2{fill:#FFFFFF;}
	.st3{fill:#FFEDE5;}
	.st4{fill:#FFE0D7;}
	.st5{fill:#C2C2C2;}
	.st6{opacity:0.2;fill:#00E7ED;}
	.st7{fill:#D1D1D1;}
	.st8{opacity:0.2;fill:#00EA7A;}
	.st9{fill:#E9E9E9;}
	.st10{opacity:5.000000e-02;}
	.st11{opacity:0.1;}
	.st12{fill:#E3E3E3;}
	.st13{fill:#E7E7E7;}
	.st14{opacity:0.1;fill:#FFFFFF;}
	.st15{fill:#EDEDED;}
	.st16{fill:#888888;}
	.st17{fill:#404040;}
	.st18{fill:#656565;}
	.st19{fill:#181919;}
	.st20{opacity:0.5;fill:none;stroke:#00E7ED;stroke-width:0.4318;stroke-miterlimit:10;}
	.st21{opacity:0.3;fill:url(#SVGID_1_);}
	.st22{opacity:0.2;fill:#FFFFFF;}
</style>
<g>
	<g>
		<rect x="34.4" y="38" class="st0" width="88.9" height="62.4"/>
		<circle class="st1" cx="117.8" cy="43.5" r="3.3"/>
		<circle class="st1" cx="109.2" cy="43.5" r="3.3"/>
		<rect x="107.2" y="42.9" class="st2" width="4.1" height="1.1"/>
		
			<rect x="115.7" y="42.9" transform="matrix(0.7071 0.7071 -0.7071 0.7071 65.244 -70.5283)" class="st2" width="4.1" height="1.1"/>
		
			<rect x="115.7" y="42.9" transform="matrix(0.7071 -0.7071 0.7071 0.7071 3.7375 96.0074)" class="st2" width="4.1" height="1.1"/>
		<rect x="38" y="42.2" class="st1" width="39.8" height="3.7"/>
		<rect x="38" y="85.6" class="st1" width="39.8" height="3.7"/>
		<rect x="39.1" y="52.9" class="st1" width="23.6" height="25.5"/>
		<rect x="66.8" y="52.9" class="st1" width="24.7" height="1.9"/>
		<rect x="66.8" y="58.6" class="st1" width="24.7" height="1.9"/>
		<rect x="66.8" y="64.2" class="st1" width="24.7" height="1.9"/>
		<rect x="66.8" y="69.9" class="st1" width="20.3" height="1.9"/>
	</g>
	<g>
		<rect x="292.6" y="4.7" class="st0" width="78.5" height="55.1"/>
		<circle class="st1" cx="366.1" cy="9.5" r="2.9"/>
		<circle class="st1" cx="358.6" cy="9.5" r="2.9"/>
		<rect x="356.8" y="9" class="st2" width="3.6" height="1"/>
		<rect x="364.3" y="9" transform="matrix(0.7071 0.7071 -0.7071 0.7071 113.9618 -256.067)" class="st2" width="3.6" height="1"/>
		<rect x="364.3" y="9" transform="matrix(0.7071 -0.7071 0.7071 0.7071 100.4786 261.6447)" class="st2" width="3.6" height="1"/>
		<rect x="295.7" y="8.4" class="st1" width="35.1" height="3.3"/>
		<rect x="295.7" y="46.7" class="st1" width="35.1" height="3.3"/>
		<rect x="296.7" y="17.9" class="st1" width="20.8" height="22.5"/>
		<rect x="321.1" y="17.9" class="st1" width="21.8" height="1.7"/>
		<rect x="321.1" y="22.9" class="st1" width="21.8" height="1.7"/>
		<rect x="321.1" y="27.8" class="st1" width="21.8" height="1.7"/>
		<rect x="321.1" y="32.8" class="st1" width="17.9" height="1.7"/>
	</g>
	<g>
		<rect x="167.3" y="96.7" class="st0" width="124.1" height="87.2"/>
		<circle class="st3" cx="283.6" cy="104.4" r="4.6"/>
		<circle class="st3" cx="271.7" cy="104.4" r="4.6"/>
		<rect x="268.9" y="103.6" class="st4" width="5.7" height="1.6"/>
		
			<rect x="280.8" y="103.6" transform="matrix(0.7071 0.7071 -0.7071 0.7071 156.8736 -169.9807)" class="st4" width="5.7" height="1.6"/>
		
			<rect x="280.8" y="103.6" transform="matrix(0.7071 -0.7071 0.7071 0.7071 9.2679 231.1205)" class="st4" width="5.7" height="1.6"/>
		<rect x="172.2" y="102.6" class="st1" width="55.6" height="5.2"/>
		<rect x="172.2" y="163.1" class="st1" width="55.6" height="5.2"/>
		<rect x="173.8" y="117.6" class="st1" width="33" height="35.6"/>
		<rect x="212.5" y="117.6" class="st1" width="34.6" height="2.7"/>
		<rect x="212.5" y="125.5" class="st1" width="34.6" height="2.7"/>
		<rect x="212.5" y="133.3" class="st1" width="34.6" height="2.7"/>
		<rect x="212.5" y="141.2" class="st1" width="28.3" height="2.7"/>
	</g>
	<path class="st5" d="M119.8,168l-11.4-12.8c-1.2-1.3-1-3.3,0.3-4.4l0,0c1.3-1.2,3.3-1,4.4,0.3l11.4,12.8c1.2,1.3,1,3.3-0.3,4.4l0,0
		C122.9,169.4,120.9,169.3,119.8,168z"/>
	<path class="st6" d="M121.2,166.5l-11.4-12.8c-0.8-0.9-1-2.3-0.5-3.4c-0.3,0.1-0.5,0.3-0.7,0.5c-1.3,1.2-1.4,3.1-0.3,4.4l11.4,12.8
		c1.2,1.3,3.1,1.4,4.4,0.3c0.3-0.3,0.6-0.7,0.8-1.1C123.7,167.8,122.2,167.5,121.2,166.5z"/>
	<path class="st5" d="M103.7,149.2l7.2,0.7c1.7,0.2,3,1.7,2.8,3.4l-0.2,2c-0.1,0.6-0.6,1.1-1.2,1l-9.2-1c-1.7-0.2-3-1.7-2.8-3.4l0,0
		C100.5,150.2,102,149,103.7,149.2z"/>
	<path class="st5" d="M106.2,152.8l-0.9,8.3c-0.2,1.7-1.7,3-3.5,2.8l0,0c-1.7-0.2-3-1.7-2.8-3.5l0.9-8.3c0.2-1.7,1.7-3,3.5-2.8l0,0
		C105.1,149.5,106.4,151.1,106.2,152.8z"/>
	<path class="st7" d="M119.8,158.5l-11.4-12.8c-1.2-1.3-1-3.3,0.3-4.4l0,0c1.3-1.2,3.3-1,4.4,0.3l11.4,12.8c1.2,1.3,1,3.3-0.3,4.4
		l0,0C122.9,159.9,120.9,159.8,119.8,158.5z"/>
	<path class="st8" d="M120.9,156.1l-11.4-12.8c-0.5-0.6-0.8-1.4-0.8-2.1c0,0-0.1,0-0.1,0.1c-1.3,1.2-1.4,3.1-0.3,4.4l11.4,12.8
		c1.2,1.3,3.1,1.4,4.4,0.3c0.7-0.6,1-1.5,1-2.3C123.9,157.5,122,157.4,120.9,156.1z"/>
	<path class="st7" d="M103.4,139.8l7.2,0.7c1.7,0.2,3,1.7,2.8,3.4l0,0c-0.2,1.7-1.7,3-3.4,2.8l-7.2-0.7c-1.7-0.2-3-1.7-2.8-3.4l0,0
		C100.2,140.9,101.7,139.6,103.4,139.8z"/>
	<path class="st8" d="M101.1,160.4l0.9-8.3c0.1-1.2,1-2.2,2-2.6c-0.2-0.1-0.4-0.1-0.7-0.2c-1.7-0.2-3.3,1-3.5,2.8l-0.9,8.3
		c-0.2,1.7,1,3.3,2.8,3.5c0.5,0.1,1,0,1.4-0.2C101.9,163.2,101,161.8,101.1,160.4z"/>
	<path class="st7" d="M106.2,143.3l-0.9,8.3c-0.2,1.7-1.7,3-3.5,2.8l0,0c-1.7-0.2-3-1.7-2.8-3.5l0.9-8.3c0.2-1.7,1.7-3,3.5-2.8l0,0
		C105.1,140,106.4,141.6,106.2,143.3z"/>
	<path class="st8" d="M101.1,150.9l0.9-8.3c0.1-1.2,1-2.2,2-2.6c-0.2-0.1-0.4-0.1-0.7-0.2c-1.7-0.2-3.3,1-3.5,2.8l-0.9,8.3
		c-0.2,1.7,1,3.3,2.8,3.5c0.5,0.1,1,0,1.4-0.2C101.9,153.7,101,152.3,101.1,150.9z"/>
	<path class="st5" d="M126,148.3l-9-14.6c-0.9-1.5-0.5-3.4,1-4.3l0,0c1.5-0.9,3.4-0.5,4.3,1l9,14.6c0.9,1.5,0.5,3.4-1,4.3l0,0
		C128.8,150.3,126.9,149.8,126,148.3z"/>
	<path class="st5" d="M123.9,153.7L112.5,141c-1.2-1.3-1-3.3,0.3-4.4h0c1.3-1.2,3.3-1,4.4,0.3l11.4,12.8c1.2,1.3,1,3.3-0.3,4.4l0,0
		C127,155.1,125,155,123.9,153.7z"/>
	<path class="st8" d="M126.7,152.9l-11.4-12.8c-1.1-1.2-1-3.1,0.1-4.3c-0.9-0.2-1.9,0-2.7,0.7c-1.3,1.2-1.4,3.1-0.3,4.4l11.4,12.8
		c1.2,1.3,3.1,1.4,4.4,0.3c0,0,0.1-0.1,0.1-0.1C127.8,153.7,127.2,153.4,126.7,152.9z"/>
	<path class="st5" d="M111.8,125.7l8.6,3.1c1.6,0.6,2.5,2.4,1.9,4l0,0c-0.6,1.6-2.4,2.5-4,1.9l-8.6-3.1c-1.6-0.6-2.5-2.4-1.9-4l0,0
		C108.4,125.9,110.2,125.1,111.8,125.7z"/>
	<path class="st5" d="M107.8,134.9l7.2,0.7c1.7,0.2,3,1.7,2.8,3.4l-0.3,3.1l-10.3-1.1c-1.7-0.2-3-1.7-2.8-3.4l0,0
		C104.6,136,106.1,134.7,107.8,134.9z"/>
	<path class="st5" d="M110.3,138.5l-0.9,8.3c-0.2,1.7-1.7,3-3.5,2.8l0,0c-1.7-0.2-3-1.7-2.8-3.5l0.9-8.3c0.2-1.7,1.7-3,3.5-2.8l0,0
		C109.2,135.2,110.5,136.8,110.3,138.5z"/>
	<path class="st8" d="M108.7,148.5c-1.7-0.2-3-1.7-2.8-3.5l0.9-8.3c0.1-0.6,0.3-1.2,0.7-1.7c-1.7-0.2-3.3,1.1-3.5,2.8l-0.9,8.3
		c-0.2,1.7,1,3.3,2.8,3.5C107,149.7,108,149.2,108.7,148.5C108.7,148.5,108.7,148.5,108.7,148.5z"/>
	<path class="st5" d="M103.6,124.4l7.3,1.1c1.7,0.3,2.9,1.9,2.6,3.6l0,0c-0.3,1.7-1.9,2.9-3.6,2.6l-7.3-1.1
		c-1.7-0.3-2.9-1.9-2.6-3.6l0,0C100.3,125.3,101.9,124.1,103.6,124.4z"/>
	<path class="st8" d="M128.6,146.3l-8.7-14l-7.4-2.7l-7.2-1.1c-1.7-0.3-2.9-1.9-2.6-3.6c0-0.2,0.1-0.4,0.1-0.6
		c-1.4,0.2-2.5,1.2-2.7,2.6c-0.3,1.7,0.9,3.3,2.6,3.6l7.2,1.1l7.4,2.7l8.7,14c0.9,1.5,2.8,1.9,4.3,1h0c0.6-0.4,1.1-1,1.3-1.6
		C130.4,147.9,129.2,147.4,128.6,146.3z"/>
	
		<rect x="197.2" y="179.2" transform="matrix(0.8787 0.4773 -0.4773 0.8787 125.4718 -76.2813)" class="st9" width="31.4" height="59.3"/>
	<polygon class="st10" points="213.2,175.3 212.9,175.9 229,184.6 201.1,236.1 212.5,242.3 240.8,190.3 	"/>
	<polygon class="st8" points="191.2,228.8 218.7,178.2 213.2,175.3 184.9,227.4 212.5,242.3 213.3,240.8 	"/>
	<path class="st11" d="M205.4,238.5c-0.2-0.3-0.5-0.6-0.7-0.9l-5.2-5.8c-2.3-2.5-2.8-6.2-1.2-9.2c1.7-3.4,1-7.5-1.8-10.1l-2.3-2.2
		l-9.2,17L205.4,238.5z"/>
	<path class="st12" d="M143.1,166.8l49.7,46.6c2.8,2.6,3.5,6.7,1.8,10.1l0,0c-1.5,3-1,6.7,1.2,9.2l5.2,5.8c2.3,2.5,3.6,5.8,3.7,9.2
		l-19.7,11L123.8,176L143.1,166.8z"/>
	<path class="st8" d="M192.6,252.7l-59.8-81l-9,4.3l61.1,82.8l19.7-11c0-0.6-0.1-1.1-0.2-1.7L192.6,252.7z"/>
	<path class="st7" d="M187.3,226.3h-20.1c-1.7,0-3.1-1.4-3.1-3.1l0,0c0-1.7,1.4-3.1,3.1-3.1h20.1c1.7,0,3.1,1.4,3.1,3.1l0,0
		C190.5,224.9,189.1,226.3,187.3,226.3z"/>
	<path class="st7" d="M169.5,225.4l-11.1,11.1c-1.2,1.2-3.2,1.2-4.4,0l0,0c-1.2-1.2-1.2-3.2,0-4.4l11.1-11.1c1.2-1.2,3.2-1.2,4.4,0
		l0,0C170.7,222.2,170.7,224.1,169.5,225.4z"/>
	<path class="st8" d="M157.6,236.5c-1.2-1.2-1.2-3.2,0-4.4l11.1-11.1c0.1-0.1,0.3-0.3,0.5-0.4c0.1-0.1,0.2-0.1,0.2-0.1
		c0.1-0.1,0.2-0.1,0.3-0.2c0.1,0,0.2-0.1,0.3-0.1c0.1,0,0.2-0.1,0.3-0.1c0.2,0,0.4-0.1,0.6-0.1h-3.7c-0.2,0-0.4,0-0.6,0.1
		c-0.1,0-0.2,0.1-0.3,0.1c-0.1,0-0.2,0.1-0.3,0.1c-0.1,0-0.2,0.1-0.3,0.2c-0.1,0-0.2,0.1-0.2,0.1c-0.2,0.1-0.3,0.2-0.5,0.4
		L154,232.1c-1.2,1.2-1.2,3.2,0,4.4c1.1,1.1,2.8,1.2,4,0.3C157.9,236.7,157.7,236.6,157.6,236.5z"/>
	<path class="st5" d="M186.9,227.8h-13.4c-1.7,0-3.1-1.4-3.1-3.1l0,0c0-1.7,1.4-3.1,3.1-3.1h13.4c1.7,0,3.1,1.4,3.1,3.1l0,0
		C190,226.4,188.6,227.8,186.9,227.8z"/>
	<path class="st7" d="M188.1,234h-13.4c-1.7,0-3.1-1.4-3.1-3.1l0,0c0-1.7,1.4-3.1,3.1-3.1h13.4c1.7,0,3.1,1.4,3.1,3.1l0,0
		C191.2,232.6,189.8,234,188.1,234z"/>
	<path class="st5" d="M175.7,226.9L164.6,238c-1.2,1.2-3.2,1.2-4.4,0l0,0c-1.2-1.2-1.2-3.2,0-4.4l11.1-11.1c1.2-1.2,3.2-1.2,4.4,0
		l0,0C177,223.7,177,225.7,175.7,226.9z"/>
	<path class="st8" d="M163.5,238c-1.2-1.2-1.2-3.2,0-4.4l11.1-11.1c0.6-0.6,1.4-0.9,2.2-0.9c0,0,0,0,0,0h-3.3c0,0,0,0,0,0
		c-0.8,0-1.6,0.3-2.2,0.9l-11.1,11.1c-1.2,1.2-1.2,3.2,0,4.4c1,1,2.6,1.2,3.8,0.5C163.8,238.4,163.6,238.2,163.5,238z"/>
	<polygon class="st13" points="335.3,243.7 238.5,243.7 238.5,184.1 348.3,184.1 335.3,223.2 	"/>
	<path class="st11" d="M225.2,181.8L225.2,181.8l-12-6.5l-3.6,6.6c2.4,7.2,8.2,12.7,15.6,14.7v6.3c0,3.7,1.2,7.2,3.3,10l12.3-22.7
		L225.2,181.8z"/>
	<circle class="st12" cx="235.1" cy="171.1" r="22.5"/>
	<circle class="st14" cx="229.4" cy="163" r="8.4"/>
	<path class="st8" d="M238.3,189.9c-12.4,0-22.5-10.1-22.5-22.5c0-4.8,1.5-9.2,4-12.8c-4.5,4.1-7.3,10-7.3,16.6
		c0,12.4,10.1,22.5,22.5,22.5c7.7,0,14.4-3.8,18.5-9.7C249.6,187.6,244.2,189.9,238.3,189.9z"/>
	<path class="st10" d="M235.1,183.3c-10.7,0-19.6-7.4-21.9-17.3c-0.4,1.7-0.6,3.4-0.6,5.2c0,12.4,10.1,22.5,22.5,22.5
		c12.4,0,22.5-10.1,22.5-22.5c0-1.8-0.2-3.5-0.6-5.2C254.6,175.9,245.7,183.3,235.1,183.3z"/>
	<path class="st11" d="M345.7,184.1H238.5v35.3c0.4,0.2,0.8,0.3,1.2,0.4l0,0c23.3,7.4,48.1,8.6,72,3.5l4.4-0.9
		c17.3-3.7,29.6-19,29.6-36.7V184.1z"/>
	<path class="st15" d="M316.1,219.6l-4.4,0.9c-23.9,5.1-48.7,3.9-72-3.5h0c-7.1-2.3-11.9-8.8-11.9-16.2v-31.9
		c0-15.8,12.8-28.6,28.6-28.6h63.2c14.4,0,26.1,11.7,26.1,26.1v16.5C345.7,200.6,333.3,215.9,316.1,219.6z"/>
	<path class="st10" d="M319.6,140.3h-17.3l-14.1,8.3h50.5C333.9,143.5,327.1,140.3,319.6,140.3z"/>
	<g class="st10">
		<path d="M263.7,222.6c-6-45.8,15.7-76.1,15.9-76.4l1.4,1c-0.2,0.3-21.5,30.1-15.6,75.2L263.7,222.6z"/>
	</g>
	<rect x="289.4" y="187.9" class="st16" width="20.2" height="3.7"/>
	<rect x="289.4" y="193.6" class="st16" width="20.2" height="6.8"/>
	<path class="st10" d="M330.4,142.6c0.9,2.7,1.5,5.6,1.5,8.6v16.5c0,17.7-12.3,33-29.6,36.7l-4.4,0.9c-23.2,5-47.3,4-70-2.9
		c0.7,6.7,5.3,12.4,11.8,14.5h0c23.3,7.4,48.1,8.6,72,3.5l4.4-0.9c17.3-3.7,29.6-19,29.6-36.7v-16.5
		C345.7,155.8,339.4,146.8,330.4,142.6z"/>
	<path class="st8" d="M244.3,217L244.3,217c-7.1-2.3-11.9-8.8-11.9-16.2v-31.9c0-15.8,12.8-28.6,28.6-28.6h-4.6
		c-15.8,0-28.6,12.8-28.6,28.6v31.9c0,7.4,4.8,14,11.9,16.2h0c14.6,4.6,29.7,6.9,44.9,6.6C271,223.4,257.4,221.2,244.3,217z"/>
	<path class="st7" d="M296.7,148.6h-23.9c-4.5,0-8.1-3.6-8.1-8.1v-22.7h40.1v22.7C304.8,145,301.2,148.6,296.7,148.6z"/>
	<path class="st10" d="M296.3,117.8v22.7c0,4.5-3.6,8.1-8.1,8.1h8.5c4.5,0,8.1-3.6,8.1-8.1v-22.7H296.3z"/>
	<path class="st8" d="M267.3,140.5v-22.7h-2.6v22.7c0,4.5,3.6,8.1,8.1,8.1h2.6C271,148.6,267.3,145,267.3,140.5z"/>
	<path class="st17" d="M252.8,81.6c0,0-3.8-27.2,1.2-38.4c5-11.2,21.2-14.9,33.8-13.9s-6.1-6-6.1-6s-28.2-2.1-37.9,19.9
		c-7.5,17-3.5,41.6-3.5,41.6L252.8,81.6z"/>
	<g>
		<path class="st17" d="M261.3,87c0-7.3-4.1-13.4-9.6-15.3v-0.6h-3.5c-7.2,0-13.1,7.1-13.1,15.8s5.9,15.8,13.1,15.8h3.5v-0.6
			C257.2,100.4,261.3,94.3,261.3,87z"/>
		<ellipse class="st18" cx="251.6" cy="87" rx="13.1" ry="15.8"/>
	</g>
	<path class="st11" d="M264.7,131.6c0.2,0,0.5,0,0.7,0h12.5c10.2,0,19.5-3.5,26.9-9.3v-4.5h-40.1V131.6z"/>
	<path class="st15" d="M277.9,128.4h-12.5c-12.9,0-23.3-10.4-23.3-23.3V68.3c0-21.9,17.8-39.7,39.7-39.7h0
		c21.9,0,39.7,17.8,39.7,39.7v16.6C321.5,108.9,302,128.4,277.9,128.4z"/>
	<path class="st17" d="M280.3,100.4h-22.4v1.8c0,6.2,5,11.2,11.2,11.2h0c6.2,0,11.2-5,11.2-11.2V100.4z"/>
	<path class="st10" d="M296.5,56.1c-2.3,13.4,2.9,28.5-1.6,33.9c-4.4,5.4,1,14.9-2.9,25.4c-2.1,5.8-6.7,10.1-10.4,12.9
		c22.3-1.9,39.8-20.6,39.8-43.4V68.3c0-10.1-3.7-19.2-9.9-26.2C306,43.7,298,47.5,296.5,56.1z"/>
	<path class="st16" d="M280.3,120.9h-22.4v6.3c2.3,0.8,4.9,1.2,7.5,1.2h12.5c0.8,0,1.6,0,2.4-0.1V120.9z"/>
	<path class="st10" d="M294.4,30.6c12,6.8,20.1,19.7,20.1,34.5v16.6c0,24.1-19.5,43.6-43.6,43.6h-12.5c-2,0-4-0.3-5.9-0.8
		c3.7,2.5,8.1,3.9,12.9,3.9h12.5c24.1,0,43.6-19.5,43.6-43.6V68.3C321.5,50.7,310.2,35.9,294.4,30.6z"/>
	<path class="st8" d="M245,105.1V68.3c0-21.4,17-38.9,38.2-39.7c-0.5,0-1,0-1.5,0l0,0c-21.9,0-39.7,17.8-39.7,39.7v36.8
		c0,12.9,10.4,23.3,23.3,23.3h3C255.5,128.4,245,118,245,105.1z"/>
	<path class="st16" d="M281.8,28.6L281.8,28.6c-3.9,0-7.7,0.6-11.3,1.6c-7.9,6.9-12.6,17-12.6,27.7h21.9c0-10.8,4.8-20.9,12.8-27.9
		C289.1,29.1,285.5,28.6,281.8,28.6z"/>
	<path class="st11" d="M321.5,73.5c-1.2-0.4-2.4-0.7-3.7-0.7h-3.5c-7.2,0-13.1,7.1-13.1,15.8c0,8.7,5.9,15.8,13.1,15.8h2.5
		c3-5.9,4.7-12.6,4.7-19.6V73.5z"/>
	<path class="st11" d="M314.3,98.2c-0.5-0.5-1.3-0.5-1.8,0l-13.1,13.1c-1,1-2.3,1.5-3.6,1.5h-6.5c-0.5-1.2-1.6-2-3-2
		c-0.2,0-0.4,0-0.6,0.1c-0.2,0-0.4-0.1-0.6-0.1h-6.6c-1.8,0-3.2,1.4-3.2,3.2c0,1.8,1.4,3.2,3.2,3.2h6.6c0.2,0,0.4,0,0.6-0.1
		c0.2,0,0.4,0.1,0.6,0.1c1.3,0,2.4-0.8,2.9-1.9h6.6c2,0,4-0.8,5.5-2.3l13.1-13.1C314.8,99.5,314.8,98.7,314.3,98.2z"/>
	<path class="st17" d="M327.4,87c0-7.3-4.1-13.4-9.6-15.3v-0.6h-3.5c-7.2,0-13.1,7.1-13.1,15.8s5.9,15.8,13.1,15.8h3.5v-0.6
		C323.4,100.4,327.4,94.3,327.4,87z"/>
	<ellipse class="st18" cx="317.8" cy="87" rx="13.1" ry="15.8"/>
	<path class="st17" d="M321.5,84.8c-7-1.8-11.7-8.3-11.3-15.5c0.5-8.7,0.4-19.9-2.4-26.1c-5-11.2-21.2-14.9-33.8-13.9
		c-12.6,0.9,7.8-6,7.8-6s28.9,0,36.3,19.9C324.5,60.7,321.5,84.8,321.5,84.8L321.5,84.8z"/>
	<path class="st19" d="M326.5,87c0-4.5-2.3-8.3-5.6-9.8v-0.7h-3c-4.8,0-8.6,4.7-8.6,10.4c0,5.8,3.9,10.4,8.6,10.4h3v-0.7
		C324.2,95.3,326.5,91.5,326.5,87z"/>
	<ellipse class="st17" cx="320.9" cy="87" rx="8.6" ry="10.4"/>
	<path class="st11" d="M326.8,79.3c1.2,1.8,1.9,4,1.9,6.5c0,5.8-3.9,10.4-8.6,10.4c-2.3,0-4.3-1.1-5.9-2.8c1.6,2.4,4,4,6.8,4
		c4.8,0,8.6-4.7,8.6-10.4C329.6,84,328.5,81.2,326.8,79.3z"/>
	<path class="st18" d="M285.1,112.7h-6.6c-1.8,0-3.2-1.4-3.2-3.2l0,0c0-1.8,1.4-3.2,3.2-3.2h6.6c1.8,0,3.2,1.4,3.2,3.2l0,0
		C288.3,111.2,286.8,112.7,285.1,112.7z"/>
	<path class="st17" d="M286.2,112.7L286.2,112.7c-1.8,0-3.2-1.4-3.2-3.2l0,0c0-1.8,1.4-3.2,3.2-3.2l0,0c1.8,0,3.2,1.4,3.2,3.2l0,0
		C289.5,111.2,288,112.7,286.2,112.7z"/>
	<g>
		<path class="st18" d="M295.7,110.8h-8.3c-0.7,0-1.3-0.6-1.3-1.3s0.6-1.3,1.3-1.3h8.3c1.4,0,2.7-0.5,3.6-1.5l13.1-13.1
			c0.5-0.5,1.3-0.5,1.8,0c0.5,0.5,0.5,1.3,0,1.8l-13.1,13.1C299.8,110,297.8,110.8,295.7,110.8z"/>
	</g>
	<polygon class="st11" points="335.3,225.1 335.3,223.2 345.8,191.7 331.6,184.1 321.9,184.1 296.5,230.9 320.2,243.7 325.2,243.7 	
		"/>
	
		<rect x="305" y="180.5" transform="matrix(0.8787 0.4773 -0.4773 0.8787 138.8376 -127.6867)" class="st9" width="31.4" height="57.9"/>
	
		<rect x="324.7" y="189.2" transform="matrix(0.8787 0.4773 -0.4773 0.8787 134.1502 -134.1656)" class="st16" width="12.8" height="15.5"/>
	<polygon class="st10" points="320.8,176.5 319.8,178.3 337.2,187.8 310.6,236.8 320.7,242.3 348.3,191.5 	"/>
	<polygon class="st8" points="298.7,229.9 326.2,179.4 320.8,176.5 293.1,227.4 320.7,242.3 320.9,242 	"/>
	<path class="st11" d="M317,183.3c3.5,8,11.4,13.6,20.7,13.6c3,0,5.9-0.6,8.6-1.7l2.1-3.8l-27.6-15L317,183.3z"/>
	<circle class="st12" cx="339" cy="171.1" r="22.5"/>
	<path class="st8" d="M321.9,171.1c0-11.5,8.7-21,19.8-22.4c-0.9-0.1-1.8-0.2-2.7-0.2c-12.4,0-22.5,10.1-22.5,22.5
		c0,12.4,10.1,22.5,22.5,22.5c0.9,0,1.8-0.1,2.7-0.2C330.5,192.1,321.9,182.6,321.9,171.1z"/>
	<path class="st11" d="M311,228.3c-3.4,0-6.5-2.1-7.7-5.3c-0.9-2.4-2.8-4.2-5.1-5l-5,9.3l25.6,13.9h2.5l5.6-10.4
		c-2.4-1.7-5.2-2.6-8.1-2.6H311z"/>
	<path class="st12" d="M223.1,225.6l67.9-5.5c3.8-0.3,7.3,1.9,8.6,5.4l0,0c1.2,3.2,4.3,5.3,7.7,5.3h7.8c3.4,0,6.7,1.2,9.3,3.5
		l10.9,9.5H223.1V225.6z"/>
	<polygon class="st10" points="223.1,235 223.1,243.7 335.3,243.7 325.3,235 	"/>
	<polygon class="st16" points="223.1,225.6 187.3,220 187.4,234.1 205.2,243.7 223.1,243.7 	"/>
	<path class="st7" d="M177.8,231.8l-2.7,9c-0.5,1.7-2.2,2.6-3.9,2.1l0,0c-1.7-0.5-2.6-2.2-2.1-3.9l2.7-9c0.5-1.7,2.2-2.6,3.9-2.1
		l0,0C177.3,228.4,178.3,230.1,177.8,231.8z"/>
	<path class="st8" d="M171.7,239l2.6-8.5c0.2-1.4,1.3-2.6,2.7-2.7c0.1,0,0.1,0,0.2,0c0.1,0,0.1,0,0.2,0h-2.7c-0.1,0-0.1,0-0.2,0
		c-0.1,0-0.1,0-0.2,0c-1.4,0.2-2.6,1.3-2.7,2.7l-2.6,8.5c-0.5,1.7,0.4,3.4,2.1,3.9c0.8,0.2,1.6,0.1,2.2-0.2
		C172,242.1,171.3,240.5,171.7,239z"/>
	<path class="st16" d="M361.5,261.9H27.4c-5.1,0-9.2-4.1-9.2-9.2l0,0c0-5.1,4.1-9.2,9.2-9.2h334.1c5.1,0,9.2,4.1,9.2,9.2l0,0
		C370.7,257.7,366.6,261.9,361.5,261.9z"/>
	<polygon class="st16" points="143.1,166.8 139,150.7 130.9,144.4 112,159.3 123.8,176 	"/>
	<path class="st7" d="M133,153.3l-1.6-10.7c-0.3-1.7,0.9-3.3,2.6-3.6l0,0c1.7-0.3,3.3,0.9,3.6,2.6l1.6,10.7c0.3,1.7-0.9,3.3-2.6,3.6
		l0,0C134.9,156.1,133.3,155,133,153.3z"/>
	<path class="st7" d="M124.2,136.8l10.7,1.9c1.7,0.3,2.8,1.9,2.5,3.6v0c-0.3,1.7-1.9,2.8-3.6,2.5l-10.7-1.9
		c-1.7-0.3-2.8-1.9-2.5-3.6v0C120.9,137.6,122.5,136.5,124.2,136.8z"/>
	<path class="st8" d="M136,151.3l-1.3-8.7L126,141c-1.7-0.3-2.8-1.9-2.5-3.6c0-0.2,0.1-0.4,0.2-0.6c-1.5,0-2.9,1-3.1,2.6
		c-0.3,1.7,0.8,3.3,2.5,3.6l8.7,1.6l1.3,8.7c0.3,1.7,1.8,2.9,3.6,2.6c1.1-0.2,2-0.9,2.4-1.9C137.5,153.9,136.2,152.8,136,151.3z"/>
	<ellipse class="st8" cx="101.1" cy="127.1" rx="8.5" ry="12.7"/>
	<ellipse class="st6" cx="101.1" cy="127.1" rx="4.8" ry="7.1"/>
	<rect x="60.1" y="119.9" class="st8" width="28.7" height="5.5"/>
	<rect x="66.4" y="159.5" class="st8" width="28.7" height="5.5"/>
	<rect x="123.1" y="188.1" class="st0" width="28.7" height="5.5"/>
	<rect x="66.4" y="130.2" class="st8" width="22.5" height="2.9"/>
	<rect x="66.4" y="168.7" class="st8" width="22.5" height="2.9"/>
	<rect x="122.5" y="197.7" class="st0" width="22.5" height="2.9"/>
	<rect x="66.4" y="174.9" class="st8" width="22.5" height="2.9"/>
	<rect x="66.4" y="181" class="st8" width="12.5" height="2.9"/>
	<rect x="156.2" y="171.9" class="st0" width="8.1" height="1.4"/>
	<rect x="156.2" y="174" class="st0" width="6" height="0.8"/>
	<polygon class="st0" points="143.9,147 139.5,164.3 154,172.6 170,158.3 151.4,156.7 	"/>
	<polygon class="st20" points="143.9,147 139.5,164.3 154,172.6 170,158.3 151.4,156.7 	"/>
	<ellipse class="st6" cx="143.9" cy="147" rx="0.9" ry="1.4"/>
	<ellipse class="st6" cx="151.4" cy="156.6" rx="0.9" ry="1.4"/>
	<ellipse class="st6" cx="151.4" cy="162.2" rx="0.9" ry="1.4"/>
	<ellipse class="st6" cx="170" cy="158.4" rx="0.9" ry="1.4"/>
	<ellipse class="st6" cx="154.1" cy="172.6" rx="0.9" ry="1.4"/>
	<ellipse class="st6" cx="139.5" cy="164.3" rx="0.9" ry="1.4"/>
	<rect x="172" y="157" class="st0" width="8.1" height="1.4"/>
	<rect x="172" y="159.1" class="st0" width="6" height="0.8"/>
	<rect x="153.1" y="152.3" class="st0" width="8.1" height="1.4"/>
	<rect x="153.1" y="154.4" class="st0" width="6" height="0.8"/>
	
		<rect x="133.3" y="145.5" transform="matrix(-1 -1.224647e-16 1.224647e-16 -1 274.7947 292.4916)" class="st0" width="8.1" height="1.4"/>
	
		<rect x="135.4" y="147.7" transform="matrix(-1 -1.224647e-16 1.224647e-16 -1 276.8815 296.1306)" class="st0" width="6" height="0.8"/>
	
		<rect x="129.3" y="163.4" transform="matrix(-1 -1.224647e-16 1.224647e-16 -1 266.678 328.2364)" class="st0" width="8.1" height="1.4"/>
	
		<rect x="131.4" y="165.5" transform="matrix(-1 -1.224647e-16 1.224647e-16 -1 268.7649 331.8754)" class="st0" width="6" height="0.8"/>
	<polyline class="st20" points="151.4,156.6 151.4,162.2 143.9,147 	"/>
	<polyline class="st20" points="139.5,164.3 151.4,162.2 154.1,172.6 	"/>
	<line class="st20" x1="151.4" y1="162.2" x2="170" y2="158.4"/>
	<linearGradient id="SVGID_1_" gradientUnits="userSpaceOnUse" x1="112.0238" y1="78.4946" x2="112.0238" y2="243.0248">
		<stop  offset="0" style="stop-color:#00E729;stop-opacity:0"/>
		<stop  offset="0.2901" style="stop-color:#00DA3E;stop-opacity:0.2901"/>
		<stop  offset="0.7357" style="stop-color:#00C958;stop-opacity:0.7357"/>
		<stop  offset="1" style="stop-color:#00C362"/>
	</linearGradient>
	<polygon class="st21" points="112,78.5 0,78.5 52.7,243 112,243 171.4,243 224,78.5 	"/>
	<polygon class="st8" points="132.8,171.7 119.2,153.7 112,159.3 123.8,176 	"/>
	<path class="st8" d="M291.3,223.7c3.2-0.4,6,0.5,8.2,1.5c-1.4-3.4-4.9-5.5-8.5-5.2l-67.9,5.5l-35.7-5.6l35.7,8.6
		C223.1,228.7,284.7,224.5,291.3,223.7z"/>
	<rect x="38.3" y="159.5" class="st8" width="25" height="31.3"/>
	<rect x="80.7" y="197.1" class="st8" width="25" height="31.3"/>
	<path class="st17" d="M350.8,272.6H38.1c-5.9,0-10.7-4.8-10.7-10.7l0,0h334.1l0,0C361.5,267.8,356.7,272.6,350.8,272.6z"/>
	<path class="st10" d="M339,183.3c-10.7,0-19.6-7.4-21.9-17.3c-0.4,1.7-0.6,3.4-0.6,5.2c0,12.4,10.1,22.5,22.5,22.5
		c12.4,0,22.5-10.1,22.5-22.5c0-1.8-0.2-3.5-0.6-5.2C358.6,175.9,349.7,183.3,339,183.3z"/>
	<polygon class="st10" points="223.1,235 187.4,230.3 177.1,234 187.4,234.1 205.2,243.7 223.1,243.7 	"/>
	<circle class="st14" cx="339.6" cy="163" r="8.4"/>
	<circle class="st22" cx="247.8" cy="160.8" r="8.4"/>
	<circle class="st22" cx="240.8" cy="175.3" r="5.4"/>
	<circle class="st14" cx="259.8" cy="54.1" r="8.4"/>
	<rect x="138.9" y="235.1" class="st17" width="46" height="8.3"/>
	<rect x="33.4" y="235.1" class="st18" width="105.5" height="8.3"/>
	<rect x="315.4" y="84.8" class="st2" width="12.1" height="2.2"/>
	<circle class="st17" cx="253.6" cy="83.3" r="4.8"/>
	<circle class="st17" cx="280.3" cy="83.3" r="4.8"/>
</g>
</svg>
