<!DOCTYPE svg PUBLIC "-//W3C//DTD SVG 20010904//EN" "http://www.w3.org/TR/2001/REC-SVG-20010904/DTD/svg10.dtd">
<svg version="1.0" xmlns="http://www.w3.org/2000/svg" width="1024px" height="1024px" viewBox="0 0 10240 10240" preserveAspectRatio="xMidYMid meet">
<g id="layer101" fill="#ffffff" stroke="none">
 <path d="M4755 9704 c-16 -2 -86 -9 -155 -15 -714 -62 -1527 -353 -2165 -774 -466 -307 -863 -678 -1162 -1085 -484 -659 -820 -1491 -917 -2270 -37 -298 -47 -664 -26 -941 67 -857 381 -1715 888 -2429 392 -552 861 -977 1442 -1311 1032 -592 2197 -790 3315 -564 840 170 1601 547 2266 1126 402 349 772 852 1095 1492 212 418 371 946 433 1437 120 935 -42 1862 -474 2728 -189 377 -383 671 -664 1002 -721 851 -1855 1440 -3051 1586 -127 15 -743 29 -825 18z m1658 -2295 c84 -23 143 -107 177 -252 70 -299 800 -3767 800 -3803 0 -107 -53 -204 -132 -243 -54 -26 -99 -27 -175 -2 -32 10 -530 201 -1108 424 -577 223 -1605 619 -2284 881 -679 262 -1257 488 -1285 502 -101 51 -156 114 -156 180 0 49 63 98 165 129 142 43 791 241 998 305 l188 58 187 -118 c103 -65 725 -456 1382 -869 704 -444 1211 -756 1235 -763 81 -21 124 28 73 83 -13 13 -515 473 -1115 1022 -601 549 -1093 1001 -1093 1005 0 4 -20 272 -46 595 -25 324 -43 591 -39 595 12 13 102 -21 162 -61 34 -23 165 -141 290 -262 125 -121 256 -246 290 -279 l62 -58 583 434 c321 238 609 446 640 461 48 23 107 41 153 46 6 0 27 -4 48 -10z"/>
 </g>

</svg>