<?xml version="1.0" encoding="utf-8"?>
<!-- Generator: Adobe Illustrator 19.2.0, SVG Export Plug-In . SVG Version: 6.00 Build 0)  -->
<svg version="1.1" id="Out_line" xmlns="http://www.w3.org/2000/svg" xmlns:xlink="http://www.w3.org/1999/xlink" x="0px" y="0px"
	 viewBox="0 0 512 512" style="enable-background:new 0 0 512 512;" xml:space="preserve">
<style type="text/css">
	.st0{fill:#FFFFFF;}
</style>
<path class="st0" d="M312,16H24c-4.4,0-8,3.6-8,8c0,0,0,0,0,0v367.7c0,4.4,3.6,8,8,8c0,0,0,0,0,0h192v-16H32V96h256V80H32V32h272
	v239.7h16V24C320,19.6,316.4,16,312,16C312,16,312,16,312,16z"/>
<circle class="st0" cx="56" cy="56" r="8"/>
<circle class="st0" cx="88" cy="56" r="8"/>
<circle class="st0" cx="120" cy="56" r="8"/>
<path class="st0" d="M152,319.7c12.6,0,25-3.3,35.9-9.6l-8-13.9c-26.7,15.4-60.9,6.2-76.3-20.5c-4.9-8.5-7.4-18.1-7.5-27.9
	c0-1.5,0.1-2.9,0.2-4.3l10,10l11.3-11.3l-24-24c-3.1-3.1-8.2-3.1-11.3,0l-24,24l11.3,11.3l10.7-10.7c-0.1,1.7-0.2,3.4-0.2,5
	C80.2,287.5,112.3,319.6,152,319.7z"/>
<path class="st0" d="M216,279.8c2.1,0,4.2-0.8,5.7-2.3l24-24l-11.3-11.3l-10.7,10.7c0.1-1.7,0.2-3.4,0.2-5
	c0-39.7-32.2-71.8-71.9-71.8c-12.6,0-25,3.3-36,9.7l8,13.8c26.7-15.4,60.9-6.3,76.3,20.4c4.9,8.5,7.5,18.1,7.5,28
	c0,1.5-0.1,2.9-0.2,4.3l-10-10l-11.3,11.3l24,24C211.8,279,213.9,279.8,216,279.8z"/>
<path class="st0" d="M272,112h16v159.7h-16V112z"/>
<path class="st0" d="M240,431.7h144c4.4,0,8-3.6,8-8c0,0,0,0,0,0v-128c0-4.4-3.6-8-8-8c0,0,0,0,0,0H240c-4.4,0-8,3.6-8,8
	c0,0,0,0,0,0v128C232,428.1,235.6,431.7,240,431.7C240,431.7,240,431.7,240,431.7z M376,415.7H248v-48h128V415.7z M248,303.7h128v48
	H248V303.7z"/>
<path class="st0" d="M264,383.7h16v16h-16V383.7z"/>
<path class="st0" d="M296,383.7h16v16h-16V383.7z"/>
<path class="st0" d="M328,383.7h32v16h-32V383.7z"/>
<path class="st0" d="M264,319.7h16v16h-16V319.7z"/>
<path class="st0" d="M296,319.7h16v16h-16V319.7z"/>
<path class="st0" d="M328,319.7h32v16h-32V319.7z"/>
<path class="st0" d="M487.6,240c-4.6-5.3-11.2-8.3-18.2-8.3H336v16h104c4.4,0,8,3.6,8,8c0,0.4,0,0.8-0.1,1.2l-27.3,184
	c-0.6,3.9-4,6.8-7.9,6.8H178.5c-4.4,0-8-3.6-8-8c0-0.4,0-0.8,0.1-1.2l3.2-21.7l-15.8-2.3l-3.2,21.7c-0.6,3.9-0.2,7.8,1.1,11.5H40
	c-13.3,0-24,10.7-24,24s10.7,24,24,24h400c13.2,0,24-10.7,24-24c0-5.4-1.8-10.6-5.1-14.9c3.8-3.6,6.3-8.5,7.1-13.7l27.3-184
	C494.2,252.3,492.2,245.3,487.6,240z M32,471.7c0-4.4,3.6-8,8-8h177.4c-1.8,5.2-1.8,10.8,0,16H40C35.6,479.7,32,476.1,32,471.7z
	 M440,479.7H240c-4.4,0-8-3.6-8-8s3.6-8,8-8h200c4.4,0,8,3.6,8,8S444.4,479.7,440,479.7z M477.4,256.8l-27.3,184
	c-0.6,3.9-4,6.8-7.9,6.8h-6.8c0.5-1.5,0.9-3,1.1-4.5l27.3-184c0.6-3.9,0.2-7.8-1.1-11.5h6.8c4.4,0,8,3.6,8,8
	C477.5,256.1,477.4,256.4,477.4,256.8z"/>
</svg>
