<?xml version="1.0" encoding="utf-8"?>
<!-- Generator: Adobe Illustrator 19.2.0, SVG Export Plug-In . SVG Version: 6.00 Build 0)  -->
<svg version="1.1" id="Слой_1" xmlns="http://www.w3.org/2000/svg" xmlns:xlink="http://www.w3.org/1999/xlink" x="0px" y="0px"
	 viewBox="0 0 896.4 1058.9" style="enable-background:new 0 0 896.4 1058.9;" xml:space="preserve">
<style type="text/css">
	.st0{fill:#B1E5B5;}
	.st1{fill:#20201F;}
	.st2{fill:#FFFFFF;}
	.st3{fill:#C9C5B4;}
	.st4{fill:#DE9673;}
	.st5{fill:#2ED2AD;}
	.st6{fill:#EEA886;}
	.st7{fill:#DED1C5;}
	.st8{fill:#565656;}
	.st9{fill:#A77860;}
	.st10{opacity:0.72;fill:#FFFFFF;}
	.st11{fill:#5CE069;}
	.st12{fill:#2BB13B;}
	.st13{fill:#A09832;}
	.st14{fill:#727643;}
	.st15{fill:#4B4C37;}
	.st16{fill:#444532;}
	.st17{fill:#7D776B;}
	.st18{fill:#736D38;}
	.st19{fill:#2CB03A;}
	.st20{fill:#92B856;}
	.st21{fill:#367031;}
	.st22{fill:#4B5E26;}
	.st23{fill:#3A472D;}
	.st24{fill:#6A8F39;}
	.st25{fill:#2B7C3C;}
	.st26{fill:#706C3A;}
	.st27{fill:#858045;}
	.st28{fill:url(#SVGID_1_);}
	.st29{filter:url(#Adobe_OpacityMaskFilter);}
	.st30{filter:url(#Adobe_OpacityMaskFilter_1_);}
	.st31{mask:url(#SVGID_2_);fill:url(#SVGID_3_);}
	.st32{fill:url(#SVGID_4_);}
	.st33{fill:url(#SVGID_5_);}
	.st34{fill:url(#SVGID_6_);}
	.st35{fill:url(#SVGID_7_);}
</style>
<g>
	<path class="st0" d="M528,321h97.8c7.1,0,12.9-5.8,12.9-12.9v-97.8c0-7.1-5.8-12.9-12.9-12.9H528c-7.1,0-12.9,5.8-12.9,12.9v97.8
		C515.2,315.2,520.9,321,528,321z"/>
	<g>
		<g>
			<polygon class="st1" points="472.7,993.1 431.5,719.5 439.5,718.3 480.6,991.9 			"/>
		</g>
		<g>
			<polygon class="st1" points="422.4,993.1 381.3,719.5 389.2,718.3 430.4,991.9 			"/>
		</g>
		<g>
			<polygon class="st1" points="175,993.1 167.1,991.9 208.2,718.3 216.2,719.5 			"/>
		</g>
		<path class="st2" d="M444.4,722.3l32.2-339c0,0-56.4-7.4-90.4-5.6L335,722.3H444.4z"/>
		<rect x="335" y="705.1" class="st3" width="109.4" height="17.2"/>
		<path class="st2" d="M263.5,708.5l-17.1-323.1c0,0,142.6-15.5,230.2-2.1L263.5,708.5z"/>
		<path class="st1" d="M377.4,280.8c0,0,22-64.6-20-84.6c-42-20-77.7,8.9-84.5,24.6c-6.7,15.7-5,44.1,0.8,64
			c5.7,19.9,4.9,50.1-7.6,60.2c-12.5,10.1-28,26.9-27.2,61.1c0.5,21.2,83.4-54.2,83.4-54.2L377.4,280.8z"/>
		<path class="st1" d="M321.3,975.8c0,0-1.3,45.6,5.2,48.4c6.5,2.7,31.2-13.1,42.1-28.8S355,943.2,350.9,923
			c-1.7-8.4-20.9-23.6-30.2-19.3c-9.3,4.4-16.2,15.5-16.2,15.5S328.3,935.5,321.3,975.8z"/>
		<g>
			<path class="st4" d="M304.6,919.2c0,0,8.1,15.6,12.3,27.7c4.2,12.1,4.9,45.6,7.6,47.9c2.6,2.3,23.3-8.1,26.1-20.6
				c2.8-12.5-5.6-37.5-13.6-50.7c-8-13.2-16.1-19.7-16.1-19.7S306.6,906.5,304.6,919.2z"/>
		</g>
		<polygon class="st1" points="350.9,923 373.1,955.4 368.9,958.3 351.8,933.3 		"/>
		<path class="st4" d="M271,564.6c0,0,10.9,18.3,0,31.7c-10.9,13.4-83.9,50-83.4,71.2c0.5,21.2,13.9,54.4,18.7,62.8
			c4.8,8.4,22.5,43.3,31.8,63.8c9.2,20.4,62.5,118.2,72.9,140.2c10.4,22,4-88.1,4-88.1l-53.3-156.2l124.5-121.3
			C386.2,568.6,371.2,535,271,564.6z"/>
		<path class="st5" d="M318.3,357.6c0,0-34.5,7.7-48.3,15.7c-13.7,8-44.2,44.9-44.2,60.7s133.2,30.7,133.2,30.7l25.2,92.1
			c0,0,67.3-16.4,75.3-30s-26.5-110.6-31.3-131c-4.8-20.4-30-34.2-58-38.1C342.3,353.7,318.3,357.6,318.3,357.6z"/>
		<path class="st6" d="M400,567.6c0,0-2.4,15.8,4,22.4c6.4,6.7,35.9,45.6,20.3,83.9c-14.4,35.1-42.2,34.5-42.2,34.5H339
			c0,0,12.5,63.2,8.5,104.9c-4,41.7-23,136.8-23.4,141.6c-0.4,4.8-18.2,19.8-23.4,12.2c0,0-0.5-57.3-3.3-78.9
			c-2.8-21.6-14.7-108.2-18.3-121c-3.6-12.8-24.8-51.7-24.8-55.7c0-4-20.7-66.7,24.5-82.8C323.9,612.7,339.9,567.9,400,567.6z"/>
		<path class="st1" d="M279.1,1011.3c0,0-29.7,34.7-26.4,40.9c3.3,6.2,32.5,9.4,50.8,4c18.3-5.4,22.2-49.2,31.8-67.4
			c4-7.6-1.4-31.5-11.4-34c-10-2.5-22.3,1.9-22.3,1.9S309.9,984.4,279.1,1011.3z"/>
		<g>
			<path class="st6" d="M301.7,956.7c0,0-3.5,17.2-7.9,29.2c-4.4,12-24.8,38.5-24.2,42c0.6,3.5,23.2,8.3,33.2,0.4
				c10-8,19.2-32.7,21.3-48c2.1-15.2-0.1-25.5-0.1-25.5S311.3,948.1,301.7,956.7z"/>
		</g>
		<polygon class="st1" points="335.4,988.8 332.3,1028 327.2,1027.6 329.6,997.3 		"/>
		<path class="st1" d="M424.3,673.9c-13.6,35.6-42.2,34.5-42.2,34.5H339c0,0-18-28.5-62-33.4c-9.8-1.1-20.8-1-33.2,0.8
			c-0.2,0-0.3,0-0.4,0.1c-58.5,8.7-47.2,30.1-47,30.7c-4.9-11.9-10-30.7-8.7-40.9c5.6-46.3,72.5-56,83.4-69.4
			c10.9-13.4,0-31.7,0-31.7c100.2-29.5,115.3,4,115.3,4c4.4-0.6,15.6-7.1,20.4-7.1c0,0,5,11,8.5,20.8
			C418.3,591,439,635.3,424.3,673.9z"/>
		<polygon class="st2" points="382.7,419 397.5,556.8 202.4,556.8 187.6,419 		"/>
		<rect x="380.5" y="544.4" class="st7" width="32.6" height="12.4"/>
		<rect x="0" y="556.8" class="st8" width="608.8" height="18.8"/>
		<path class="st6" d="M339.9,207.2c0,0,43.7,12.9,37.5,73.6c-6.2,60.7-34.8,57.5-37.5,58c-2.7,0.4-36.6,2.7-47.3-70.9
			C281.9,194.3,339.9,207.2,339.9,207.2z"/>
		<path class="st6" d="M360.8,327.6c0,0-2.3,20.1,1.6,32.6c3.9,12.5-50.9,12.8-50.9,2.6c0-11.7,5.6-21.4,0.4-41.4
			C306.5,301.4,360.8,327.6,360.8,327.6z"/>
		<path class="st1" d="M328.6,234.3c0,0,23.8,37.8,48.7,46.5c0,0,13.7-63.4-42.7-76.7c-56.4-13.3-47.5,64-43.3,84.7
			C291.3,288.8,303.1,258.5,328.6,234.3z"/>
		<path class="st9" d="M318.3,330.2c0,0,17.3,18,39.4,1.9c0,0-1.8,11.5-17.7,13C324,346.6,318.3,330.2,318.3,330.2z"/>
		<path class="st10" d="M296.8,228.6c0,0,12.5-24.2,33.6-25.3c21.1-1.1,33.7,17.2,33.7,17.2s-8.2-20.6-33.6-20.6
			C305,199.9,296.8,228.6,296.8,228.6z"/>
		<path class="st6" d="M367.9,357.3c0,0-0.8,42-34.1,43.2c-33.3,1.2-26.4-40.3-26.4-40.3S331.8,350.4,367.9,357.3z"/>
		<rect x="595" y="575.6" class="st1" width="13.8" height="430.9"/>
		<rect x="20.6" y="575.6" class="st1" width="13.8" height="430.9"/>
	</g>
	<rect x="674.6" y="220.2" class="st8" width="118.2" height="10.9"/>
	<rect x="674.6" y="269.2" class="st8" width="204.4" height="10.9"/>
	<rect x="674.6" y="244.7" class="st8" width="160.7" height="10.9"/>
	<rect x="674.6" y="293.7" class="st8" width="89.1" height="10.9"/>
	<g>
		<rect x="534" y="229.9" class="st11" width="85.8" height="58.7"/>
		<polygon class="st12" points="534,288.6 576.9,255.8 619.8,288.6 		"/>
		<polygon class="st2" points="619.8,229.9 576.9,266.5 534,229.9 		"/>
	</g>
	<path class="st0" d="M410.4,151.3h97.8c7.1,0,12.9-5.8,12.9-12.9V40.7c0-7.1-5.8-12.9-12.9-12.9h-97.8c-7.1,0-12.9,5.8-12.9,12.9
		v97.8C397.5,145.6,403.3,151.3,410.4,151.3z"/>
	<rect x="557" y="50.6" class="st8" width="222.7" height="10.9"/>
	<rect x="557" y="99.6" class="st8" width="289" height="10.9"/>
	<rect x="557" y="75.1" class="st8" width="114.1" height="10.9"/>
	<rect x="557" y="124" class="st8" width="164.8" height="10.9"/>
	<g>
		<rect x="416.4" y="60.2" class="st11" width="85.8" height="58.7"/>
		<polygon class="st12" points="416.4,119 459.3,86.1 502.2,118.9 		"/>
		<polygon class="st2" points="502.2,60.2 459.3,96.8 416.4,60.2 		"/>
	</g>
	<rect x="674.6" y="387.5" class="st8" width="159.1" height="10.9"/>
	<g>
		<g>
			<g>
				<polygon class="st12" points="26.4,70.7 231.8,71.6 231.1,220.4 230.9,251.8 199.7,220.3 25.7,219.5 				"/>
			</g>
		</g>
		
			<ellipse transform="matrix(3.170484e-03 -1 1 3.170484e-03 -23.1829 279.7438)" class="st2" cx="128.7" cy="151.5" rx="15.7" ry="15.7"/>
		
			<ellipse transform="matrix(3.170638e-03 -1 1 3.170638e-03 -74.3645 228.0744)" class="st2" cx="77.2" cy="151.3" rx="15.7" ry="15.7"/>
		
			<ellipse transform="matrix(3.146435e-03 -1 1 3.146435e-03 26.8286 330.2308)" class="st2" cx="179.1" cy="151.7" rx="15.7" ry="15.7"/>
	</g>
	<g>
		<path class="st12" d="M124.8,508.1L124.8,508.1c0,0,11.7,5.6,8.6,3c-3-2.5,7.6-16.7,22.3-35.5c14.7-18.8,5.1-26.9-4.1-48.7
			c-3.6-8.7-10-11.9-16.1-11.7c-9.2,0.2-17.8,8.2-15.2,16.8c4.2,14.2,10,27.9-0.7,42.1C109.2,488.2,124.5,507.8,124.8,508.1z"/>
		<path class="st12" d="M156.4,431.8c7.1-3.5,15.7-16.2,8.6-19.3c-7.1-3-1.6-12.2-8.6-12.2c-7.1,0-10.6,11-6.6,17.2
			C149.9,417.6,149.3,435.4,156.4,431.8z"/>
		<path class="st12" d="M158.2,400.7c0,0,11.2-9.6,0-11.7c-11.2-2-8.1,10.1-7.1,11.7C152.2,402.2,158.2,400.7,158.2,400.7z"/>
		<path class="st13" d="M114.1,434.4c8.6-1.5,8.6-10.1,8.6-10.1s-6.8-12.7-12.7-6.8C104.2,423.2,105.5,435.9,114.1,434.4z"/>
		<path class="st13" d="M124.8,508.1L124.8,508.1c0,0,17-30.9,8.1-52.7c-6.2-15.3-1-31.7,2.7-40.1c-9.2,0.2-17.8,8.2-15.2,16.8
			c4.2,14.2,10,27.9-0.7,42.1C109.2,488.2,124.5,507.8,124.8,508.1z"/>
		<polygon class="st14" points="154.4,507.8 104.1,507.8 106.3,515.1 152.6,515.1 		"/>
		<polygon class="st15" points="143.7,556.8 147.9,523.4 148.9,515.1 110.3,515.1 115.2,556.8 		"/>
		<polygon class="st12" points="156.6,452.9 167.7,445.3 156.6,451.4 		"/>
		<polygon class="st12" points="143.9,402.9 150,408.4 150.5,407.1 		"/>
		<polygon class="st12" points="158.9,407.4 166.2,406.4 159.5,406.4 		"/>
		<polygon class="st12" points="151.5,382.9 153.7,390.3 154.6,390.3 		"/>
		<polygon class="st12" points="160.1,390.3 160.8,391.3 165.6,387.2 		"/>
		<polygon class="st12" points="156.6,389.3 157.9,389.8 156.6,384.9 		"/>
		<polygon class="st14" points="153.3,468.7 157.9,480.4 155.7,468.7 		"/>
		<polygon class="st14" points="111.1,424.2 101.5,417.6 110.2,425.2 		"/>
		<polygon class="st14" points="118.5,480.4 104.7,482.6 118.5,482.6 		"/>
		<path class="st16" d="M147.9,523.4l1-8.3h-38.6l4.9,41.7h9.4C123.8,533.9,140.3,525.9,147.9,523.4z"/>
	</g>
	<g>
		<polygon class="st17" points="131.7,492.1 131.4,495.5 130.3,506.5 130.1,509.3 129.6,513.9 129.4,516.6 127.1,540.3 125.7,555.6 
			125.6,556.8 53.3,556.8 53,553.2 50.3,509.5 49.4,495.5 49.3,493.6 49.2,493 48.8,486.6 87.2,489.2 89.3,489.3 95.6,489.7 
			116.3,491.1 116.9,491.2 131.1,492.1 		"/>
		<path class="st18" d="M122.3,472.9l12.3-56.9c0,0-22.2,43.2-22.2,61.3C112.4,495.4,122.3,472.9,122.3,472.9z"/>
		<path class="st19" d="M116.5,469.8c0,0,12.3-79.9,3.5-103.9c0,0-17.5,79.7-15.8,107C106,500.3,116.5,469.8,116.5,469.8z"/>
		<path class="st20" d="M69.2,477.3c-2.3-14-20.4-52.2-20.4-52.2c-1.2,19.5,8.8,52.2,8.8,52.2S71.6,491.3,69.2,477.3z"/>
		<path class="st21" d="M75.7,476.2c-1.7-16.3-20.4-77.6-20.4-77.6c-2.3,15.8,8.8,77.6,8.8,77.6S77.4,492.5,75.7,476.2z"/>
		<path class="st19" d="M81.5,476.8c-1.2-7-16.1-116.1-16.1-116.1c-6.2,16.3,4.1,112.3,4.1,112.3C70.1,478.9,82.7,483.8,81.5,476.8z
			"/>
		<path class="st22" d="M87.3,472.9c0-9.1-11.5-138.6-11.5-138.6c-1.6,8.2-6.3,86-6.3,86l6.2,55.8C75.7,476.2,87.3,482,87.3,472.9z"
			/>
		<path class="st23" d="M108.4,358.3c0,0-19.3,103.5-18.2,119.7c1.2,16.2,20,22.7,18.2-50.5C108.4,427.5,109.6,371.7,108.4,358.3z"
			/>
		<path class="st24" d="M104.1,416.1c0,0-1.7-32.7-4.6-43.8c0,0-14,99.7-12.2,107.9C89.1,488.4,101.6,464.4,104.1,416.1z"/>
		<path class="st25" d="M95.7,441c3.1-35.6-11.2-90.3-11.2-90.3c-4.1,8.2-6,55.5-6,55.5s5.4,77.6,8.8,83
			C90.5,494.6,92.6,476.6,95.7,441z"/>
		<path class="st26" d="M131.7,492.1l-0.3,3.4l-1,11l-0.3,2.8l-0.4,4.6l-0.3,2.8c-4.2,0.9-10.5,3.1-17.7,8.9
			c-7.4,5.9-15.8,15.6-23.9,31.3H53.3l-0.2-3.6l-2.8-43.7l-0.9-14l-0.1-1.9l0-0.7l46.4-1.3l20.7-0.6l0.6,0l14.1,0.9L131.7,492.1z"/>
		<polygon class="st27" points="47.9,472.9 42.6,495.5 137.9,495.5 131.9,472.9 		"/>
	</g>
	<rect x="674.6" y="436.4" class="st8" width="221.7" height="10.9"/>
	<rect x="674.6" y="412" class="st8" width="132.8" height="10.9"/>
	<rect x="674.6" y="460.9" class="st8" width="90.7" height="10.9"/>
	<g>
		<linearGradient id="SVGID_1_" gradientUnits="userSpaceOnUse" x1="490.0208" y1="524.4666" x2="563.7967" y2="524.4666">
			<stop  offset="0" style="stop-color:#FF9F55"/>
			<stop  offset="1" style="stop-color:#FFD255"/>
		</linearGradient>
		<path class="st28" d="M559,503.8c-4.2-2.8-10.1-2.1-14.1-1.1l1.5-10.6H490l9,64.7h38.3l0.8-6l0.8-5.8c5.8-0.1,11-2.2,15.2-6
			c6.1-5.6,9.6-14.6,9.6-24.7C563.8,508.3,561.2,505.3,559,503.8z M550.1,534.4c-2.9,2.6-6.3,4.1-10.2,4.3l4.1-29.4
			c3-1,8.7-2.4,11.6-0.4c0.5,0.3,2.1,1.4,2.1,5.4C557.6,522.7,554.9,530,550.1,534.4z"/>
		<defs>
			<filter id="Adobe_OpacityMaskFilter" filterUnits="userSpaceOnUse" x="490" y="492.1" width="47.3" height="64.7">
				<feFlood  style="flood-color:white;flood-opacity:1" result="back"/>
				<feBlend  in="SourceGraphic" in2="back" mode="normal"/>
			</filter>
		</defs>
		<mask maskUnits="userSpaceOnUse" x="490" y="492.1" width="47.3" height="64.7" id="SVGID_2_">
			<g class="st29">
				<defs>
					<filter id="Adobe_OpacityMaskFilter_1_" filterUnits="userSpaceOnUse" x="490" y="492.1" width="47.3" height="64.7">
						<feFlood  style="flood-color:white;flood-opacity:1" result="back"/>
						<feBlend  in="SourceGraphic" in2="back" mode="normal"/>
					</filter>
				</defs>
				<mask maskUnits="userSpaceOnUse" x="490" y="492.1" width="47.3" height="64.7" id="SVGID_2_">
					<g class="st30">
					</g>
				</mask>
				<linearGradient id="SVGID_3_" gradientUnits="userSpaceOnUse" x1="492.2734" y1="563.6984" x2="519.6832" y2="513.4897">
					<stop  offset="0" style="stop-color:#FFFFFF"/>
					<stop  offset="1" style="stop-color:#000000"/>
				</linearGradient>
				<path class="st31" d="M537.4,556.8L537.4,556.8H499l-9-64.7h20.7C510.8,492.1,503.3,550.5,537.4,556.8
					C537.4,556.8,537.4,556.8,537.4,556.8z"/>
			</g>
		</mask>
		<linearGradient id="SVGID_4_" gradientUnits="userSpaceOnUse" x1="492.2734" y1="563.6984" x2="519.6832" y2="513.4897">
			<stop  offset="0" style="stop-color:#FFA155"/>
			<stop  offset="1" style="stop-color:#FFA155"/>
		</linearGradient>
		<path class="st32" d="M537.4,556.8L537.4,556.8H499l-9-64.7h20.7C510.8,492.1,503.3,550.5,537.4,556.8
			C537.4,556.8,537.4,556.8,537.4,556.8z"/>
		<linearGradient id="SVGID_5_" gradientUnits="userSpaceOnUse" x1="501.5834" y1="492.5202" x2="519.3115" y2="460.0464">
			<stop  offset="5.181350e-03" style="stop-color:#E6E6E6"/>
			<stop  offset="1" style="stop-color:#FFDCC2"/>
		</linearGradient>
		<path class="st33" d="M516,447.5c0,0-11.9,4-7.5,14.5c4.4,10.5,11.9,17.2,4.8,30.1c0,0,13.2-7.9,7-21.1
			C514.2,457.8,510.5,454.1,516,447.5z"/>
		<linearGradient id="SVGID_6_" gradientUnits="userSpaceOnUse" x1="522.4034" y1="492.408" x2="535.4075" y2="468.5873">
			<stop  offset="5.181350e-03" style="stop-color:#E6E6E6"/>
			<stop  offset="1" style="stop-color:#FFDCC2"/>
		</linearGradient>
		<path class="st34" d="M532.9,459.4c0,0-8.7,2.9-5.5,10.6c3.2,7.7,8.8,12.6,3.5,22.1c0,0,9.7-5.8,5.2-15.5
			C531.7,467,528.9,464.2,532.9,459.4z"/>
		<linearGradient id="SVGID_7_" gradientUnits="userSpaceOnUse" x1="490.8015" y1="492.4081" x2="503.8056" y2="468.5873">
			<stop  offset="5.181350e-03" style="stop-color:#E6E6E6"/>
			<stop  offset="1" style="stop-color:#FFDCC2"/>
		</linearGradient>
		<path class="st35" d="M501.3,459.4c0,0-8.7,2.9-5.5,10.6c3.2,7.7,8.8,12.6,3.5,22.1c0,0,9.7-5.8,5.2-15.5
			C500.1,467,497.3,464.2,501.3,459.4z"/>
	</g>
	<path class="st0" d="M528,488.2h97.8c7.1,0,12.9-5.8,12.9-12.9v-97.8c0-7.1-5.8-12.9-12.9-12.9H528c-7.1,0-12.9,5.8-12.9,12.9v97.8
		C515.2,482.5,520.9,488.2,528,488.2z"/>
	<g>
		<rect x="534" y="397.1" class="st11" width="85.8" height="58.7"/>
		<polygon class="st12" points="534,455.9 576.9,423 619.8,455.8 		"/>
		<polygon class="st2" points="619.8,397.1 576.9,433.7 534,397.1 		"/>
	</g>
</g>
</svg>
